<svg width="89" height="89" viewBox="0 0 89 89" fill="none" xmlns="http://www.w3.org/2000/svg"><rect width="89" height="89" rx="22" fill="#EEE7FA"/><path d="M64.948 57.26h-2.539a.746.746 0 0 0 0 1.494h2.539a.756.756 0 0 0 .723-.453.744.744 0 0 0-.426-.993.756.756 0 0 0-.297-.047Zm0-1.985h-2.539a.746.746 0 0 0 0 1.494h2.539a.756.756 0 0 0 .723-.453.744.744 0 0 0-.426-.993.756.756 0 0 0-.297-.048Zm0-1.987h-2.539a.754.754 0 0 0-.72.747.746.746 0 0 0 .72.747h2.539a.754.754 0 0 0 .784-.747.744.744 0 0 0-.487-.7.756.756 0 0 0-.297-.047Zm0-3.154h-2.539a.746.746 0 0 0 0 1.494h2.539a.754.754 0 0 0 .784-.747.744.744 0 0 0-.487-.7.756.756 0 0 0-.297-.047Zm0-1.986h-2.539a.746.746 0 0 0 0 1.494h2.539a.756.756 0 0 0 .723-.453.744.744 0 0 0-.426-.993.756.756 0 0 0-.297-.048Zm0-1.986h-2.539a.754.754 0 0 0-.72.747.746.746 0 0 0 .72.747h2.539a.756.756 0 0 0 .723-.454.744.744 0 0 0-.426-.993.756.756 0 0 0-.297-.047Zm0-3.155h-2.539c-.2 0-.39.079-.532.22a.745.745 0 0 0 .532 1.276h2.539c.2 0 .39-.08.532-.22a.746.746 0 0 0-.532-1.276Zm0-1.985h-2.539a.754.754 0 0 0-.72.747.746.746 0 0 0 .72.747h2.539a.756.756 0 0 0 .723-.454.744.744 0 0 0-.426-.993.756.756 0 0 0-.297-.047Zm0-1.987h-2.539a.746.746 0 0 0 0 1.494h2.539a.756.756 0 0 0 .723-.454.744.744 0 0 0-.426-.993.758.758 0 0 0-.297-.047Z" fill="#000"/><path d="M69.586 31.348a4.173 4.173 0 0 0-1.145-2.62 4.22 4.22 0 0 0-2.57-1.279 71.838 71.838 0 0 0-8.455-.488h-.17c-.013-.227-.025-.453-.04-.68a7.107 7.107 0 0 0-1.982-4.513 7.187 7.187 0 0 0-4.452-2.158 116.188 116.188 0 0 0-23.773 0 7.186 7.186 0 0 0-4.451 2.158 7.106 7.106 0 0 0-1.982 4.513 293.425 293.425 0 0 0 0 36.438c.1 1.69.803 3.29 1.982 4.513a7.186 7.186 0 0 0 4.451 2.158A116 116 0 0 0 38.89 70c3.972 0 7.94-.203 11.891-.61a7.154 7.154 0 0 0 4.085-1.814.75.75 0 0 0 .245-.517.743.743 0 0 0-.43-.712.754.754 0 0 0-.825.123 5.65 5.65 0 0 1-3.242 1.429c-7.8.803-15.662.803-23.462 0a5.682 5.682 0 0 1-3.521-1.707 5.619 5.619 0 0 1-1.567-3.57 291.49 291.49 0 0 1 0-36.258 5.622 5.622 0 0 1 1.567-3.57 5.684 5.684 0 0 1 3.52-1.707c7.8-.803 15.663-.803 23.463 0 1.341.135 2.59.74 3.522 1.707a5.622 5.622 0 0 1 1.567 3.57 291.993 291.993 0 0 1 0 36.258 5.588 5.588 0 0 1-.4 1.763.743.743 0 0 0 .425.946.756.756 0 0 0 .968-.386c.29-.711.46-1.464.508-2.23l.04-.68h.267c2.792 0 5.58-.164 8.353-.488a4.22 4.22 0 0 0 2.575-1.279 4.174 4.174 0 0 0 1.147-2.624c.552-8.757.552-17.54 0-26.296ZM68.09 57.556a2.687 2.687 0 0 1-.738 1.684 2.717 2.717 0 0 1-1.654.823 70.03 70.03 0 0 1-8.274.48h-.088c.585-10.69.585-21.404 0-32.093h.087a70.853 70.853 0 0 1 8.275.48 2.717 2.717 0 0 1 1.654.822c.437.458.698 1.054.738 1.685.546 8.697.546 17.42 0 26.119Z" fill="#000"/><path d="M53.453 27.8A4.639 4.639 0 0 0 52 24.88a4.69 4.69 0 0 0-3.025-1.254 255.41 255.41 0 0 0-20.175 0 4.69 4.69 0 0 0-3.024 1.254 4.639 4.639 0 0 0-1.454 2.919 29.269 29.269 0 0 0 0 6.306c.089.809.388 1.58.867 2.24a4.719 4.719 0 0 0 1.868 1.522.755.755 0 0 0 1.089-.651.744.744 0 0 0-.47-.71 3.214 3.214 0 0 1-1.27-1.037 3.188 3.188 0 0 1-.59-1.525 27.832 27.832 0 0 1 0-5.985 3.151 3.151 0 0 1 .987-1.986 3.187 3.187 0 0 1 2.057-.853 252.4 252.4 0 0 1 20.052 0 3.18 3.18 0 0 1 2.057.853c.56.522.91 1.228.987 1.986a27.73 27.73 0 0 1 0 5.986 3.151 3.151 0 0 1-.987 1.987c-.56.522-1.29.825-2.057.853-6.146.248-12.39.266-18.554.056a.755.755 0 0 0-.71.437.743.743 0 0 0 .373.989c.09.04.186.063.285.066a249.38 249.38 0 0 0 18.668-.055 4.69 4.69 0 0 0 3.023-1.255 4.638 4.638 0 0 0 1.454-2.918c.227-2.096.227-4.21 0-6.305h.002Zm-4.367 12.985a143.558 143.558 0 0 0-20.393 0 4.486 4.486 0 0 0-2.822 1.254 4.436 4.436 0 0 0-1.33 2.773 88.284 88.284 0 0 0 0 16.488 4.436 4.436 0 0 0 1.33 2.772 4.485 4.485 0 0 0 2.822 1.253 143.172 143.172 0 0 0 20.393 0 4.485 4.485 0 0 0 2.822-1.253 4.435 4.435 0 0 0 1.33-2.773 88.49 88.49 0 0 0 0-16.487 4.436 4.436 0 0 0-1.33-2.773 4.486 4.486 0 0 0-2.822-1.254Zm2.655 4.165a81.92 81.92 0 0 1 .245 3.32c-2.434-.06-4.89-.102-7.324-.132-.03-2.043-.083-4.09-.155-6.116 1.494.058 2.984.14 4.47.247a2.98 2.98 0 0 1 1.878.83c.506.49.82 1.144.886 1.843v.008Zm-26.019 4.82c2.45-.061 4.923-.104 7.375-.133a323.96 323.96 0 0 0 0 6.83 486.016 486.016 0 0 1-7.375-.132 86.922 86.922 0 0 1 0-6.57v.005Zm8.88 6.715c-.026-2.279-.026-4.58 0-6.86 2.85-.022 5.725-.022 8.576 0 .025 2.28.025 4.58 0 6.86-2.85.024-5.727.024-8.576 0ZM44.68 49.64c2.453.026 4.925.069 7.375.133a86.925 86.925 0 0 1 0 6.57c-2.45.061-4.922.104-7.375.133.025-2.27.025-4.56 0-6.83v-.006Zm-1.682-7.667c.072 2.036.125 4.098.157 6.153a537.701 537.701 0 0 0-8.538 0c.032-2.055.084-4.117.156-6.153 1.37-.04 2.742-.06 4.112-.061a134.31 134.31 0 0 1 4.113.06ZM26.03 44.945c.065-.7.38-1.353.886-1.843a2.979 2.979 0 0 1 1.877-.83c1.486-.108 2.976-.19 4.47-.247a307.9 307.9 0 0 0-.154 6.116 448.28 448.28 0 0 0-7.325.132c.06-1.11.141-2.216.246-3.32v-.008Zm0 16.21a82.602 82.602 0 0 1-.246-3.32c2.434.06 4.89.102 7.326.132.03 2.043.082 4.09.153 6.116-1.494-.06-2.984-.142-4.47-.247a2.981 2.981 0 0 1-1.877-.831 2.947 2.947 0 0 1-.886-1.844v-.006Zm8.739 2.973a311.248 311.248 0 0 1-.157-6.154c1.42.011 2.845.018 4.276.019 1.431 0 2.856-.006 4.275-.02a311.476 311.476 0 0 1-.157 6.155c-2.74.08-5.48.08-8.225 0h-.012Zm16.968-2.973a2.95 2.95 0 0 1-.886 1.843 2.98 2.98 0 0 1-1.877.832 138.36 138.36 0 0 1-4.47.247c.072-2.026.124-4.075.154-6.116 2.436-.027 4.89-.07 7.325-.133a82.114 82.114 0 0 1-.246 3.32v.007Z" fill="#000"/><path d="M47.592 33.7c-.904 0-1.202-.035-1.912-.412a.753.753 0 0 0-1.096.873.748.748 0 0 0 .384.443c.735.399 1.25.531 1.87.571v.3a.744.744 0 0 0 .457.718.756.756 0 0 0 .999-.423.744.744 0 0 0 .048-.296v-.357c1.377-.28 2.216-1.298 2.358-2.3.133-.912-.308-2.145-1.956-2.624-.817-.235-1.721-.521-2.238-.854a.414.414 0 0 1-.175-.443c.044-.255.258-.57.73-.687a2.395 2.395 0 0 1 1.824.226.752.752 0 0 0 1.167-.791.744.744 0 0 0-.365-.468 3.65 3.65 0 0 0-1.344-.493v-.25a.746.746 0 0 0-.752-.716.754.754 0 0 0-.751.716v.3a3.36 3.36 0 0 0-.134.031c-.972.24-1.7.982-1.853 1.892a1.894 1.894 0 0 0 .842 1.944c.548.352 1.31.65 2.633 1.033.627.182.95.54.889.982-.075.524-.668 1.085-1.625 1.09V33.7Z" fill="#000"/></svg>