<svg width="89" height="89" viewBox="0 0 89 89" fill="none" xmlns="http://www.w3.org/2000/svg"><rect width="89" height="89" rx="22" fill="#F7F3E6"/><path d="M70.329 22.654a3.337 3.337 0 0 0-.934-2.016 3.21 3.21 0 0 0-1.974-.952 143.802 143.802 0 0 0-28.053 0 3.21 3.21 0 0 0-1.98.953 3.336 3.336 0 0 0-.933 2.02c-.7 7.456-.853 14.954-.457 22.432-2.737.08-5.486.221-8.261.428a9.295 9.295 0 0 0-6.1 2.938 9.679 9.679 0 0 0-2.59 6.36c-.06 2.266-.062 4.565-.008 6.828a9.658 9.658 0 0 0 2.052 5.759.75.75 0 0 0 1.058.11.79.79 0 0 0 .133-1.077 8.089 8.089 0 0 1-1.72-4.827c-.053-2.238-.05-4.51.008-6.747a8.078 8.078 0 0 1 2.16-5.334 7.757 7.757 0 0 1 5.114-2.457c8.84-.667 17.716-.67 26.556-.01a7.744 7.744 0 0 1 5.103 2.442 8.064 8.064 0 0 1 2.165 5.313c.06 2.242.06 4.525.008 6.778a8.112 8.112 0 0 1-2.342 5.531 7.78 7.78 0 0 1-5.45 2.31h-.743a7.626 7.626 0 0 1-4.588-1.553 7.896 7.896 0 0 1-2.789-4.031 4.012 4.012 0 0 0-1.415-2.072 3.874 3.874 0 0 0-2.347-.797h-1.76c-.85 0-1.675.28-2.355.798a4.013 4.013 0 0 0-1.416 2.08 7.896 7.896 0 0 1-2.788 4.03 7.626 7.626 0 0 1-4.587 1.553h-.742a7.694 7.694 0 0 1-3.995-1.148.748.748 0 0 0-.576-.09.763.763 0 0 0-.47.353.792.792 0 0 0-.087.588c.048.2.172.373.345.48A9.18 9.18 0 0 0 28.345 71h.758a9.168 9.168 0 0 0 5.482-1.868 9.492 9.492 0 0 0 3.342-4.814c.146-.509.45-.956.864-1.274a2.382 2.382 0 0 1 1.438-.496h1.76a2.385 2.385 0 0 1 1.438.496c.415.318.718.765.865 1.273a9.491 9.491 0 0 0 3.347 4.82A9.167 9.167 0 0 0 53.129 71h.757a9.286 9.286 0 0 0 6.51-2.754 9.682 9.682 0 0 0 2.798-6.604c.056-2.284.053-4.592 0-6.86 0-.052 0-.102-.008-.151 1.411-.097 2.833-.213 4.239-.352a3.215 3.215 0 0 0 1.973-.957 3.34 3.34 0 0 0 .93-2.018c.896-9.528.896-19.122 0-28.65Zm-1.517 28.502a1.768 1.768 0 0 1-.494 1.07 1.7 1.7 0 0 1-1.047.504c-1.42.139-2.854.257-4.279.353a9.58 9.58 0 0 0-2.293-4.55 13.614 13.614 0 0 0 3.881-3.9 13.926 13.926 0 0 0 2.052-5.15 14.045 14.045 0 0 0-.11-5.559 13.9 13.9 0 0 0-2.257-5.06.767.767 0 0 0-.498-.31.746.746 0 0 0-.566.141.772.772 0 0 0-.303.51.792.792 0 0 0 .138.578 12.33 12.33 0 0 1 2.022 4.588 12.46 12.46 0 0 1 .037 5.032 12.34 12.34 0 0 1-1.953 4.62 12.054 12.054 0 0 1-3.613 3.422 9.244 9.244 0 0 0-5.023-1.936c-3.386-.25-6.733-.407-10.083-.468a12.352 12.352 0 0 1-3.014-8.401 12.328 12.328 0 0 1 3.41-8.242 11.832 11.832 0 0 1 8.002-3.648 11.789 11.789 0 0 1 8.285 2.91.75.75 0 0 0 1.066-.096.788.788 0 0 0-.083-1.09 13.296 13.296 0 0 0-8.99-3.237 13.321 13.321 0 0 0-8.838 3.652 13.863 13.863 0 0 0-4.256 8.712 13.973 13.973 0 0 0 2.457 9.407c-1.645-.01-3.292 0-4.94.033-.395-7.415-.245-14.85.448-22.243.039-.405.214-.783.495-1.07a1.705 1.705 0 0 1 1.047-.506c9.234-.903 18.53-.903 27.764 0a1.7 1.7 0 0 1 1.047.506c.282.287.456.665.494 1.07a151.38 151.38 0 0 1 0 28.354l-.005.004Z" fill="#000"/><path d="M53.4 33.825a3.04 3.04 0 0 0-1.716.532 3.14 3.14 0 0 0-1.137 1.415 3.216 3.216 0 0 0-.176 1.822 3.18 3.18 0 0 0 .845 1.615c.432.441.982.741 1.581.863.6.122 1.22.06 1.784-.18a3.102 3.102 0 0 0 1.386-1.16 3.202 3.202 0 0 0-.385-3.982 3.06 3.06 0 0 0-2.182-.925Zm0 4.75a1.54 1.54 0 0 1-.87-.266 1.59 1.59 0 0 1-.58-.715 1.63 1.63 0 0 1 .335-1.743 1.534 1.534 0 0 1 1.704-.35c.287.12.532.324.704.586a1.623 1.623 0 0 1-.19 2.017c-.292.3-.69.47-1.103.471ZM29.369 50.127h-1.22a2.135 2.135 0 0 0-1.52.647c-.402.412-.63.971-.63 1.554v1.474h-1.446c-.572 0-1.12.233-1.524.646a2.229 2.229 0 0 0-.632 1.556v1.245a2.23 2.23 0 0 0 .634 1.553 2.13 2.13 0 0 0 1.522.643h1.444v1.475c.001.583.23 1.142.634 1.553.404.412.952.643 1.523.643h1.219c.571 0 1.12-.233 1.524-.646.404-.412.631-.972.632-1.556v-1.469h1.444c.57 0 1.119-.233 1.522-.645.404-.413.632-.972.632-1.555V56c0-.584-.227-1.143-.631-1.556a2.135 2.135 0 0 0-1.523-.646h-1.448v-1.47a2.22 2.22 0 0 0-.633-1.556 2.135 2.135 0 0 0-1.523-.645Zm3.6 5.231c.167 0 .328.069.446.19a.653.653 0 0 1 .185.456v1.245a.652.652 0 0 1-.185.456.625.625 0 0 1-.447.188h-2.206a.754.754 0 0 0-.538.229.787.787 0 0 0-.223.55v2.252a.655.655 0 0 1-.185.456.627.627 0 0 1-.447.19h-1.22a.626.626 0 0 1-.446-.19.653.653 0 0 1-.184-.456v-2.256a.787.787 0 0 0-.224-.55.755.755 0 0 0-.539-.229h-2.203a.625.625 0 0 1-.447-.189.653.653 0 0 1-.186-.455V56a.65.65 0 0 1 .186-.456.628.628 0 0 1 .447-.19h2.207a.748.748 0 0 0 .54-.227.778.778 0 0 0 .223-.55v-2.25c0-.17.066-.334.185-.455a.624.624 0 0 1 .446-.189h1.219c.167 0 .328.068.447.189.118.12.185.285.185.456v2.253c0 .206.08.404.223.55a.753.753 0 0 0 .538.227h2.203ZM58.7 53.296c0-.626-.183-1.238-.523-1.759a3.115 3.115 0 0 0-1.392-1.166 3.04 3.04 0 0 0-1.791-.18 3.08 3.08 0 0 0-1.587.867 3.187 3.187 0 0 0-.848 1.621 3.234 3.234 0 0 0 .176 1.83 3.153 3.153 0 0 0 1.143 1.42c.51.348 1.11.533 1.722.533a3.07 3.07 0 0 0 2.191-.928 3.202 3.202 0 0 0 .908-2.238Zm-4.676 0c0-.318.093-.63.266-.895.173-.264.42-.47.708-.593a1.546 1.546 0 0 1 1.718.35 1.643 1.643 0 0 1 .34 1.755 1.596 1.596 0 0 1-.58.722 1.553 1.553 0 0 1-1.99-.201 1.629 1.629 0 0 1-.462-1.138Zm-5.52 6.086c0 .626.181 1.238.522 1.759.34.52.824.927 1.39 1.166a3.04 3.04 0 0 0 1.792.181 3.08 3.08 0 0 0 1.587-.866 3.19 3.19 0 0 0 .85-1.621 3.235 3.235 0 0 0-.177-1.83 3.153 3.153 0 0 0-1.142-1.42 3.054 3.054 0 0 0-1.722-.534 3.072 3.072 0 0 0-2.19.928 3.205 3.205 0 0 0-.91 2.236Zm4.676 0c0 .318-.092.63-.265.894a1.584 1.584 0 0 1-.707.594 1.547 1.547 0 0 1-1.718-.348 1.642 1.642 0 0 1-.342-1.755c.119-.294.32-.546.58-.723a1.553 1.553 0 0 1 1.99.2c.295.302.462.71.462 1.138Zm-10.669-.798a1.934 1.934 0 0 0 1.426-.57 2.049 2.049 0 0 0 0-2.881 1.934 1.934 0 0 0-1.426-.57h-2.783a1.934 1.934 0 0 0-1.426.57 2.049 2.049 0 0 0 0 2.881c.188.187.412.334.657.432.244.098.506.145.769.138h2.783Zm-3.229-2.01a.46.46 0 0 1 .13-.322.441.441 0 0 1 .316-.133h2.782a.437.437 0 0 1 .33.124.454.454 0 0 1 .14.33.462.462 0 0 1-.14.33.443.443 0 0 1-.33.125h-2.782a.438.438 0 0 1-.412-.28.462.462 0 0 1-.034-.174Z" fill="#000"/></svg>