<svg width="89" height="89" viewBox="0 0 89 89" fill="none" xmlns="http://www.w3.org/2000/svg"><path d="M0 22C0 9.85 9.85 0 22 0h45c12.15 0 22 9.85 22 22v45c0 12.15-9.85 22-22 22H22C9.85 89 0 79.15 0 67V22Z" fill="#FFEFED"/><path d="M42.338 22.48c.047.498.27.96.627 1.297.357.337.822.523 1.304.523h.064a16.8 16.8 0 0 1 6.977 1.256 17.347 17.347 0 0 1 5.917 4.043 18.101 18.101 0 0 1 2.62 3.487l-1.096.128a2.35 2.35 0 0 0-1.162.474c-.34.26-.61.61-.779 1.014a2.6 2.6 0 0 0 .267 2.491l.724 1.022a.711.711 0 0 0 .99.113.765.765 0 0 0 .283-.471.786.786 0 0 0-.1-.546l-.723-1.021a1.02 1.02 0 0 1-.107-.976.98.98 0 0 1 .303-.399.926.926 0 0 1 .455-.188l2.192-.254a.713.713 0 0 0 .33-.126.752.752 0 0 0 .235-.272.785.785 0 0 0 .004-.71c-1.642-3.292-4.147-6.034-7.225-7.909a18.332 18.332 0 0 0-10.17-2.682.457.457 0 0 1-.328-.119.493.493 0 0 1-.158-.321l-.116-1.262a.51.51 0 0 1 .114-.369.465.465 0 0 1 .332-.163 20.472 20.472 0 0 1 11.94 3.325c3.572 2.324 6.39 5.707 8.095 9.713a.75.75 0 0 0 .304.354.708.708 0 0 0 .447.097l2.565-.297a.912.912 0 0 1 .485.075c.152.07.284.18.383.318a1.005 1.005 0 0 1 .103.979l-3.45 8.203a.977.977 0 0 1-.305.398.912.912 0 0 1-.941.11.954.954 0 0 1-.383-.319l-2.657-3.746a.712.712 0 0 0-1.007-.137.767.767 0 0 0-.288.483.787.787 0 0 0 .115.557l2.657 3.746a2.4 2.4 0 0 0 .849.754c.336.177.708.27 1.085.269.091 0 .184 0 .276-.016.422-.047.824-.21 1.165-.471a2.47 2.47 0 0 0 .777-1.019l3.45-8.203a2.594 2.594 0 0 0-.266-2.49 2.43 2.43 0 0 0-.975-.81 2.33 2.33 0 0 0-1.233-.196l-2.036.236c-1.877-4.156-4.888-7.646-8.659-10.035a21.844 21.844 0 0 0-12.548-3.402c-.263.01-.52.077-.758.194a1.96 1.96 0 0 0-.623.49 2.03 2.03 0 0 0-.385.707c-.08.26-.11.535-.084.807l.128 1.266Zm5.321 45.044a2.045 2.045 0 0 0-.651-1.32 1.896 1.896 0 0 0-1.343-.5c-3.103.1-6.176-.662-8.903-2.206a17.8 17.8 0 0 1-6.61-6.58l1.095-.128c.42-.048.822-.211 1.163-.472.34-.261.61-.611.78-1.015a2.597 2.597 0 0 0-.268-2.492l-5.115-7.21a2.428 2.428 0 0 0-.976-.81 2.328 2.328 0 0 0-2.398.279 2.49 2.49 0 0 0-.778 1.015l-3.45 8.203a2.598 2.598 0 0 0 .266 2.491c.251.354.587.634.975.81a2.33 2.33 0 0 0 1.233.197l2.033-.237c.122.27.25.539.382.804.09.18.243.315.429.376a.707.707 0 0 0 .559-.049.755.755 0 0 0 .362-.446.79.79 0 0 0-.048-.581c-.201-.406-.39-.813-.564-1.227a.753.753 0 0 0-.305-.355.71.71 0 0 0-.447-.097l-2.562.298a.913.913 0 0 1-.486-.076.953.953 0 0 1-.383-.318 1.018 1.018 0 0 1-.104-.98l3.45-8.202a.977.977 0 0 1 .305-.399.912.912 0 0 1 .941-.11.95.95 0 0 1 .383.32l5.11 7.207a1.006 1.006 0 0 1 .107.976.978.978 0 0 1-.304.398.926.926 0 0 1-.454.187l-2.192.256a.714.714 0 0 0-.33.127.752.752 0 0 0-.235.271.785.785 0 0 0-.003.71c1.642 3.292 4.147 6.034 7.225 7.908a18.333 18.333 0 0 0 10.169 2.682.456.456 0 0 1 .328.119.496.496 0 0 1 .16.321l.115 1.262a.508.508 0 0 1-.115.368.468.468 0 0 1-.332.164 20.277 20.277 0 0 1-8.47-1.498 20.94 20.94 0 0 1-7.184-4.9 21.997 21.997 0 0 1-2.344-2.902.711.711 0 0 0-1.016-.174.766.766 0 0 0-.299.488.79.79 0 0 0 .116.565 23.543 23.543 0 0 0 2.514 3.1 22.418 22.418 0 0 0 7.287 5.074 21.713 21.713 0 0 0 9.446 1.768c.263-.01.52-.077.758-.195.237-.118.45-.284.623-.49.173-.206.304-.446.385-.706.081-.26.11-.535.086-.807l-.116-1.262ZM31.863 43.67c2.346 0 4.64-.724 6.59-2.079a12.243 12.243 0 0 0 4.37-5.535 12.788 12.788 0 0 0 .675-7.126 12.492 12.492 0 0 0-3.247-6.314 11.731 11.731 0 0 0-6.075-3.375 11.444 11.444 0 0 0-6.854.702A11.975 11.975 0 0 0 22 24.486a12.683 12.683 0 0 0-2 6.852c.004 3.27 1.255 6.404 3.479 8.716 2.224 2.312 5.239 3.612 8.384 3.616Zm0-23.143c2.056 0 4.066.634 5.776 1.822a10.73 10.73 0 0 1 3.83 4.85c.787 1.976.993 4.15.592 6.246a10.948 10.948 0 0 1-2.846 5.535 10.28 10.28 0 0 1-5.323 2.958 10.03 10.03 0 0 1-6.007-.614 10.496 10.496 0 0 1-4.667-3.98 11.115 11.115 0 0 1-1.753-6.006c.003-2.866 1.1-5.614 3.049-7.64 1.949-2.027 4.592-3.167 7.349-3.17Z" fill="#000"/><path d="M31.863 39.912a8.027 8.027 0 0 0 4.583-1.445 8.513 8.513 0 0 0 3.038-3.849 8.89 8.89 0 0 0 .469-4.955 8.685 8.685 0 0 0-2.258-4.39 8.157 8.157 0 0 0-4.224-2.347 7.957 7.957 0 0 0-4.766.489 8.327 8.327 0 0 0-3.701 3.159 8.82 8.82 0 0 0-1.39 4.764c.003 2.273.873 4.453 2.42 6.06 1.546 1.607 3.642 2.512 5.829 2.514Zm0-15.627c1.341 0 2.653.413 3.768 1.188a7 7 0 0 1 2.499 3.165 7.311 7.311 0 0 1 .386 4.075 7.142 7.142 0 0 1-1.857 3.61 6.707 6.707 0 0 1-3.473 1.93 6.544 6.544 0 0 1-3.919-.401 6.847 6.847 0 0 1-3.044-2.597 7.252 7.252 0 0 1-1.143-3.918 7.205 7.205 0 0 1 1.989-4.984 6.664 6.664 0 0 1 4.794-2.068Z" fill="#000"/><path d="M28.883 35.552c.854.48 1.443.63 2.185.677v.469a.79.79 0 0 0 .204.56.734.734 0 0 0 .529.234.71.71 0 0 0 .53-.235.766.766 0 0 0 .202-.56v-.523c1.563-.292 2.514-1.474 2.67-2.64.183-1.354-.65-2.522-2.129-2.969-.932-.283-1.967-.626-2.564-1.026a.611.611 0 0 1-.223-.284.638.638 0 0 1-.027-.365c.054-.341.324-.76.911-.913.22-.056.446-.09.672-.098h.012a2.49 2.49 0 0 1 1.502.406.712.712 0 0 0 1.026-.152.785.785 0 0 0-.146-1.067 3.776 3.776 0 0 0-1.707-.667v-.407a.776.776 0 0 0-.226-.518.719.719 0 0 0-.507-.212c-.19 0-.37.076-.508.212a.776.776 0 0 0-.225.518v.454c-.08.018-.162.035-.246.055-1.055.271-1.843 1.113-2.008 2.141a2.21 2.21 0 0 0 .132 1.232c.16.388.427.717.768.947.61.406 1.464.76 2.95 1.21.77.233 1.172.705 1.089 1.295-.121.9-1.098 1.392-1.954 1.396-.989.007-1.38-.031-2.214-.501a.712.712 0 0 0-.81.08.755.755 0 0 0-.266.513.79.79 0 0 0 .161.558.753.753 0 0 0 .22.19l-.003-.01Zm40.316 13.106a.768.768 0 0 0-.25-.452.716.716 0 0 0-.472-.178H50.292a.716.716 0 0 0-.47.178.768.768 0 0 0-.251.452 57.738 57.738 0 0 0 0 19.168.77.77 0 0 0 .25.452.717.717 0 0 0 .471.18h18.185a.72.72 0 0 0 .472-.18.77.77 0 0 0 .25-.452 57.738 57.738 0 0 0 0-19.168Zm-7.609.892v7.312l-1.814-1.189a.716.716 0 0 0-.782 0l-1.814 1.19V49.55h4.41Zm6.267 17.388H50.913a56.137 56.137 0 0 1 0-17.384h4.802v8.692c0 .136.035.27.102.387a.748.748 0 0 0 .277.28.71.71 0 0 0 .745-.022l2.546-1.67 2.546 1.67a.72.72 0 0 0 .909-.106.778.778 0 0 0 .215-.539v-8.692h4.803a56.143 56.143 0 0 1 0 17.384Z" fill="#000"/></svg>