<svg width="76" height="66" viewBox="0 0 76 66" fill="none" xmlns="http://www.w3.org/2000/svg"><path d="M38 25.747c2.554 0 5.051-.755 7.175-2.17A12.881 12.881 0 0 0 49.93 17.8a12.836 12.836 0 0 0 .735-7.438 12.861 12.861 0 0 0-3.534-6.591A12.926 12.926 0 0 0 40.519.247a12.952 12.952 0 0 0-7.461.733 12.906 12.906 0 0 0-5.796 4.741 12.845 12.845 0 0 0-2.176 7.153 12.867 12.867 0 0 0 3.786 9.099A12.948 12.948 0 0 0 38 25.747ZM38 4.44a8.48 8.48 0 0 1 4.7 1.422 8.44 8.44 0 0 1 3.117 3.785 8.41 8.41 0 0 1-1.834 9.192 8.486 8.486 0 0 1-9.22 1.828 8.455 8.455 0 0 1-3.798-3.106 8.415 8.415 0 0 1-1.426-4.686 8.43 8.43 0 0 1 2.481-5.962A8.484 8.484 0 0 1 38 4.44Z" fill="url(#a)"/><path d="M64.125 25.747a8.183 8.183 0 0 0 4.536-1.371 8.144 8.144 0 0 0 3.007-3.653 8.115 8.115 0 0 0-1.77-8.869A8.188 8.188 0 0 0 61 10.09a8.159 8.159 0 0 0-3.664 2.997 8.121 8.121 0 0 0-1.376 4.522 8.134 8.134 0 0 0 2.393 5.752 8.185 8.185 0 0 0 5.771 2.386Zm0-11.838a3.72 3.72 0 0 1 2.062.624 3.69 3.69 0 0 1 .562 5.692 3.715 3.715 0 0 1-4.044.802 3.708 3.708 0 0 1-1.666-1.363 3.691 3.691 0 0 1 .463-4.67 3.72 3.72 0 0 1 2.623-1.085Z" fill="url(#b)"/><path d="M65.92 30.778h-3.442a10.12 10.12 0 0 0-5.431 1.58 10.072 10.072 0 0 0-3.726 4.245 17.922 17.922 0 0 0-6.007-4.305 17.97 17.97 0 0 0-7.24-1.52h-4.156a17.97 17.97 0 0 0-7.24 1.52 17.922 17.922 0 0 0-6.007 4.305 10.073 10.073 0 0 0-3.722-4.243 10.117 10.117 0 0 0-5.427-1.582H10.08a10.077 10.077 0 0 0-7.112 2.916A10.013 10.013 0 0 0 0 40.766v16.158a4.329 4.329 0 0 0 1.28 3.074 4.357 4.357 0 0 0 3.086 1.267h13.615a5.185 5.185 0 0 0 1.667 3.37A5.216 5.216 0 0 0 23.16 66h29.688a5.216 5.216 0 0 0 3.512-1.365 5.185 5.185 0 0 0 1.667-3.37h13.459a4.526 4.526 0 0 0 3.188-1.317A4.497 4.497 0 0 0 76 56.772V40.766a10.013 10.013 0 0 0-2.968-7.072 10.077 10.077 0 0 0-7.112-2.916ZM4.453 40.766a5.575 5.575 0 0 1 1.662-3.935 5.61 5.61 0 0 1 3.965-1.613h3.442a5.61 5.61 0 0 1 3.964 1.613 5.575 5.575 0 0 1 1.662 3.935v1.519c-1.498 3.887-1.187 6.215-1.187 14.537H4.453V40.766Zm49.133 20.047a.743.743 0 0 1-.742.744H23.156a.747.747 0 0 1-.746-.744V48.687a13.462 13.462 0 0 1 3.962-9.52 13.547 13.547 0 0 1 9.55-3.95h4.156a13.55 13.55 0 0 1 9.55 3.95 13.464 13.464 0 0 1 3.962 9.52l-.004 12.126Zm17.96-4.04c0 .074.832.049-13.507.049 0-8.384.307-10.654-1.187-14.537v-1.52a5.575 5.575 0 0 1 1.662-3.934 5.61 5.61 0 0 1 3.964-1.613h3.442a5.61 5.61 0 0 1 3.965 1.613 5.574 5.574 0 0 1 1.662 3.935v16.006Z" fill="url(#c)"/><path d="M11.875 25.747a8.183 8.183 0 0 0 4.536-1.371 8.144 8.144 0 0 0 3.007-3.653 8.115 8.115 0 0 0-1.77-8.869A8.188 8.188 0 0 0 8.75 10.09a8.158 8.158 0 0 0-3.664 2.997A8.12 8.12 0 0 0 3.71 17.61a8.134 8.134 0 0 0 2.393 5.752 8.185 8.185 0 0 0 5.771 2.386Zm0-11.838a3.72 3.72 0 0 1 2.062.624 3.69 3.69 0 0 1 .562 5.692 3.715 3.715 0 0 1-4.044.802 3.709 3.709 0 0 1-1.666-1.363 3.691 3.691 0 0 1 .463-4.67 3.72 3.72 0 0 1 2.623-1.085Z" fill="url(#d)"/><defs><linearGradient id="a" x1="17.704" y1="11.5" x2="77.686" y2="55.782" gradientUnits="userSpaceOnUse"><stop stop-color="#1C468A"/><stop offset="1" stop-color="#5E89D0"/></linearGradient><linearGradient id="b" x1="17.704" y1="11.5" x2="77.686" y2="55.782" gradientUnits="userSpaceOnUse"><stop stop-color="#1C468A"/><stop offset="1" stop-color="#5E89D0"/></linearGradient><linearGradient id="c" x1="17.704" y1="11.5" x2="77.686" y2="55.782" gradientUnits="userSpaceOnUse"><stop stop-color="#1C468A"/><stop offset="1" stop-color="#5E89D0"/></linearGradient><linearGradient id="d" x1="17.704" y1="11.5" x2="77.686" y2="55.782" gradientUnits="userSpaceOnUse"><stop stop-color="#1C468A"/><stop offset="1" stop-color="#5E89D0"/></linearGradient></defs></svg>