<svg width="88" height="66" viewBox="0 0 88 66" fill="none" xmlns="http://www.w3.org/2000/svg"><path d="M85.67 52.141 65.982 32.3a23.178 23.178 0 0 0 1.05-15.642 23.01 23.01 0 0 0-9.136-12.69A22.717 22.717 0 0 0 42.812.112a22.779 22.779 0 0 0-14.034 6.773 23.094 23.094 0 0 0-6.474 14.257 23.145 23.145 0 0 0 4.09 15.126 22.848 22.848 0 0 0 12.756 8.98 22.691 22.691 0 0 0 15.505-1.335l19.587 19.738A8.05 8.05 0 0 0 79.945 66a8.051 8.051 0 0 0 5.688-2.385A8.172 8.172 0 0 0 88 57.885a8.173 8.173 0 0 0-2.33-5.746v.002ZM32.553 35.604a17.883 17.883 0 0 1-4.848-9.135 17.966 17.966 0 0 1 1.007-10.31 17.814 17.814 0 0 1 6.522-8.008 17.616 17.616 0 0 1 9.84-3.007c3.502 0 6.926 1.047 9.839 3.007a17.813 17.813 0 0 1 6.522 8.009 17.966 17.966 0 0 1 1.007 10.309 17.883 17.883 0 0 1-4.848 9.135 17.67 17.67 0 0 1-12.52 5.212 17.67 17.67 0 0 1-12.52-5.212ZM82.025 59.98a2.908 2.908 0 0 1-4.126 0L59.184 41.122a23.142 23.142 0 0 0 4.087-4.204l18.746 18.89c.545.553.85 1.3.85 2.08a2.96 2.96 0 0 1-.85 2.078l.007.014Z" fill="url(#a)"/><path d="M2.579 31.08h11.004a2.57 2.57 0 0 0 1.824-.761 2.608 2.608 0 0 0 0-3.675 2.57 2.57 0 0 0-1.824-.761H2.579a2.57 2.57 0 0 0-1.824.761 2.608 2.608 0 0 0 0 3.675 2.57 2.57 0 0 0 1.824.76Z" fill="url(#b)"/><path d="M2.579 42.166h15.13a2.57 2.57 0 0 0 1.824-.761 2.608 2.608 0 0 0 0-3.675 2.57 2.57 0 0 0-1.824-.76H2.58a2.57 2.57 0 0 0-1.824.76 2.608 2.608 0 0 0 0 3.675 2.57 2.57 0 0 0 1.824.76Z" fill="url(#c)"/><path d="M2.579 53.252h26.12c.684 0 1.34-.274 1.824-.761a2.608 2.608 0 0 0 0-3.675 2.57 2.57 0 0 0-1.823-.76H2.579a2.57 2.57 0 0 0-1.824.76 2.608 2.608 0 0 0 0 3.675 2.57 2.57 0 0 0 1.824.761Z" fill="url(#d)"/><path d="M58.944 59.142H2.58a2.572 2.572 0 0 0-1.775.788 2.61 2.61 0 0 0 0 3.622 2.572 2.572 0 0 0 1.775.789h56.365a2.572 2.572 0 0 0 1.775-.789 2.611 2.611 0 0 0 0-3.622 2.572 2.572 0 0 0-1.775-.788Z" fill="url(#e)"/><defs><linearGradient id="a" x1="20.5" y1="11.5" x2="82.5" y2="64.5" gradientUnits="userSpaceOnUse"><stop stop-color="#E63A28"/><stop offset="1" stop-color="#E4766A"/></linearGradient><linearGradient id="b" x1="20.5" y1="11.5" x2="82.5" y2="64.5" gradientUnits="userSpaceOnUse"><stop stop-color="#E63A28"/><stop offset="1" stop-color="#E4766A"/></linearGradient><linearGradient id="c" x1="20.5" y1="11.5" x2="82.5" y2="64.5" gradientUnits="userSpaceOnUse"><stop stop-color="#E63A28"/><stop offset="1" stop-color="#E4766A"/></linearGradient><linearGradient id="d" x1="20.5" y1="11.5" x2="82.5" y2="64.5" gradientUnits="userSpaceOnUse"><stop stop-color="#E63A28"/><stop offset="1" stop-color="#E4766A"/></linearGradient><linearGradient id="e" x1="20.5" y1="11.5" x2="82.5" y2="64.5" gradientUnits="userSpaceOnUse"><stop stop-color="#E63A28"/><stop offset="1" stop-color="#E4766A"/></linearGradient></defs></svg>