<svg width="64" height="66" viewBox="0 0 64 66" fill="none" xmlns="http://www.w3.org/2000/svg"><path d="M19.563 34.16H9.717c-.516 0-1.01.204-1.374.567a1.929 1.929 0 0 0 0 2.734c.364.363.858.566 1.374.566h9.846c.516 0 1.01-.203 1.374-.566a1.928 1.928 0 0 0 0-2.734 1.948 1.948 0 0 0-1.374-.567Z" fill="url(#a)"/><path d="M19.563 25.91H9.717c-.516 0-1.01.204-1.374.567a1.929 1.929 0 0 0 0 2.734c.364.363.858.566 1.374.566h9.846c.516 0 1.01-.203 1.374-.566a1.928 1.928 0 0 0 0-2.734 1.948 1.948 0 0 0-1.374-.567Z" fill="url(#b)"/><path d="M38.738 17.66H9.717c-.516 0-1.01.204-1.374.567a1.929 1.929 0 0 0 0 2.734c.364.363.858.566 1.374.566h29.02c.516 0 1.01-.203 1.375-.566a1.928 1.928 0 0 0 0-2.734 1.948 1.948 0 0 0-1.374-.567Z" fill="url(#c)"/><path d="M38.738 10.441H9.717c-.516 0-1.01.204-1.374.567a1.929 1.929 0 0 0 0 2.734c.364.363.858.567 1.374.567h29.02a1.95 1.95 0 0 0 1.375-.567 1.929 1.929 0 0 0 0-2.734 1.948 1.948 0 0 0-1.374-.567Z" fill="url(#d)"/><path d="M59.744 31.066h-11.29V8.161a8.149 8.149 0 0 0-2.405-5.77A8.232 8.232 0 0 0 40.249 0H8.202a8.232 8.232 0 0 0-5.797 2.393A8.148 8.148 0 0 0 0 8.16v44.433a13.39 13.39 0 0 0 3.951 9.474A13.526 13.526 0 0 0 13.474 66h40.81a9.752 9.752 0 0 0 6.867-2.835A9.654 9.654 0 0 0 64 56.332V35.305a4.23 4.23 0 0 0-1.248-2.996 4.274 4.274 0 0 0-3.01-1.243h.002Zm-46.27 31.067a9.624 9.624 0 0 1-6.776-2.798 9.527 9.527 0 0 1-2.811-6.741V8.16c0-1.14.455-2.233 1.265-3.039a4.33 4.33 0 0 1 3.053-1.258H40.25a4.33 4.33 0 0 1 3.054 1.258 4.286 4.286 0 0 1 1.265 3.039v48.171a9.593 9.593 0 0 0 1.949 5.8H13.474Zm46.641-5.801a5.786 5.786 0 0 1-1.708 4.102 5.845 5.845 0 0 1-4.122 1.699 5.845 5.845 0 0 1-4.123-1.7 5.786 5.786 0 0 1-1.707-4.101V34.934h11.289a.373.373 0 0 1 .371.37v21.028Z" fill="url(#e)"/><path d="M35.516 39.151c-.326-.115-.66-.233-.991-.355v-5.983c1.17.452 1.25 1.03 2.282 1.03a1.952 1.952 0 0 0 1.79-1.199 1.925 1.925 0 0 0-.426-2.105c.038-.042-1.49-1.301-3.646-1.735v-1.03c0-.514-.205-1.005-.57-1.368a1.948 1.948 0 0 0-2.748 0c-.364.363-.57.855-.57 1.367v1.164c-5.266 1.375-6.368 8.047-2.87 10.776a14.04 14.04 0 0 0 2.87 1.675v7.978c-.842-.122-1.481-.414-2.495-1.074a1.952 1.952 0 0 0-2.69.56 1.926 1.926 0 0 0 .561 2.676c1.75 1.14 3.025 1.578 4.625 1.719v1.158c0 .513.205 1.005.57 1.368a1.948 1.948 0 0 0 2.747 0 1.93 1.93 0 0 0 .57-1.368v-1.33c6.795-1.719 8.13-11.413.991-13.922v-.002Zm-4.878-2.145a5.57 5.57 0 0 1-.474-.333c-.827-.646-.704-2.578.474-3.525v3.858Zm3.887 11.927v-6.016c2.836 1.226 2.157 4.744 0 6.016Z" fill="url(#f)"/><defs><linearGradient id="a" x1="14.909" y1="11.5" x2="71.195" y2="46.493" gradientUnits="userSpaceOnUse"><stop stop-color="#289328"/><stop offset="1" stop-color="#66D05E"/></linearGradient><linearGradient id="b" x1="14.909" y1="11.5" x2="71.195" y2="46.493" gradientUnits="userSpaceOnUse"><stop stop-color="#289328"/><stop offset="1" stop-color="#66D05E"/></linearGradient><linearGradient id="c" x1="14.909" y1="11.5" x2="71.195" y2="46.493" gradientUnits="userSpaceOnUse"><stop stop-color="#289328"/><stop offset="1" stop-color="#66D05E"/></linearGradient><linearGradient id="d" x1="14.909" y1="11.5" x2="71.195" y2="46.493" gradientUnits="userSpaceOnUse"><stop stop-color="#289328"/><stop offset="1" stop-color="#66D05E"/></linearGradient><linearGradient id="e" x1="14.909" y1="11.5" x2="71.195" y2="46.493" gradientUnits="userSpaceOnUse"><stop stop-color="#289328"/><stop offset="1" stop-color="#66D05E"/></linearGradient><linearGradient id="f" x1="14.909" y1="11.5" x2="71.195" y2="46.493" gradientUnits="userSpaceOnUse"><stop stop-color="#289328"/><stop offset="1" stop-color="#66D05E"/></linearGradient></defs></svg>