<svg width="154" height="46" viewBox="0 0 154 46" fill="none" xmlns="http://www.w3.org/2000/svg"><path d="M148.296 46H5.704C2.51 46 0 43.47 0 40.25V5.75C0 2.53 2.51 0 5.704 0h142.592C151.49 0 154 2.53 154 5.75v34.5c0 3.105-2.51 5.75-5.704 5.75Z" fill="#000"/><path d="M148.296.92c2.624 0 4.791 2.185 4.791 4.83v34.5c0 2.645-2.167 4.83-4.791 4.83H5.704c-2.624 0-4.791-2.185-4.791-4.83V5.75C.913 3.105 3.08.92 5.703.92h142.593Zm0-.92H5.704C2.51 0 0 2.53 0 5.75v34.5C0 43.47 2.51 46 5.704 46h142.592c3.194 0 5.704-2.53 5.704-5.75V5.75c0-3.105-2.51-5.75-5.704-5.75Z" fill="#A6A6A6"/><path d="M54.071 11.73c0 .92-.228 1.725-.798 2.3-.685.69-1.484 1.035-2.51 1.035-1.027 0-1.825-.345-2.51-1.035-.684-.69-1.026-1.495-1.026-2.53 0-1.035.342-1.84 1.026-2.53.685-.69 1.483-1.035 2.51-1.035.456 0 .913.115 1.369.345.456.23.798.46 1.026.805l-.57.575c-.456-.575-1.027-.805-1.825-.805-.685 0-1.369.23-1.825.805-.57.46-.799 1.15-.799 1.955 0 .805.228 1.495.799 1.955.57.46 1.14.805 1.825.805.798 0 1.369-.23 1.94-.805.341-.345.57-.805.57-1.38h-2.51v-.805h3.308v.345Zm5.248-2.875h-3.08v2.185h2.851v.805h-2.852v2.185h3.08v.92h-3.992v-6.9h3.992v.805Zm3.764 6.095h-.913V8.855h-1.939V8.05h4.791v.805h-1.94v6.095Zm5.247 0v-6.9h.913v6.9h-.913Zm4.791 0h-.912V8.855h-1.94V8.05h4.678v.805h-1.94v6.095h.114Zm10.837-.92c-.684.69-1.483 1.035-2.51 1.035-1.026 0-1.824-.345-2.509-1.035-.684-.69-1.027-1.495-1.027-2.53 0-1.035.343-1.84 1.027-2.53.685-.69 1.483-1.035 2.51-1.035 1.026 0 1.825.345 2.51 1.035.684.69 1.026 1.495 1.026 2.53 0 1.035-.342 1.84-1.027 2.53Zm-4.334-.575c.456.46 1.14.805 1.825.805.684 0 1.369-.23 1.825-.805.456-.46.798-1.15.798-1.955 0-.805-.228-1.495-.798-1.955-.456-.46-1.14-.805-1.825-.805s-1.37.23-1.825.805a2.786 2.786 0 0 0-.799 1.955c0 .805.228 1.495.799 1.955Zm6.616 1.495v-6.9h1.027l3.308 5.405V8.05h.912v6.9h-.912l-3.537-5.635v5.635h-.798Z" fill="#fff" stroke="#fff" stroke-width=".2" stroke-miterlimit="10"/><path d="M77.684 25.07c-2.737 0-4.905 2.07-4.905 4.945 0 2.76 2.168 4.945 4.906 4.945 2.737 0 4.905-2.07 4.905-4.945 0-2.99-2.168-4.945-4.906-4.945Zm0 7.82c-1.483 0-2.737-1.265-2.737-2.99 0-1.725 1.254-2.99 2.737-2.99 1.484 0 2.738 1.15 2.738 2.99 0 1.725-1.254 2.99-2.737 2.99Zm-10.608-7.82c-2.738 0-4.906 2.07-4.906 4.945 0 2.76 2.168 4.945 4.906 4.945 2.737 0 4.905-2.07 4.905-4.945 0-2.99-2.168-4.945-4.905-4.945Zm0 7.82c-1.483 0-2.738-1.265-2.738-2.99 0-1.725 1.255-2.99 2.738-2.99s2.737 1.15 2.737 2.99c0 1.725-1.254 2.99-2.737 2.99Zm-12.663-6.325v2.07h4.906c-.114 1.15-.57 2.07-1.141 2.645-.685.69-1.825 1.495-3.765 1.495-3.08 0-5.361-2.415-5.361-5.52 0-3.105 2.395-5.52 5.361-5.52 1.597 0 2.852.69 3.765 1.495l1.483-1.495c-1.255-1.15-2.852-2.07-5.133-2.07-4.107 0-7.643 3.45-7.643 7.59s3.536 7.59 7.643 7.59c2.281 0 3.878-.69 5.247-2.185 1.369-1.38 1.825-3.335 1.825-4.83 0-.46 0-.92-.114-1.265h-7.073Zm51.79 1.61c-.456-1.15-1.597-3.105-4.107-3.105-2.51 0-4.563 1.955-4.563 4.945 0 2.76 2.054 4.945 4.792 4.945 2.167 0 3.536-1.38 3.992-2.185l-1.597-1.15c-.57.805-1.255 1.38-2.395 1.38-1.141 0-1.826-.46-2.396-1.495l6.502-2.76-.228-.575Zm-6.616 1.61c0-1.84 1.483-2.875 2.509-2.875.799 0 1.597.46 1.826 1.035l-4.335 1.84ZM94.225 34.5h2.168V20.125h-2.168V34.5Zm-3.422-8.395c-.57-.575-1.483-1.15-2.624-1.15-2.395 0-4.677 2.185-4.677 4.945 0 2.76 2.168 4.83 4.677 4.83 1.141 0 2.054-.575 2.51-1.15h.114v.69c0 1.84-1.027 2.875-2.624 2.875-1.255 0-2.167-.92-2.395-1.725l-1.825.805c.57 1.265 1.939 2.875 4.334 2.875 2.51 0 4.563-1.495 4.563-5.06V25.3h-2.053v.805Zm-2.51 6.785c-1.483 0-2.737-1.265-2.737-2.99 0-1.725 1.254-2.99 2.737-2.99s2.624 1.265 2.624 2.99c0 1.725-1.14 2.99-2.624 2.99Zm27.834-12.765h-5.133V34.5h2.168v-5.405h2.965c2.396 0 4.678-1.725 4.678-4.485 0-2.76-2.282-4.485-4.678-4.485Zm.115 6.9h-3.08V22.08h3.08c1.597 0 2.509 1.38 2.509 2.415-.114 1.265-1.026 2.53-2.509 2.53Zm13.118-2.07c-1.597 0-3.194.69-3.764 2.185l1.939.805c.456-.805 1.141-1.035 1.939-1.035 1.141 0 2.168.69 2.282 1.84v.115c-.343-.23-1.255-.575-2.168-.575-2.053 0-4.106 1.15-4.106 3.22 0 1.955 1.711 3.22 3.536 3.22 1.483 0 2.167-.69 2.738-1.38h.114v1.15h2.053v-5.52c-.228-2.53-2.167-4.025-4.563-4.025Zm-.228 7.935c-.685 0-1.711-.345-1.711-1.265 0-1.15 1.255-1.495 2.281-1.495.913 0 1.369.23 1.94.46-.229 1.38-1.369 2.3-2.51 2.3Zm11.978-7.59-2.396 6.21h-.114l-2.51-6.21h-2.281l3.764 8.74-2.167 4.83h2.167l5.818-13.57h-2.281Zm-19.165 9.2h2.168V20.125h-2.168V34.5Z" fill="#fff"/><path d="M11.864 8.625c-.343.345-.57.92-.57 1.61V35.65c0 .69.227 1.265.57 1.61l.114.115 14.145-14.26v-.23l-14.26-14.26Z" fill="url(#a)"/><path d="m30.8 27.945-4.677-4.715v-.345L30.8 18.17l.114.115 5.59 3.22c1.596.92 1.596 2.415 0 3.335L30.8 27.945Z" fill="url(#b)"/><path d="M30.914 27.83 26.123 23l-14.26 14.375c.57.575 1.37.575 2.396.115l16.655-9.66Z" fill="url(#c)"/><path d="M30.914 18.17 14.259 8.625c-1.027-.575-1.825-.46-2.396.115L26.123 23l4.79-4.83Z" fill="url(#d)"/><path opacity=".2" d="m30.8 27.715-16.54 9.43c-.913.575-1.712.46-2.282 0l-.114.115.114.115c.57.46 1.369.575 2.281 0l16.54-9.66Z" fill="#000"/><path opacity=".12" d="M11.864 37.144c-.343-.345-.457-.92-.457-1.61v.115c0 .69.229 1.265.57 1.61v-.115h-.113Zm24.64-12.649-5.704 3.22.114.115 5.59-3.22c.798-.46 1.14-1.035 1.14-1.61 0 .575-.456 1.035-1.14 1.495Z" fill="#000"/><path opacity=".25" d="m14.26 8.74 22.244 12.765c.684.46 1.14.92 1.14 1.495 0-.575-.342-1.15-1.14-1.61L14.259 8.625c-1.597-.92-2.852-.115-2.852 1.725v.115c0-1.84 1.255-2.645 2.852-1.725Z" fill="#fff"/><defs><linearGradient id="a" x1="24.868" y1="10.016" x2="5.569" y2="29.16" gradientUnits="userSpaceOnUse"><stop stop-color="#00A0FF"/><stop offset=".007" stop-color="#00A1FF"/><stop offset=".26" stop-color="#00BEFF"/><stop offset=".512" stop-color="#00D2FF"/><stop offset=".76" stop-color="#00DFFF"/><stop offset="1" stop-color="#00E3FF"/></linearGradient><linearGradient id="b" x1="38.596" y1="23.002" x2="10.993" y2="23.002" gradientUnits="userSpaceOnUse"><stop stop-color="#FFE000"/><stop offset=".409" stop-color="#FFBD00"/><stop offset=".775" stop-color="orange"/><stop offset="1" stop-color="#FF9C00"/></linearGradient><linearGradient id="c" x1="28.321" y1="25.64" x2="2.15" y2="51.601" gradientUnits="userSpaceOnUse"><stop stop-color="#FF3A44"/><stop offset="1" stop-color="#C31162"/></linearGradient><linearGradient id="d" x1="8.324" y1=".202" x2="20.011" y2="11.795" gradientUnits="userSpaceOnUse"><stop stop-color="#32A071"/><stop offset=".069" stop-color="#2DA771"/><stop offset=".476" stop-color="#15CF74"/><stop offset=".801" stop-color="#06E775"/><stop offset="1" stop-color="#00F076"/></linearGradient></defs></svg>