<svg width="44" height="44" viewBox="0 0 44 44" fill="none" xmlns="http://www.w3.org/2000/svg"><rect x=".5" y=".5" width="43" height="43" rx="5.5" fill="#000" stroke="#B9B9B9"/><path d="M30.022 22.646c-.043-3.709 3.037-5.542 3.208-5.627-1.754-2.558-4.448-2.9-5.39-2.9-2.267-.255-4.49 1.365-5.646 1.365-1.198 0-2.951-1.321-4.876-1.279-2.481.043-4.791 1.45-6.074 3.667-2.61 4.519-.685 11.17 1.84 14.836 1.24 1.79 2.737 3.794 4.662 3.709 1.882-.085 2.566-1.194 4.833-1.194 2.267 0 2.909 1.194 4.876 1.151 2.01-.042 3.294-1.79 4.492-3.623C33.4 30.704 34 28.658 34 28.573c-.086 0-3.978-1.45-3.978-5.927ZM26.3 11.732c1.027-1.279 1.711-2.984 1.497-4.732-1.454.085-3.293 1.023-4.363 2.26-.94 1.065-1.753 2.856-1.54 4.519 1.669.127 3.337-.81 4.406-2.047Z" fill="#fff"/></svg>