<svg width="154" height="46" viewBox="0 0 154 46" fill="none" xmlns="http://www.w3.org/2000/svg"><path d="M148.515 46H5.401C2.447 46 0 43.534 0 40.558V5.442C0 2.466 2.405 0 5.4 0h143.115C151.468 0 154 2.423 154 5.442v35.116c0 2.976-2.489 5.442-5.485 5.442Z" fill="#A6A6A6"/><path d="M152.903 40.558c0 2.423-1.941 4.422-4.388 4.422H5.401c-2.405 0-4.388-1.956-4.388-4.422V5.442c0-2.424 1.983-4.422 4.388-4.422h143.114c2.405 0 4.388 1.998 4.388 4.422v35.116Z" fill="#000"/><path d="M34.386 22.745c-.042-3.698 2.996-5.527 3.165-5.612-1.73-2.55-4.388-2.89-5.317-2.89-2.236-.256-4.43 1.36-5.569 1.36-1.181 0-2.911-1.318-4.81-1.276-2.447.043-4.725 1.446-5.991 3.657-2.574 4.506-.675 11.138 1.814 14.794 1.224 1.786 2.7 3.784 4.6 3.7 1.856-.086 2.53-1.191 4.767-1.191 2.236 0 2.869 1.19 4.81 1.148 1.983-.043 3.248-1.786 4.43-3.614 1.434-2.04 2.025-4.081 2.025-4.166-.084 0-3.924-1.446-3.924-5.91Zm-3.671-10.884c1.013-1.275 1.688-2.976 1.477-4.719-1.434.085-3.249 1.02-4.303 2.253-.929 1.063-1.73 2.849-1.52 4.507 1.646.127 3.292-.808 4.346-2.04Zm30.463 24.361h-2.574l-1.434-4.507h-4.937l-1.35 4.507h-2.531l4.894-15.305h3.038l4.894 15.305Zm-4.43-6.377-1.266-3.997c-.126-.425-.38-1.36-.76-2.89h-.041c-.17.637-.38 1.615-.718 2.89l-1.265 3.997h4.05Zm17.003.722c0 1.87-.506 3.359-1.519 4.464-.886.978-2.025 1.446-3.375 1.446-1.434 0-2.49-.51-3.122-1.573h-.042v5.824h-2.447V28.824c0-1.19-.043-2.38-.085-3.614h2.152l.126 1.743h.043c.801-1.317 2.025-1.955 3.713-1.955 1.308 0 2.362.51 3.248 1.53.886 1.02 1.308 2.381 1.308 4.04Zm-2.447.085c0-1.063-.253-1.956-.717-2.636-.506-.722-1.224-1.105-2.11-1.105-.59 0-1.139.212-1.645.595s-.802.935-.97 1.573a2.878 2.878 0 0 0-.127.765v1.828c0 .808.253 1.488.717 2.041.506.553 1.14.808 1.899.808.928 0 1.645-.34 2.151-1.063.507-.68.802-1.615.802-2.806Zm15.063-.085c0 1.87-.507 3.359-1.52 4.464-.885.978-2.025 1.446-3.375 1.446-1.434 0-2.49-.51-3.122-1.573h-.042v5.824H75.86V28.824c0-1.19-.042-2.38-.085-3.614h2.152l.127 1.743h.042c.802-1.317 2.025-1.955 3.713-1.955 1.308 0 2.362.51 3.249 1.53.843 1.02 1.308 2.381 1.308 4.04Zm-2.49.085c0-1.063-.253-1.956-.717-2.636-.506-.722-1.224-1.105-2.11-1.105-.59 0-1.139.212-1.645.595s-.802.935-.97 1.573a2.881 2.881 0 0 0-.127.765v1.828c0 .808.253 1.488.717 2.041.506.553 1.14.808 1.899.808.928 0 1.645-.34 2.151-1.063.549-.68.802-1.615.802-2.806Zm16.54 1.276c0 1.318-.465 2.381-1.35 3.189-.971.893-2.363 1.318-4.135 1.318-1.646 0-2.954-.298-3.924-.936l.548-2.04a6.692 6.692 0 0 0 3.502.978c.928 0 1.646-.213 2.152-.638.506-.425.76-.978.76-1.658 0-.638-.212-1.148-.633-1.573-.422-.425-1.097-.808-2.11-1.19-2.658-.978-3.966-2.466-3.966-4.38 0-1.275.464-2.295 1.392-3.103.928-.808 2.152-1.19 3.713-1.19 1.392 0 2.532.255 3.46.722l-.59 1.998c-.845-.467-1.815-.722-2.912-.722-.844 0-1.519.212-1.983.637-.422.383-.59.85-.59 1.403 0 .596.21 1.106.716 1.488.422.383 1.14.766 2.195 1.19 1.307.51 2.278 1.149 2.868 1.871.591.68.887 1.573.887 2.636Zm8.058-4.888h-2.7v5.356c0 1.36.464 2.04 1.434 2.04.422 0 .802-.042 1.097-.127l.085 1.87c-.465.17-1.097.256-1.899.256-.97 0-1.73-.298-2.236-.893-.549-.595-.802-1.573-.802-2.976v-5.57h-1.603V25.17h1.603v-2.041l2.405-.723v2.764h2.7v1.87h-.084Zm12.109 3.57c0 1.7-.464 3.104-1.434 4.166-1.013 1.106-2.363 1.701-4.009 1.701-1.603 0-2.869-.553-3.839-1.615-.97-1.063-1.435-2.424-1.435-4.082 0-1.7.507-3.103 1.477-4.209.971-1.105 2.321-1.615 3.966-1.615 1.603 0 2.911.553 3.882 1.615.928 1.063 1.392 2.381 1.392 4.04Zm-2.531.085c0-1.02-.211-1.87-.633-2.636-.507-.893-1.224-1.318-2.194-1.318-.971 0-1.73.425-2.236 1.318-.422.723-.633 1.616-.633 2.679 0 1.02.211 1.87.633 2.636.506.892 1.265 1.317 2.194 1.317.928 0 1.645-.467 2.194-1.36.421-.723.675-1.616.675-2.636Zm10.421-3.358a4.611 4.611 0 0 0-.76-.085c-.843 0-1.519.34-1.983.977-.422.596-.59 1.318-.59 2.169v5.781h-2.447l.042-7.567c0-1.275-.042-2.423-.085-3.486h2.11l.084 2.126h.085c.253-.723.675-1.318 1.223-1.743.549-.383 1.139-.596 1.772-.596.211 0 .422 0 .591.043v2.38h-.042Zm10.886 2.848c0 .425-.043.808-.085 1.105h-7.299c.042 1.106.38 1.913 1.055 2.509.633.51 1.392.765 2.405.765 1.097 0 2.067-.17 2.953-.51l.38 1.7c-1.055.468-2.278.68-3.671.68-1.687 0-3.038-.51-4.008-1.487-.97-1.02-1.434-2.339-1.434-4.04 0-1.657.464-3.06 1.35-4.166.928-1.19 2.236-1.785 3.839-1.785 1.561 0 2.785.595 3.586 1.785.591.893.929 2.084.929 3.444Zm-2.321-.638c0-.722-.126-1.36-.464-1.87-.422-.68-1.055-1.02-1.941-1.02-.801 0-1.434.34-1.941.977-.422.51-.633 1.148-.717 1.913h5.063ZM55.946 11.521c0 1.36-.421 2.381-1.223 3.061-.76.638-1.814.936-3.164.936-.676 0-1.266-.043-1.73-.085V8.035c.633-.085 1.308-.17 2.067-.17 1.308 0 2.278.298 2.953.85.718.68 1.097 1.616 1.097 2.806Zm-1.265.043c0-.893-.211-1.53-.675-1.998-.465-.468-1.14-.723-2.026-.723-.38 0-.717.043-.97.085v5.612c.127.042.422.042.802.042.928 0 1.603-.255 2.11-.765.506-.553.759-1.275.759-2.253Zm7.974 1.147c0 .85-.253 1.531-.718 2.041-.506.553-1.139.808-1.982.808-.802 0-1.435-.255-1.9-.808-.463-.51-.716-1.19-.716-1.998 0-.85.253-1.53.717-2.083.464-.553 1.14-.808 1.94-.808.802 0 1.435.255 1.9.808.506.553.759 1.233.759 2.04Zm-1.266.043c0-.51-.127-.935-.338-1.275-.253-.426-.59-.638-1.054-.638-.464 0-.844.212-1.097.638-.211.34-.338.807-.338 1.318 0 .51.127.935.338 1.275.253.425.633.638 1.097.638.464 0 .801-.213 1.054-.68.254-.34.338-.808.338-1.276ZM71.6 10.033l-1.688 5.4h-1.097l-.717-2.339c-.17-.595-.338-1.19-.422-1.743h-.042c-.085.596-.254 1.19-.422 1.743l-.76 2.339h-1.097l-1.603-5.4h1.223l.591 2.594c.127.595.253 1.19.38 1.743h.042c.085-.468.253-1.02.464-1.743l.76-2.594h.97l.717 2.551c.17.638.338 1.19.422 1.786h.043c.084-.553.21-1.148.38-1.786l.632-2.55H71.6Zm6.202 5.399H76.62V12.33c0-.936-.38-1.446-1.097-1.446-.337 0-.632.128-.843.383a1.407 1.407 0 0 0-.338.935v3.231h-1.181v-3.869c0-.467 0-.977-.043-1.53h1.055l.042.85h.043c.126-.255.337-.467.633-.637.337-.213.674-.298 1.096-.298.507 0 .929.17 1.266.51.422.383.633 1.02.633 1.786v3.188h-.084Zm3.291-7.865H79.91v7.908h1.181V7.567Zm7.046 5.144c0 .85-.254 1.531-.718 2.041-.506.553-1.139.808-1.983.808-.801 0-1.434-.255-1.898-.808-.464-.51-.718-1.19-.718-1.998 0-.85.254-1.53.718-2.083.464-.553 1.139-.808 1.94-.808.802 0 1.435.255 1.9.808.505.553.759 1.233.759 2.04Zm-1.266.043c0-.51-.127-.935-.338-1.275-.253-.426-.59-.638-1.054-.638-.465 0-.844.212-1.097.638-.211.34-.338.807-.338 1.318 0 .51.127.935.338 1.275.253.425.632.638 1.097.638.464 0 .801-.213 1.054-.68.254-.34.338-.808.338-1.276Zm7.046 2.678h-1.055l-.084-.637h-.042c-.38.51-.886.765-1.561.765-.507 0-.929-.17-1.224-.51-.295-.298-.422-.68-.422-1.106 0-.68.253-1.148.844-1.53.548-.34 1.308-.51 2.32-.51v-.085c0-.723-.38-1.063-1.097-1.063-.548 0-1.012.127-1.392.383l-.253-.808c.506-.298 1.097-.468 1.856-.468 1.393 0 2.11.765 2.11 2.253v1.998a4.474 4.474 0 0 0 0 1.318Zm-1.224-1.828v-.85c-1.308-.043-1.983.34-1.983 1.105 0 .298.085.51.211.638a.91.91 0 0 0 .591.213c.253 0 .506-.085.717-.256.211-.17.38-.382.422-.637l.042-.213Zm8.017 1.829h-1.055l-.042-.85h-.042c-.338.68-.929.977-1.73.977-.633 0-1.182-.255-1.604-.765-.422-.51-.633-1.19-.633-1.998 0-.893.211-1.573.718-2.126.464-.51 1.012-.765 1.645-.765.717 0 1.224.255 1.52.723h.041V7.525h1.182v6.462a8.078 8.078 0 0 0 0 1.446Zm-1.224-2.253v-.893c0-.17 0-.298-.042-.383-.084-.297-.211-.553-.422-.723-.211-.212-.506-.297-.802-.297-.464 0-.801.17-1.054.552-.254.34-.38.808-.38 1.36 0 .554.126.979.38 1.319.253.34.59.553 1.054.553.38 0 .718-.128.929-.426.21-.34.337-.68.337-1.063Zm11.434-.469c0 .85-.253 1.531-.717 2.041-.506.553-1.139.808-1.983.808-.802 0-1.435-.255-1.899-.808-.464-.51-.717-1.19-.717-1.998 0-.85.253-1.53.717-2.083.464-.553 1.139-.808 1.941-.808s1.435.255 1.899.808c.548.553.759 1.233.759 2.04Zm-1.223.043c0-.51-.127-.935-.338-1.275-.253-.426-.591-.638-1.055-.638-.464 0-.844.212-1.097.638-.211.34-.337.807-.337 1.318 0 .51.126.935.337 1.275.253.425.633.638 1.097.638.464 0 .802-.213 1.055-.68.211-.34.338-.808.338-1.276Zm7.678 2.678h-1.181V12.33c0-.936-.38-1.446-1.097-1.446a1.06 1.06 0 0 0-.844.383 1.407 1.407 0 0 0-.337.935v3.231h-1.182v-3.869c0-.467 0-.977-.042-1.53h1.055l.042.85h.042c.127-.255.338-.467.633-.637.338-.213.675-.298 1.097-.298.506 0 .928.17 1.266.51.422.383.633 1.02.633 1.786v3.188h-.085Zm8.017-4.506h-1.308v2.636c0 .68.253 1.02.717 1.02.211 0 .38 0 .549-.042l.042.893c-.253.085-.548.127-.928.127-.464 0-.844-.128-1.097-.425-.253-.298-.38-.765-.38-1.446v-2.72h-.844v-.893h.802v-.978l1.181-.34v1.36h1.308l-.042.808Zm6.329 4.506h-1.182v-3.06c0-.979-.379-1.446-1.097-1.446-.548 0-.928.297-1.139.85-.042.128-.042.255-.042.425v3.274h-1.181V7.567h1.181v3.274h.042c.38-.595.928-.893 1.603-.893.507 0 .886.17 1.224.51.422.425.591 1.02.591 1.828v3.146Zm6.539-2.932c0 .212 0 .382-.042.552h-3.586c0 .553.169.935.506 1.233.296.255.675.383 1.182.383.548 0 1.012-.085 1.434-.256l.169.85c-.506.213-1.097.34-1.814.34-.844 0-1.477-.254-1.983-.722-.464-.51-.718-1.148-.718-1.998 0-.808.211-1.488.675-2.04.465-.596 1.097-.851 1.899-.851.76 0 1.35.298 1.772.85.338.383.506.978.506 1.658Zm-1.139-.34c0-.34-.084-.681-.211-.936-.211-.34-.506-.51-.97-.51-.38 0-.717.17-.971.51-.21.255-.295.553-.337.935h2.489Z" fill="#fff"/></svg>