<svg width="44" height="44" viewBox="0 0 44 44" fill="none" xmlns="http://www.w3.org/2000/svg"><rect x=".5" y=".5" width="43" height="43" rx="5.5" fill="#000" stroke="#B9B9B9"/><path d="M10.573 8.457c-.316.315-.527.84-.527 1.47v23.205c0 .63.21 1.155.527 1.47l.105.105 13.057-13.02v-.21L10.573 8.457Z" fill="url(#a)"/><path d="m28.052 26.097-4.317-4.305v-.315l4.317-4.305.105.105 5.16 2.94c1.474.84 1.474 2.205 0 3.045l-5.265 2.835Z" fill="url(#b)"/><path d="m28.157 25.991-4.422-4.41-13.162 13.125c.526.525 1.263.525 2.21.105l15.374-8.82Z" fill="url(#c)"/><path d="M28.157 17.172 12.784 8.457c-.948-.525-1.685-.42-2.212.105l13.163 13.02 4.422-4.41Z" fill="url(#d)"/><path opacity=".2" d="m28.052 25.887-15.268 8.61c-.843.525-1.58.42-2.106 0l-.106.105.106.105c.526.42 1.263.525 2.106 0l15.268-8.82Z" fill="#000"/><path opacity=".12" d="M10.573 34.496c-.316-.315-.421-.84-.421-1.47v.105c0 .63.21 1.155.526 1.47v-.105h-.105Zm22.744-11.55-5.265 2.94.105.105 5.16-2.94c.737-.42 1.053-.945 1.053-1.47 0 .525-.421.945-1.053 1.365Z" fill="#000"/><path opacity=".25" d="m12.784 8.562 20.533 11.655c.632.42 1.053.84 1.053 1.365 0-.525-.316-1.05-1.053-1.47L12.784 8.457c-1.474-.84-2.632-.105-2.632 1.575v.105c0-1.68 1.158-2.415 2.632-1.575Z" fill="#fff"/><defs><linearGradient id="a" x1="22.576" y1="9.727" x2="4.955" y2="27.398" gradientUnits="userSpaceOnUse"><stop stop-color="#00A0FF"/><stop offset=".007" stop-color="#00A1FF"/><stop offset=".26" stop-color="#00BEFF"/><stop offset=".512" stop-color="#00D2FF"/><stop offset=".76" stop-color="#00DFFF"/><stop offset="1" stop-color="#00E3FF"/></linearGradient><linearGradient id="b" x1="35.249" y1="21.583" x2="9.77" y2="21.583" gradientUnits="userSpaceOnUse"><stop stop-color="#FFE000"/><stop offset=".409" stop-color="#FFBD00"/><stop offset=".775" stop-color="orange"/><stop offset="1" stop-color="#FF9C00"/></linearGradient><linearGradient id="c" x1="25.764" y1="23.992" x2="1.868" y2="47.956" gradientUnits="userSpaceOnUse"><stop stop-color="#FF3A44"/><stop offset="1" stop-color="#C31162"/></linearGradient><linearGradient id="d" x1="7.305" y1=".767" x2="17.976" y2="11.468" gradientUnits="userSpaceOnUse"><stop stop-color="#32A071"/><stop offset=".069" stop-color="#2DA771"/><stop offset=".476" stop-color="#15CF74"/><stop offset=".801" stop-color="#06E775"/><stop offset="1" stop-color="#00F076"/></linearGradient></defs></svg>