<svg width="50" height="50" viewBox="0 0 50 50" fill="none" xmlns="http://www.w3.org/2000/svg"><path fill-rule="evenodd" clip-rule="evenodd" d="M25 0c13.807 0 25 11.193 25 25S38.807 50 25 50 0 38.807 0 25 11.193 0 25 0Z" fill="#fff"/><path d="M28.77 25.375c.323 0 .585-.297.585-.662 0-.364-.262-.66-.585-.66-.324 0-.586.296-.586.66 0 .365.262.662.585.662Zm-7.54 0c.324 0 .586-.297.586-.662 0-.364-.262-.66-.585-.66-.324 0-.586.296-.586.66 0 .365.262.662.585.662Z" fill="#7828E6"/><path d="M34.996 35.265 33.55 20.672c-.033-.335-.284-.588-.582-.588h-3.613v2.76c.682.272 1.172 1.007 1.172 1.87 0 1.093-.788 1.983-1.758 1.983-.969 0-1.757-.89-1.757-1.984 0-.862.49-1.597 1.172-1.87v-2.759h-6.368v2.76c.682.272 1.172 1.007 1.172 1.87 0 1.093-.788 1.983-1.758 1.983-.969 0-1.757-.89-1.757-1.984 0-.862.49-1.597 1.172-1.87v-2.759H17.03c-.298 0-.55.253-.582.588l-1.444 14.593a.718.718 0 0 0 .145.515c.111.14.27.22.437.22h18.828a.56.56 0 0 0 .437-.22.719.719 0 0 0 .145-.515Zm-13.18-16.349c0-1.981 1.429-3.593 3.184-3.593 1.756 0 3.184 1.612 3.184 3.593v1.168h1.171v-1.168C29.355 16.206 27.402 14 25 14s-4.355 2.205-4.355 4.916v1.168h1.171v-1.168Z" fill="#7828E6"/></svg>