<svg width="155" height="186" viewBox="0 0 155 186" fill="none" xmlns="http://www.w3.org/2000/svg"><path opacity=".2" fill-rule="evenodd" clip-rule="evenodd" d="m151.779 85.503-3.557.633 2.042 11.438c.113.635-.29 1.238-.9 1.347l-17.217 3.062c-.611.109-1.197-.319-1.31-.954l-2.041-11.439-3.557.632c-2.137.38-4.197-1.12-4.594-3.344l-4.578-25.658c-.398-2.225 1.018-4.343 3.153-4.724l3.557-.632-2.041-11.438c-.114-.635.29-1.239.899-1.347l17.217-3.062c.611-.109 1.198.318 1.311.953l2.041 11.439 3.557-.633c2.136-.38 4.197 1.12 4.594 3.345l1.105 6.199.99-.177c.61-.107 1.197.318 1.311.955.113.635-.29 1.238-.9 1.347l-.99.176.568 3.18.989-.177c.61-.109 1.197.318 1.31.953.114.636-.289 1.24-.9 1.348l-.988.176 2.083 11.678c.398 2.225-1.018 4.344-3.154 4.724Zm-18.937 13.983 15.007-2.67-1.836-10.287-15.007 2.668 1.836 10.29Zm5.316-56.971-15.007 2.668 1.836 10.288 15.007-2.67-1.836-10.286Zm14.566 38.658-4.579-25.659c-.171-.955-1.055-1.6-1.973-1.437l-26.54 4.72c-.918.164-1.527 1.075-1.356 2.03l4.579 25.658c.171.955 1.056 1.601 1.973 1.438l26.54-4.72c.917-.164 1.527-1.075 1.356-2.03Zm-15.436-4.28a1.093 1.093 0 0 1-1.417.252c-.85-.51-5.145-3.11-6.239-4.309-.499-.544-1.181-1.429-1.356-2.82-.291-2.314 1.171-4.426 3.328-4.81 1.189-.212 2.256.252 3.009.745.544-.721 1.389-1.528 2.539-1.731 2.157-.384 4.259 1.094 4.787 3.365.316 1.364-.017 2.43-.295 3.113-.617 1.515-3.736 5.426-4.356 6.195Zm2.466-8.792c-.242-1.044-1.225-1.752-2.192-1.58-.787.14-1.463 1.268-1.637 1.651a1.109 1.109 0 0 1-.833.646 1.114 1.114 0 0 1-.994-.351c-.294-.314-1.253-1.108-2.083-.96-.967.172-1.644 1.176-1.51 2.238.069.561.286.995.745 1.497.58.634 3.045 2.243 4.903 3.386 1.342-1.708 3.092-4.063 3.42-4.866.255-.63.308-1.112.181-1.661Zm9.03 12.712-22.357 3.976c-.609.108-1.196-.319-1.309-.954l-3.801-21.3c-.113-.637.289-1.24.899-1.348l22.356-3.977c.61-.107 1.197.32 1.31.955l.973 5.45c.113.635-.29 1.237-.9 1.345-.61.11-1.197-.317-1.311-.953l-.767-4.299-20.145 3.583 3.39 19 20.146-3.583-.767-4.298c-.114-.636.289-1.239.899-1.348.61-.109 1.198.319 1.311.954l.972 5.45c.113.635-.289 1.238-.899 1.347Zm-1.898-10.63a1.134 1.134 0 0 1-1.175-.579 1.207 1.207 0 0 1 .099-1.32c.305-.385.83-.52 1.28-.332.432.18.72.632.714 1.113-.006.55-.397 1.025-.918 1.118Z" fill="#5F8AD4"/><path opacity=".2" fill-rule="evenodd" clip-rule="evenodd" d="M50.205 91.4 40.03 93.329l3.934 20.778a.977.977 0 0 1-.778 1.143l-4.799.911a.977.977 0 0 1-1.142-.78.978.978 0 0 1 .778-1.144l3.84-.727-3.753-19.818-3.885.738a8.278 8.278 0 0 1-5.67 6.563l.442 2.334 1.824-.346a3.424 3.424 0 0 1 3.996 2.729l.584 3.078a3.43 3.43 0 0 1-2.722 4.005l-5.568 1.055a3.424 3.424 0 0 1-3.996-2.73l-.584-3.078a3.429 3.429 0 0 1 2.723-4.004l1.823-.346-.441-2.334a8.268 8.268 0 0 1-7.675-4.032l-3.887.737 3.752 19.817 3.84-.729a.979.979 0 0 1 .364 1.924l-4.8.91a.978.978 0 0 1-1.141-.779l-3.934-20.78-10.174 1.93a.979.979 0 0 1-1.142-.78l-.729-3.848a.978.978 0 0 1 .778-1.143l5.423-1.029-.826-4.36-5.327 1.009a.978.978 0 0 1-.364-1.923l12.574-2.385a.98.98 0 0 1 .364 1.924l-5.327 1.01.826 4.36 8.717-1.652a8.365 8.365 0 0 1 1.982-3.996 8.18 8.18 0 0 1 4.595-2.585 8.171 8.171 0 0 1 5.22.724 8.36 8.36 0 0 1 3.307 2.992l8.835-1.674-.825-4.361-5.327 1.01a.977.977 0 0 1-1.142-.78.978.978 0 0 1 .778-1.145l12.573-2.383a.977.977 0 0 1 1.142.78.978.978 0 0 1-.778 1.144l-5.326 1.01.826 4.36 5.303-1.005a.977.977 0 0 1 1.142.78l.729 3.848a.978.978 0 0 1-.778 1.144Zm-24.586 14.56c-.794.15-1.317.92-1.166 1.715l.582 3.078a1.469 1.469 0 0 0 1.714 1.171l5.566-1.056a1.469 1.469 0 0 0 1.167-1.715l-.583-3.079a1.468 1.468 0 0 0-1.713-1.17l-5.567 1.056Zm22.898-18.226-15.783 2.993a.977.977 0 0 1-1.052-.516c-1.267-2.48-4.06-3.85-6.792-3.331-2.732.517-4.83 2.815-5.104 5.585a.976.976 0 0 1-.79.866L3.215 96.324l.363 1.925 15.726-2.982a.975.975 0 0 1 1.064.542 6.31 6.31 0 0 0 11.996-2.275.98.98 0 0 1 .793-.895l15.725-2.982-.364-1.923Zm-19.356 21.64a.978.978 0 0 1-.364-1.924.977.977 0 0 1 1.142.78.978.978 0 0 1-.778 1.144ZM23.269 78.32c2.9-.55 5.819-.126 8.439 1.225a.979.979 0 0 1-.893 1.74 11.042 11.042 0 0 0-7.182-1.04 11.044 11.044 0 0 0-6.302 3.598.976.976 0 0 1-1.379.088.98.98 0 0 1-.089-1.381 12.982 12.982 0 0 1 7.406-4.23Zm-9.616 2.278a.976.976 0 0 1-1.379.088.98.98 0 0 1-.089-1.381 17.824 17.824 0 0 1 10.171-5.809 17.812 17.812 0 0 1 11.589 1.682.98.98 0 0 1-.893 1.74 15.895 15.895 0 0 0-10.331-1.499 15.9 15.9 0 0 0-9.068 5.179Zm22.383-8.188a.977.977 0 0 1-.628-.092 20.98 20.98 0 0 0-13.65-1.98 20.997 20.997 0 0 0-11.98 6.84.975.975 0 0 1-1.379.088.981.981 0 0 1-.09-1.382 22.936 22.936 0 0 1 13.085-7.47c5.124-.972 10.279-.224 14.908 2.163a.981.981 0 0 1-.266 1.833Z" fill="#65D45F"/><path opacity=".2" fill-rule="evenodd" clip-rule="evenodd" d="m126.791 164.149-44.243 21.294a5.65 5.65 0 0 1-7.542-2.664l-1.47-3.08a1.011 1.011 0 0 1 .472-1.348l1.814-.873-14.32-29.986c-1.217-2.554-.144-5.617 2.4-6.844l39.777-19.144a5.107 5.107 0 0 1 6.817 2.408l14.321 29.985 1.815-.873a1.005 1.005 0 0 1 1.342.473l1.471 3.081c1.346 2.827.159 6.213-2.654 7.571Zm-18.109-39.364a3.096 3.096 0 0 0-4.134-1.46L64.77 142.469a3.121 3.121 0 0 0-1.454 4.151l14.32 29.985 45.367-21.835-14.321-29.985Zm-11.873 44.833a3.017 3.017 0 0 0 3.436.587l3.629-1.748a3.038 3.038 0 0 0 1.697-3.056l-8.762 4.217Zm30.821-12.167-1.035-2.169-19.145 9.215a5.063 5.063 0 0 1-2.706 5.782l-3.629 1.747a5.027 5.027 0 0 1-6.185-1.504l-19.146 9.214 1.037 2.169a3.637 3.637 0 0 0 4.856 1.716l44.245-21.294a3.665 3.665 0 0 0 1.708-4.876Zm-62.061-13.125 39.922-19.214a1.004 1.004 0 0 1 1.342.474l13.05 27.326c.24.502.029 1.106-.473 1.347l-39.921 19.213a1.004 1.004 0 0 1-1.343-.474l-13.05-27.324a1.012 1.012 0 0 1 .473-1.348Zm13.956 26.889 38.108-18.341-12.179-25.503-38.108 18.341 12.18 25.503Z" fill="#E63A28"/><path opacity=".2" fill-rule="evenodd" clip-rule="evenodd" d="m89.774 25.208-6.955 21.564c-.789 2.446-3.412 3.792-5.848 3.002L41.213 38.158c-2.436-.792-3.776-3.425-2.987-5.87l6.955-21.565c.789-2.445 3.412-3.79 5.848-3l2.202.715.338-1.05a3.298 3.298 0 0 1 4.151-2.13 3.314 3.314 0 0 1 2.12 4.167l-.339 1.049 4.979 1.617 4.707-4.18a.912.912 0 0 1 .888-.186l12.077 3.923c.308.1.54.356.611.673l1.375 6.155 2.65.86c2.435.792 3.775 3.425 2.986 5.871Zm-32.618-18.2a1.467 1.467 0 0 0-1.845.947l-.338 1.05 2.786.904.34-1.048a1.474 1.474 0 0 0-.943-1.853Zm23.936 6.229-11.084-3.6-3.506 3.113 15.613 5.07-1.023-4.583Zm5.13 7.85L50.465 9.472a2.815 2.815 0 0 0-3.542 1.819l-6.955 21.564a2.828 2.828 0 0 0 1.808 3.555l35.76 11.614a2.814 2.814 0 0 0 3.54-1.818l6.957-21.563a2.829 2.829 0 0 0-1.81-3.556ZM65.847 41.522c-6.051-1.965-9.38-8.508-7.42-14.584a11.534 11.534 0 0 1 2.208-3.966.914.914 0 0 1 1.29-.1c.385.33.43.91.1 1.296a9.689 9.689 0 0 0-1.856 3.336c-1.649 5.112 1.151 10.615 6.241 12.269 5.091 1.653 10.574-1.16 12.222-6.272 1.649-5.112-1.151-10.616-6.241-12.269a9.626 9.626 0 0 0-3.787-.443.919.919 0 0 1-.15-1.831c1.521-.128 3.036.05 4.5.525 6.052 1.965 9.38 8.507 7.42 14.584-1.959 6.076-8.476 9.42-14.527 7.455Zm5.867-18.191c3.937 1.279 6.104 5.537 4.828 9.49-1.275 3.956-5.516 6.132-9.454 4.852-3.939-1.279-6.105-5.536-4.83-9.49 1.276-3.955 5.517-6.131 9.456-4.852Zm-4.062 12.594c2.978.967 6.184-.68 7.148-3.67.964-2.988-.673-6.208-3.65-7.175-2.979-.967-6.186.68-7.149 3.668-.964 2.99.673 6.21 3.65 7.177Zm2.863-8.878a3.637 3.637 0 0 1 2.326 4.573.914.914 0 0 1-1.153.591.92.92 0 0 1-.589-1.158 1.796 1.796 0 0 0-1.148-2.256.918.918 0 0 1-.589-1.157.915.915 0 0 1 1.153-.593Zm-5.53-5.219a.922.922 0 0 1-.7.056.924.924 0 0 1-.588-1.157.919.919 0 0 1 1.153-.592.922.922 0 0 1 .588 1.158.922.922 0 0 1-.454.535Zm-9.231-2.715-4.53-1.47a.92.92 0 0 1 .565-1.75l4.53 1.471a.92.92 0 0 1-.565 1.75ZM85.929 6.506l-4.231 2.17a.915.915 0 0 1-1.232-.4.922.922 0 0 1 .4-1.236l4.23-2.171a.914.914 0 0 1 1.232.4.921.921 0 0 1-.399 1.237Zm-7.92.29a.915.915 0 1 1-1.742-.567l1.505-4.668A.915.915 0 0 1 78.925.97a.92.92 0 0 1 .59 1.158l-1.507 4.667Zm-4.6-.812a.912.912 0 0 1-1.232-.4l-2.16-4.246a.92.92 0 0 1 .4-1.237.914.914 0 0 1 1.23.4l2.162 4.248a.92.92 0 0 1-.4 1.235Z" fill="#D2B92F"/></svg>