<svg width="93" height="91" viewBox="0 0 93 91" fill="none" xmlns="http://www.w3.org/2000/svg"><path d="M81.434 37.1V91H10.72V37.1L46.277 2.605 81.434 37.1Z" fill="#E9EAEF"/><path d="M81.81 10.702v24.201L69.774 23.44l-5.642-5.373v-7.365a2.592 2.592 0 0 1 2.591-2.592h12.495a2.592 2.592 0 0 1 2.592 2.592Z" fill="#9EB1B7"/><path d="M69.774 8.11v15.33l-5.642-5.373v-7.365a2.592 2.592 0 0 1 2.591-2.592h3.051Z" fill="#879BA0"/><path d="M92.154 82.697v8.301H49.463v-8.3a2.992 2.992 0 0 1 2.993-3.001H89.16a2.993 2.993 0 0 1 2.993 3Zm-77.19 0v8.301H0v-8.3a2.992 2.992 0 0 1 2.991-3.001h8.98a2.99 2.99 0 0 1 2.993 3Z" fill="#9CCE21"/><path d="M92.154 85.517v5.481H49.463v-5.48a2.993 2.993 0 0 1 2.993-2.992H89.16a2.993 2.993 0 0 1 2.993 2.992Zm-77.19 0v5.481H0v-5.48a2.991 2.991 0 0 1 2.991-2.992h8.98a2.992 2.992 0 0 1 2.993 2.992Z" fill="#85C10D"/><path d="M81.434 39.216V49.29L46.077 15.53 10.72 49.29V39.216l32.55-31 2.807-2.61 2.806 2.61 32.55 31Z" fill="#D2D4D8"/><path d="M46.077 9.925 5.82 48.359.19 43.634 43.269 2.608 46.077 0l2.806 2.608L91.96 43.634l-5.628 4.725L46.077 9.925Z" fill="#EA4756"/><path d="M42.691 50.616h-23.32V91h23.32V50.616Z" fill="#C97523"/><path d="M76.02 50.616H49.463v23.321H76.02v-23.32Z" fill="#A0D9F2"/><path d="M76.02 50.616H49.463v7.086H76.02v-7.086Z" fill="#C97523"/><path d="M38.096 72.089h-3.385a1.411 1.411 0 0 1 0-2.823h3.385a1.411 1.411 0 0 1 0 2.823Z" fill="#8E480E"/><path d="M52.588 33.495a6.507 6.507 0 1 0-12.847-2.076 6.507 6.507 0 0 0 12.847 2.076Z" fill="#413740"/><path d="M42.691 49.205h-23.32a1.411 1.411 0 0 0-1.41 1.41v40.383h2.82V52.025h20.501v38.973h2.815V50.614a1.41 1.41 0 0 0-1.406-1.409Zm33.327 0H49.462a1.411 1.411 0 0 0-1.41 1.41v23.322a1.411 1.411 0 0 0 1.41 1.411h26.556a1.411 1.411 0 0 0 1.411-1.41V50.613a1.409 1.409 0 0 0-1.411-1.409Zm-1.41 2.82v4.273H50.873v-4.265l23.737-.008Zm-23.736 20.5V59.111h23.737v13.412H50.872Z" fill="#8E480E"/><path d="M46.077 40.494a7.9 7.9 0 1 1-.003-15.8 7.9 7.9 0 0 1 .003 15.8Zm0-12.976a5.077 5.077 0 1 0 0 10.154 5.077 5.077 0 0 0 0-10.154Z" fill="#EA4756"/></svg>