<svg width="96" height="96" viewBox="0 0 96 96" fill="none" xmlns="http://www.w3.org/2000/svg"><path d="m64.425 35.91-4.334-4.335L83.963 7.703a2.971 2.971 0 0 1 4.206 0l.128.128a2.974 2.974 0 0 1 0 4.206L64.425 35.91Z" fill="#464646"/><path d="M83.98 12.013C76.382 4.413 69.383-.907 68.35.129c-1.036 1.035 4.286 8.033 11.884 15.63 7.597 7.597 14.597 12.92 15.63 11.884 1.033-1.035-4.285-8.033-11.885-15.63Z" fill="#B4AAAA"/><path d="m31.575 35.91 4.334-4.335L12.037 7.703a2.972 2.972 0 0 0-4.206 0l-.128.128a2.976 2.976 0 0 0 0 4.206L31.575 35.91Z" fill="#464646"/><path d="M27.643.129C26.608-.906 19.61 4.414 12.013 12.01 4.416 19.608-.907 26.606.129 27.643c1.035 1.037 8.033-4.287 15.63-11.884C23.356 8.162 28.676 1.162 27.643.129Z" fill="#B4AAAA"/><path d="m64.425 60.09-4.334 4.335 23.872 23.872a2.971 2.971 0 0 0 4.206 0l.128-.128a2.973 2.973 0 0 0 0-4.206L64.425 60.09Z" fill="#464646"/><path d="M95.871 68.357c-1.035-1.033-8.033 4.287-15.63 11.884-7.597 7.597-12.92 14.597-11.884 15.63 1.035 1.034 8.033-4.285 15.63-11.882 7.597-7.597 12.92-14.595 11.884-15.632Z" fill="#B4AAAA"/><path d="m31.575 60.09 4.334 4.335-23.872 23.872a2.972 2.972 0 0 1-4.206 0l-.128-.128a2.976 2.976 0 0 1 0-4.206L31.575 60.09Z" fill="#464646"/><path d="M15.757 80.241C8.16 72.644 1.162 67.324.129 68.357-.905 69.39 4.414 76.39 12.01 83.987c7.597 7.597 14.595 12.92 15.63 11.884 1.035-1.035-4.285-8.033-11.884-15.63Z" fill="#B4AAAA"/><path d="M58.898 18.382H37.106a6.622 6.622 0 0 0-6.575 5.929 222.722 222.722 0 0 0-.928 35.881 18.433 18.433 0 0 0 36.82 0 222.93 222.93 0 0 0-.927-35.881 6.623 6.623 0 0 0-6.575-5.93h-.023Z" fill="#3567C3"/><path d="M65.477 24.31a6.62 6.62 0 0 0-6.575-5.928H51.95a6.62 6.62 0 0 1 6.575 5.929 222.504 222.504 0 0 1 .928 35.881 18.44 18.44 0 0 1-14.93 17.096 18.439 18.439 0 0 0 21.879-17.096 222.504 222.504 0 0 0-.928-35.881h.002Z" fill="#2D56A1"/><path d="M58.603 18.382H37.389v-1.098a4.8 4.8 0 0 1 4.804-4.801h11.6a4.802 4.802 0 0 1 4.81 4.802v1.097Z" fill="#464646"/><path d="M54.11 12.49h-4.072a4.495 4.495 0 0 1 4.496 4.496v1.395h4.069v-1.395a4.495 4.495 0 0 0-4.494-4.496Z" fill="#333"/><path d="M35.9 60.557a1.45 1.45 0 0 0 1.933-.684 11.272 11.272 0 0 1 20.336 0 1.447 1.447 0 0 0 2.769-.694 1.45 1.45 0 0 0-.156-.553 14.162 14.162 0 0 0-25.564 0 1.449 1.449 0 0 0 .682 1.93Zm22.41-30.152a1.448 1.448 0 1 0 0-2.897H37.692a1.448 1.448 0 1 0 0 2.897H58.31Z" fill="#72D1FB"/></svg>