<svg width="79" height="102" viewBox="0 0 79 102" fill="none" xmlns="http://www.w3.org/2000/svg"><path fill-rule="evenodd" clip-rule="evenodd" d="M79 92.802v8.162a1.025 1.025 0 0 1-1.019 1.025h-8.633l-1.609-12.14L79 92.802Zm-79 0v8.162a1.025 1.025 0 0 0 1.019 1.025h8.627c.529-3.025 2.347-12.363 2.347-12.363L0 92.802Z" fill="#EFF6FF"/><path fill-rule="evenodd" clip-rule="evenodd" d="m50.684 21.221-4.647 16.852-2.78-13.566a7.456 7.456 0 0 1-.164-1.108 4.039 4.039 0 0 1 .373-1.798l2.005-5.118 5.213 4.738Z" fill="#D9EEFF"/><path fill-rule="evenodd" clip-rule="evenodd" d="m43.257 24.507 2.78 13.566-5.932 21.514c-.158.457-.383.685-.605.685-.222 0-.45-.228-.613-.685l-5.929-21.514 2.78-13.566c.083-.365.14-.735.169-1.108h7.186c.027.373.082.743.164 1.108Z" fill="#FF6D75"/><path fill-rule="evenodd" clip-rule="evenodd" d="m45.471 16.483-2.002 5.118a4 4 0 0 0-.376 1.798h-7.186a4.191 4.191 0 0 0-.373-1.798l-2.01-5.118 5.976-5.429 5.971 5.429Z" fill="#FE8D94"/><path fill-rule="evenodd" clip-rule="evenodd" d="m29.695 2.143 9.805 8.911-5.977 5.429-5.213 4.738L24.803 8.5a5.273 5.273 0 0 0 1.765-1.729l3.128-4.627ZM54.19 8.5l-3.506 12.71-5.213-4.727-5.971-5.429 9.802-8.91 3.123 4.637A5.371 5.371 0 0 0 54.19 8.51V8.5Z" fill="#EFF6FF"/><path fill-rule="evenodd" clip-rule="evenodd" d="M45.342 0c2.518 0 2.6.122 3.59 1.594l.37.557-9.802 8.911-9.805-8.91.373-.558C31.053.13 31.124 0 33.653 0h11.689Zm-9.435 23.4a7.502 7.502 0 0 1-.17 1.107l-2.779 13.566-4.647-16.852 5.212-4.738 2.011 5.118c.254.565.382 1.179.373 1.798Z" fill="#D9EEFF"/><path fill-rule="evenodd" clip-rule="evenodd" d="M79 29.378v63.424H68.812l-7.443-17.107c-.7-1.61-.7-3.418-.793-5.158-.208-4.199.204-8.499.793-12.438l6.576-44.089c10.86 4.268 10.923 8.683 11.029 15.37l.026-.002ZM20.236 70.404c-.034.73-8.888 18.16-10.053 22.398H0V29.378c.1-6.688.17-11.102 11.023-15.37.441 5.046 9.216 56.213 9.203 56.397h.01Z" fill="#7E707D"/><path fill-rule="evenodd" clip-rule="evenodd" d="m69.446 74.954 4.906 17.848h-5.548L64.093 75.65a23.488 23.488 0 0 1-.793-5.158c-.208-4.199.45-8.462.793-12.438l1.63-18.708a.412.412 0 0 1 .408-.38.409.409 0 0 1 .409.38l2.097 30.445a23.81 23.81 0 0 0 .793 5.158l.016.005Z" fill="#6A5C6B"/><path fill-rule="evenodd" clip-rule="evenodd" d="M69.348 101.989h-23.25c-1.087 0-1.922-.486-2.191-1.328l-2.867-9.072-1.53-4.845V60.261c.222 0 .45-.228.608-.685l.925-1.97c8.738-18.773 12.241-29.862 18.76-46.807l8.171 3.209-3.844 44.046c-.349 3.984-1.007 8.234-.793 12.438.07 1.743.33 3.473.78 5.158l6.642 24.17c.388 1.412.264 2.18-1.392 2.18l-.019-.011ZM39.5 60.261v26.475l-1.53 4.845-2.867 9.08c-.264.85-1.11 1.328-2.198 1.328H9.655c-1.644 0-1.776-.767-1.393-2.18l6.64-24.17a23.82 23.82 0 0 0 .792-5.157c.204-4.2-.454-8.465-.792-12.438L11.03 14.008l8.175-3.209L37.99 57.37l.896 2.22c.164.457.386.686.613.686v-.014Z" fill="#7E707D"/><path fill-rule="evenodd" clip-rule="evenodd" d="m39.5 11.054 5.971 5.429-1.265 3.227-4.756-4.321-4.687 4.265-1.24-3.168 5.977-5.432Z" fill="#FF6D75"/><path fill-rule="evenodd" clip-rule="evenodd" d="M40.105 59.576 56.014 36.61c.25-.364.46-.648.623-.906L45.445 64.617v18.417l5.284 18.955h-4.65c-1.089 0-1.92-.486-2.19-1.328l-4.397-13.917V60.261c.222 0 .447-.228.605-.685h.008Z" fill="#6A5C6B"/><path fill-rule="evenodd" clip-rule="evenodd" d="m38.887 59.576-15.9-22.966c-.251-.364-.46-.648-.63-.906l11.198 28.913v18.417l-5.284 18.955h4.648c1.088 0 1.928-.486 2.195-1.328l4.4-13.917V60.261c-.228 0-.45-.228-.614-.685h-.013ZM9.554 74.954 4.647 92.802h5.536l4.71-17.152c.453-1.685.719-3.415.793-5.158.204-4.199-.454-8.462-.792-12.438l-1.636-18.72a.413.413 0 0 0-.408-.378.409.409 0 0 0-.408.379l-2.098 30.453a23.92 23.92 0 0 1-.793 5.158l.003.008Z" fill="#6A5C6B"/><path d="M5.218 75.478a1.53 1.53 0 0 1-1.081-.45 1.542 1.542 0 0 1 .5-2.51 1.525 1.525 0 0 1 1.67.337 1.543 1.543 0 0 1-1.089 2.628v-.005Zm0 6.193a1.52 1.52 0 0 1-1.081-.449 1.535 1.535 0 0 1-.449-1.086 1.546 1.546 0 0 1 .947-1.423 1.525 1.525 0 0 1 1.67.335 1.543 1.543 0 0 1-1.087 2.629v-.006Z" fill="#EFF6FF"/><path d="M41.03 57.605v33.976l-1.53-4.845-1.53 4.845V57.613a1.374 1.374 0 0 1 .021-.265l.896 2.22c.164.457.386.685.613.685.227 0 .45-.228.608-.685.311-.666.62-1.328.922-1.97v.007Z" fill="#7E707D"/><path d="M73.774 75.478c-.406 0-.795-.163-1.082-.45a1.542 1.542 0 0 1 .5-2.51 1.525 1.525 0 0 1 1.67.337 1.543 1.543 0 0 1-1.088 2.628v-.005Zm0 6.193a1.519 1.519 0 0 1-1.082-.449 1.535 1.535 0 0 1-.448-1.086 1.546 1.546 0 0 1 .947-1.423 1.525 1.525 0 0 1 1.67.335 1.543 1.543 0 0 1-1.087 2.629v-.006Z" fill="#EFF6FF"/><path d="M57.371 69.964h-8.254a1.527 1.527 0 0 1-1.473-.935 1.547 1.547 0 0 1 .868-2.045c.193-.074.399-.107.605-.099h8.254c.395.017.769.186 1.043.473a1.545 1.545 0 0 1 0 2.133 1.529 1.529 0 0 1-1.043.473Zm-27.493 0h-8.255a1.527 1.527 0 0 1-1.473-.935 1.547 1.547 0 0 1 .868-2.045c.193-.074.399-.107.605-.099h8.255a1.53 1.53 0 0 1 1.042.473 1.545 1.545 0 0 1 0 2.133 1.529 1.529 0 0 1-1.043.473Z" fill="#584657"/><path fill-rule="evenodd" clip-rule="evenodd" d="M40.105 59.576 56.013 36.61c.251-.364.46-.648.624-.906.5-.767.61-1.261.232-2.618l-.914-3.28c-.29-1.031-.338-1.594.529-2.51l2.642-3.528c.425-.55.66-.982.66-2.446V10.8l-4.491-1.77a8.508 8.508 0 0 1-1.107-.53L50.68 21.21l-4.647 16.853-5.929 21.513Zm-1.218 0-15.9-22.966c-.251-.364-.46-.648-.63-.906-.501-.767-.612-1.261-.234-2.618l.916-3.28c.291-1.031.339-1.594-.512-2.51l-2.642-3.528c-.434-.55-.666-.982-.666-2.446V10.8l4.492-1.769a7.994 7.994 0 0 0 1.099-.53l3.509 12.71 4.647 16.853 5.921 21.513Z" fill="#584657"/></svg>