<svg width="120" height="75" viewBox="0 0 120 75" fill="none" xmlns="http://www.w3.org/2000/svg"><path d="M96.019 26.833c-4.743 0-9.38 1.412-13.324 4.059A24.062 24.062 0 0 0 73.863 41.7a24.18 24.18 0 0 0-1.364 13.915 24.116 24.116 0 0 0 6.564 12.331 23.95 23.95 0 0 0 12.28 6.59c4.651.93 9.473.452 13.855-1.371a24.005 24.005 0 0 0 10.762-8.872 24.151 24.151 0 0 0 4.04-13.38c0-3.163-.62-6.295-1.825-9.217a24.1 24.1 0 0 0-5.199-7.812 23.975 23.975 0 0 0-7.78-5.22 23.892 23.892 0 0 0-9.177-1.832Zm0 42.053c-3.54 0-7.001-1.054-9.945-3.03a17.96 17.96 0 0 1-6.593-8.067 18.048 18.048 0 0 1-1.018-10.386 18 18 0 0 1 4.899-9.204 17.876 17.876 0 0 1 9.165-4.92 17.83 17.83 0 0 1 10.342 1.023 17.915 17.915 0 0 1 8.033 6.62 18.03 18.03 0 0 1 3.017 9.988c0 4.768-1.886 9.34-5.243 12.711a17.862 17.862 0 0 1-12.657 5.265Z" fill="#365E7D"/><path d="M81.312 61.16a18.02 18.02 0 0 1-3.193-10.245 18.02 18.02 0 0 1 3.193-10.245 24.088 24.088 0 0 1 7.406-9.087 23.952 23.952 0 0 1 10.8-4.496 24.257 24.257 0 0 0-3.5-.254c-3.296 0-6.557.683-9.58 2.007a23.981 23.981 0 0 0-7.984 5.683 24.103 24.103 0 0 0-5.058 8.413 24.18 24.18 0 0 0 1.402 19.191 24.059 24.059 0 0 0 6.227 7.582 23.945 23.945 0 0 0 8.724 4.453 23.883 23.883 0 0 0 9.77.58 23.95 23.95 0 0 1-10.801-4.495 24.087 24.087 0 0 1-7.406-9.087Z" fill="#294B64"/><path d="M23.981 26.833c-4.743 0-9.38 1.412-13.323 4.059A24.062 24.062 0 0 0 1.825 41.7 24.18 24.18 0 0 0 .461 55.615a24.115 24.115 0 0 0 6.563 12.331 23.95 23.95 0 0 0 12.279 6.591c4.652.93 9.473.453 13.855-1.37a24.003 24.003 0 0 0 10.763-8.87 24.157 24.157 0 0 0 4.041-13.38 24.136 24.136 0 0 0-7.023-17.03 23.93 23.93 0 0 0-16.958-7.054Zm0 42.053a17.846 17.846 0 0 1-9.947-3.026 17.96 17.96 0 0 1-6.595-8.068 18.048 18.048 0 0 1-1.02-10.387 18 18 0 0 1 4.899-9.206 17.876 17.876 0 0 1 9.166-4.92 17.83 17.83 0 0 1 10.344 1.024 17.916 17.916 0 0 1 8.033 6.624 18.031 18.031 0 0 1 3.014 9.99c0 4.767-1.886 9.34-5.243 12.71a17.862 17.862 0 0 1-12.657 5.266l.006-.007Z" fill="#365E7D"/><path d="M9.275 61.16a18.02 18.02 0 0 1-3.194-10.245A18.02 18.02 0 0 1 9.275 40.67a24.089 24.089 0 0 1 7.405-9.087 23.952 23.952 0 0 1 10.801-4.496 24.23 24.23 0 0 0-3.5-.254 23.87 23.87 0 0 0-9.58 2.007 23.981 23.981 0 0 0-7.984 5.683 24.103 24.103 0 0 0-5.059 8.413A24.18 24.18 0 0 0 2.76 62.127a24.06 24.06 0 0 0 6.227 7.582 23.944 23.944 0 0 0 8.725 4.453 23.884 23.884 0 0 0 9.77.58 23.95 23.95 0 0 1-10.802-4.495 24.088 24.088 0 0 1-7.405-9.087Z" fill="#294B64"/><path d="M96.019 70.71c-3.9 0-7.71-1.161-10.952-3.337a19.778 19.778 0 0 1-7.26-8.885 19.875 19.875 0 0 1-1.122-11.438 19.823 19.823 0 0 1 5.396-10.136 19.687 19.687 0 0 1 10.094-5.417 19.633 19.633 0 0 1 11.389 1.127 19.735 19.735 0 0 1 8.847 7.293 19.858 19.858 0 0 1 3.32 11 19.86 19.86 0 0 1-5.781 13.99 19.692 19.692 0 0 1-13.931 5.803Zm0-35.953c-3.183 0-6.294.948-8.94 2.723a16.144 16.144 0 0 0-5.926 7.253 16.223 16.223 0 0 0-.916 9.336 16.181 16.181 0 0 0 4.404 8.274 16.07 16.07 0 0 0 8.238 4.422c3.122.624 6.357.304 9.297-.92a16.114 16.114 0 0 0 7.222-5.951 16.208 16.208 0 0 0 2.711-8.978 16.215 16.215 0 0 0-4.718-11.42 16.075 16.075 0 0 0-11.372-4.739ZM23.981 70.71a19.65 19.65 0 0 1-10.952-3.337 19.778 19.778 0 0 1-7.26-8.885A19.875 19.875 0 0 1 4.648 47.05a19.823 19.823 0 0 1 5.396-10.136 19.686 19.686 0 0 1 10.093-5.417 19.635 19.635 0 0 1 11.39 1.127 19.731 19.731 0 0 1 8.846 7.293 19.857 19.857 0 0 1 3.32 11 19.861 19.861 0 0 1-5.78 13.99A19.692 19.692 0 0 1 23.98 70.71Zm0-35.953c-3.182 0-6.293.948-8.94 2.723a16.144 16.144 0 0 0-5.925 7.253 16.223 16.223 0 0 0-.916 9.336 16.18 16.18 0 0 0 4.404 8.274 16.07 16.07 0 0 0 8.238 4.422c3.122.624 6.357.304 9.297-.92a16.106 16.106 0 0 0 7.221-5.951 16.209 16.209 0 0 0 2.712-8.978 16.213 16.213 0 0 0-4.718-11.42 16.074 16.074 0 0 0-11.373-4.739ZM94.103 9.415H79.906a1.806 1.806 0 0 1-1.742-1.105 1.826 1.826 0 0 1 1.026-2.416c.228-.087.472-.126.716-.116h14.197a1.805 1.805 0 0 1 1.33.505 1.82 1.82 0 0 1 .558 1.313A1.826 1.826 0 0 1 94.82 9.3a1.805 1.805 0 0 1-.717.116Z" fill="#DBEDFF"/><path d="M97.316 21.592h-2.204a2.963 2.963 0 0 1-2.227-.802 2.987 2.987 0 0 1-.94-2.18 2.999 2.999 0 0 1 .94-2.18 2.97 2.97 0 0 1 2.227-.801h2.204c.666 0 1.306-.266 1.777-.74a2.53 2.53 0 0 0 0-3.57 2.509 2.509 0 0 0-1.777-.74 2.962 2.962 0 0 1-2.227-.801 2.988 2.988 0 0 1-.941-2.18 2.999 2.999 0 0 1 .94-2.18 2.972 2.972 0 0 1 2.228-.801 8.445 8.445 0 0 1 5.878 2.545 8.518 8.518 0 0 1 2.422 5.952c0 2.225-.87 4.362-2.422 5.951a8.445 8.445 0 0 1-5.878 2.546v-.02Z" fill="#477B9E"/><path d="M97.316 18.014h-2.204a2.946 2.946 0 0 1-2.378-1.199 2.994 2.994 0 0 0 .274 3.901 2.97 2.97 0 0 0 2.104.876h2.204a8.452 8.452 0 0 0 5.98-2.492 8.525 8.525 0 0 0 2.291-7.796 8.517 8.517 0 0 1-2.957 4.82 8.455 8.455 0 0 1-5.314 1.89Z" fill="#365E7D"/><path d="M96.506 47.028 81.6 6.948a1.818 1.818 0 0 0-.944-1.017 1.803 1.803 0 0 0-2.398.898 1.823 1.823 0 0 0-.049 1.39l1.835 4.94h-36.92l-1.73-4.66a1.817 1.817 0 0 0-.952-.977 1.805 1.805 0 0 0-2.362.887A1.83 1.83 0 0 0 38 9.773l1.897 5.1-16.46 33.08a1.827 1.827 0 0 0 .45 2.198 1.826 1.826 0 0 0 .776 2.355c.266.147.565.224.868.224h24.625a1.81 1.81 0 0 0 1.233-.558 1.825 1.825 0 0 0 0-2.52 1.81 1.81 0 0 0-1.233-.559H26.91l14.71-29.566 10.053 27.037a1.819 1.819 0 0 0 1.697 1.183 1.819 1.819 0 0 0 1.64-1.066c.199-.439.217-.94.05-1.392l-10.6-28.496h36.93l.457 1.221-24.703 27.492a1.82 1.82 0 0 0 1.343 3.038 1.788 1.788 0 0 0 1.344-.6l23.438-26.08 9.856 26.438a1.823 1.823 0 0 0 .94 1.062 1.807 1.807 0 0 0 2.438-.916 1.827 1.827 0 0 0 .016-1.42h-.013Z" fill="#F87C68"/><path d="M96.019 47.445a3.445 3.445 0 0 0-1.926.576 3.486 3.486 0 0 0-.544 5.343 3.451 3.451 0 0 0 3.77.76 3.459 3.459 0 0 0 1.553-1.277 3.481 3.481 0 0 0-.421-4.378 3.448 3.448 0 0 0-2.432-1.024Zm-72.038 0c-.683 0-1.352.204-1.92.585a3.468 3.468 0 0 0-1.273 1.558 3.485 3.485 0 0 0 .75 3.783 3.452 3.452 0 0 0 3.766.752 3.46 3.46 0 0 0 1.55-1.278 3.481 3.481 0 0 0-.429-4.383 3.45 3.45 0 0 0-2.444-1.017Z" fill="#365E7D"/><path d="M96.019 50.916a3.465 3.465 0 0 1 1.725-3.003 3.445 3.445 0 0 0-4.728 1.265 3.482 3.482 0 0 0 1.268 4.745 3.445 3.445 0 0 0 3.46-.006 3.463 3.463 0 0 1-1.725-3Zm-72.038 0a3.476 3.476 0 0 1 1.728-3.003 3.445 3.445 0 0 0-4.727 1.265 3.482 3.482 0 0 0 1.268 4.745 3.446 3.446 0 0 0 3.46-.006 3.464 3.464 0 0 1-1.728-3Z" fill="#294B64"/><path d="M54.872 43.977a6.89 6.89 0 0 0-3.839 1.17 6.934 6.934 0 0 0-2.545 3.114 6.967 6.967 0 0 0 1.498 7.562 6.882 6.882 0 0 0 7.53 1.504 6.916 6.916 0 0 0 3.1-2.556 6.96 6.96 0 0 0-.859-8.761 6.894 6.894 0 0 0-4.885-2.032Z" fill="#F4DD45"/><path d="M54.078 50.916c0-1.294.36-2.564 1.04-3.663a6.917 6.917 0 0 1 2.81-2.56 6.883 6.883 0 0 0-6.706.328 6.926 6.926 0 0 0-2.392 2.522 6.962 6.962 0 0 0 0 6.743 6.926 6.926 0 0 0 2.392 2.522 6.89 6.89 0 0 0 6.706.329 6.917 6.917 0 0 1-2.81-2.559 6.957 6.957 0 0 1-1.04-3.662Z" fill="#FCC101"/><path d="M54.872 66.596c-.48 0-.94-.192-1.28-.533a1.821 1.821 0 0 1-.53-1.285V50.916a1.825 1.825 0 0 1 1.1-1.75 1.807 1.807 0 0 1 2.407 1.031c.086.23.125.474.115.72v13.861a1.817 1.817 0 0 1-1.812 1.818Z" fill="#365E7D"/><path d="M58.269 66.847h-6.794c-.48 0-.94-.192-1.28-.533a1.821 1.821 0 0 1 0-2.57c.34-.34.8-.532 1.28-.532h6.794c.48 0 .94.192 1.28.533a1.821 1.821 0 0 1 0 2.57c-.34.34-.8.532-1.28.532ZM53.987 3.888A6.231 6.231 0 0 0 51.7 1.062 6.19 6.19 0 0 0 48.231 0H29.687c-.709 0-1.39.283-1.891.787a2.692 2.692 0 0 0-.784 1.9c0 1.684.666 3.299 1.852 4.49a6.312 6.312 0 0 0 4.47 1.861H39.2a3.426 3.426 0 0 0 2.997-1.75 3.426 3.426 0 0 1 2.997-1.754h7.7a1.186 1.186 0 0 0 .987-.529 1.199 1.199 0 0 0 .116-1.117h-.01Z" fill="#477B9E"/><path d="M33.46 2.686c0-.712.283-1.396.785-1.9A2.672 2.672 0 0 1 36.138 0h-6.45c-.71 0-1.39.283-1.892.787a2.692 2.692 0 0 0-.784 1.9c0 1.684.666 3.299 1.852 4.49a6.312 6.312 0 0 0 4.47 1.861h6.116a6.313 6.313 0 0 1-4.249-1.974 6.366 6.366 0 0 1-1.732-4.368l-.01-.01Z" fill="#365E7D"/></svg>