<svg width="98" height="81" viewBox="0 0 98 81" fill="none" xmlns="http://www.w3.org/2000/svg"><path d="M20.603 64.225a2.857 2.857 0 0 0-4.033 0l-7.122 7.11a2.846 2.846 0 0 0-.676 3.136 2.846 2.846 0 0 0 2.678 1.773 2.857 2.857 0 0 0 2.03-.885l7.123-7.109a2.846 2.846 0 0 0 0-4.025Zm56.794 0a2.856 2.856 0 0 1 4.033 0l7.122 7.11a2.845 2.845 0 0 1-2.002 4.91 2.856 2.856 0 0 1-2.03-.886l-7.123-7.109a2.845 2.845 0 0 1 0-4.025Z" fill="#2B6182"/><path d="M93.502 66.386H4.498a3.066 3.066 0 0 1-2.165-.896 3.054 3.054 0 0 1-.897-2.161V4.489c0-.81.322-1.588.897-2.161a3.065 3.065 0 0 1 2.165-.895h89.004c.812 0 1.591.322 2.166.895.574.573.896 1.35.896 2.161v58.84c0 .81-.322 1.588-.896 2.161a3.066 3.066 0 0 1-2.166.896Z" fill="#BDF9FF"/><path d="M93.502 1.433H87.76c.812 0 1.591.322 2.165.895a3.05 3.05 0 0 1 .897 2.161v58.84a3.05 3.05 0 0 1-.897 2.161 3.066 3.066 0 0 1-2.165.896h5.742c.812 0 1.591-.322 2.166-.896.574-.573.896-1.35.896-2.161V4.489c0-.81-.322-1.588-.896-2.161a3.066 3.066 0 0 0-2.166-.895Z" fill="#8CF2FF"/><path d="M1.436 63.329v-4.585h95.128v4.585c0 .81-.322 1.588-.896 2.161a3.066 3.066 0 0 1-2.166.896H4.498a3.066 3.066 0 0 1-2.165-.896 3.054 3.054 0 0 1-.897-2.161Z" fill="#4380A0"/><path d="M90.822 58.744v4.585a3.05 3.05 0 0 1-.897 2.161 3.066 3.066 0 0 1-2.165.896h5.742c.812 0 1.591-.322 2.166-.896.574-.573.896-1.35.896-2.161v-4.585h-5.742Z" fill="#3B7191"/><path d="M93.502 0H4.498a4.506 4.506 0 0 0-3.18 1.316A4.489 4.489 0 0 0 0 4.489v58.84a4.489 4.489 0 0 0 1.319 3.173 4.506 4.506 0 0 0 3.179 1.316h89.004a4.506 4.506 0 0 0 3.18-1.316A4.489 4.489 0 0 0 98 63.33V4.489a4.489 4.489 0 0 0-1.319-3.173A4.506 4.506 0 0 0 93.502 0Zm1.627 63.329a1.624 1.624 0 0 1-1.627 1.624H4.498a1.63 1.63 0 0 1-1.627-1.624V4.489a1.624 1.624 0 0 1 1.627-1.623h89.004a1.63 1.63 0 0 1 1.627 1.623v58.84Z" fill="#2B6182"/><path d="M95.129 81H2.87a2.874 2.874 0 0 1-2.03-.84 2.863 2.863 0 0 1 2.03-4.891h92.26c.761 0 1.492.302 2.03.84A2.863 2.863 0 0 1 95.13 81Z" fill="#FFE0B2"/><path d="M95.043 75.269h-5.917a2.87 2.87 0 0 1 2.03.84 2.863 2.863 0 0 1 0 4.052 2.874 2.874 0 0 1-2.03.84h5.917c.761 0 1.492-.303 2.03-.84a2.863 2.863 0 0 0-2.03-4.892Z" fill="#FFCC80"/><path d="M88.196 16.523a8.592 8.592 0 0 0-10.412.01 1.432 1.432 0 0 0 .681 2.558c.378.05.76-.05 1.062-.281a5.717 5.717 0 0 1 6.93 0 1.438 1.438 0 0 0 1.995-.284 1.43 1.43 0 0 0-.256-1.995v-.008Z" fill="#26C6DA"/><path d="M90.23 12.815a11.94 11.94 0 0 0-14.481.011 1.434 1.434 0 0 0-.299 2.032 1.435 1.435 0 0 0 2.043.243 9.065 9.065 0 0 1 10.998 0 1.436 1.436 0 0 0 2.11-1.861 1.437 1.437 0 0 0-.37-.42v-.005Z" fill="#26C6DA"/><path d="M92.267 9.214a15.165 15.165 0 0 0-18.394.011 1.433 1.433 0 0 0-.515 1.506 1.432 1.432 0 0 0 1.755 1.015c.182-.048.352-.131.502-.245a12.292 12.292 0 0 1 14.91 0 1.438 1.438 0 0 0 2.013-.27 1.431 1.431 0 0 0-.27-2.01v-.007ZM82.975 19.2a1.437 1.437 0 0 0-1.436 1.432v.955a1.431 1.431 0 0 0 1.436 1.433 1.437 1.437 0 0 0 1.435-1.433v-.955a1.431 1.431 0 0 0-1.435-1.433Z" fill="#26C6DA"/><path d="M36.88 30.948H15.565c-.461 0-.616-.747-.21-1.012l10.66-6.947a.37.37 0 0 1 .416 0l10.66 6.947c.405.265.25 1.012-.21 1.012Z" fill="#FF5622"/><path d="m37.09 29.936-10.659-6.947a.37.37 0 0 0-.417 0l-2.662 1.733 7.997 5.214c.405.265.25 1.012-.211 1.012h5.742c.461 0 .616-.747.21-1.012Z" fill="#E8491D"/><path d="M34.357 30.948h-16.27v12.035h16.27V30.948Z" fill="#FFD54F"/><path d="M34.357 30.948h-5.742v12.035h5.742V30.948Z" fill="#FFCA28"/><path d="M56.184 29.038a1.437 1.437 0 0 0-1.436 1.433V42.6a1.431 1.431 0 0 0 1.436 1.433 1.437 1.437 0 0 0 1.435-1.433V30.47a1.431 1.431 0 0 0-1.435-1.433Z" fill="#5CBA2D"/><path d="M55.08 31.808h4.195a9.24 9.24 0 0 0 6.527-2.699 9.205 9.205 0 0 0 2.704-6.515v-4.54a.763.763 0 0 0-.765-.765h-3.428a9.24 9.24 0 0 0-6.528 2.699 9.205 9.205 0 0 0-2.704 6.515v5.305h-.002Z" fill="#66CF32"/><path d="M64.313 17.289a9.11 9.11 0 0 0-1.547.132v5.173a9.203 9.203 0 0 1-2.179 5.943 9.235 9.235 0 0 1-5.506 3.139v.132h4.196a9.24 9.24 0 0 0 6.527-2.699 9.205 9.205 0 0 0 2.704-6.515v-4.54a.763.763 0 0 0-.765-.765h-3.43Z" fill="#5CBA2D"/><path d="M57.456 31.808h-4.195a9.246 9.246 0 0 1-6.532-2.697 9.213 9.213 0 0 1-2.706-6.517v-4.54a.763.763 0 0 1 .766-.765h3.445a9.24 9.24 0 0 1 6.528 2.699 9.205 9.205 0 0 1 2.704 6.515l-.01 5.305Z" fill="#6FE036"/><path d="M78.764 41.55h-67.95a1.437 1.437 0 0 0-1.435 1.433 1.432 1.432 0 0 0 1.436 1.433h67.949a1.437 1.437 0 0 0 1.435-1.433 1.431 1.431 0 0 0-1.435-1.432Z" fill="#66CF32"/></svg>