<svg width="93" height="70" viewBox="0 0 93 70" fill="none" xmlns="http://www.w3.org/2000/svg"><path d="M77.786 6.236H67.083V2.01c0-.533.211-1.044.586-1.421A1.992 1.992 0 0 1 69.082 0h6.704c.53 0 1.038.212 1.413.589.374.377.585.888.585 1.421l.002 4.226Z" fill="#618BAA"/><path d="M27.508 4.324v7.04H8.798v-7.04c0-.533.211-1.044.586-1.421a1.992 1.992 0 0 1 1.413-.59h14.702c.53 0 1.038.213 1.413.59.374.377.585.888.585 1.421h.01Z" fill="#E3F4FF"/><path d="M27.508 6.804h-18.7v4.56h18.7v-4.56Z" fill="#BDDFF4"/><path d="M81.785 11.364H63.076V7.141c0-.534.21-1.045.586-1.422a1.992 1.992 0 0 1 1.413-.589h14.7a2.011 2.011 0 0 1 1.998 2.01l.012 4.224Z" fill="#38627C"/><path d="M40.302 11.364h-6.699V6.336c0-.533.211-1.044.586-1.421a1.992 1.992 0 0 1 1.413-.589h2.706c.53 0 1.038.212 1.413.589s.585.888.585 1.421l-.004 5.028Z" fill="#FC3E81"/><path d="M93 13.242v50.156c0 1.067-.421 2.09-1.17 2.844a3.984 3.984 0 0 1-2.826 1.177H3.996a3.984 3.984 0 0 1-2.826-1.177A4.034 4.034 0 0 1 0 63.398V13.241c0-1.066.421-2.089 1.17-2.843a3.984 3.984 0 0 1 2.826-1.177h85.008c1.06 0 2.076.423 2.826 1.177A4.034 4.034 0 0 1 93 13.242Z" fill="#9CC6DB"/><path d="M74.146 44.595a27.947 27.947 0 0 1-3.148 12.884 27.752 27.752 0 0 1-8.723 9.95h-31.55a27.752 27.752 0 0 1-8.723-9.95 27.944 27.944 0 0 1-3.148-12.884c0-15.338 12.403-27.817 27.646-27.817s27.646 12.465 27.646 27.817Z" fill="#84A1C0"/><path d="M84.145 21.73h-9.309c-.496 0-.972-.2-1.323-.552a1.889 1.889 0 0 1-.548-1.331V17.07c0-.499.197-.978.548-1.331.35-.354.827-.552 1.323-.553h9.318c.496 0 .972.2 1.323.553.351.353.548.832.548 1.331v2.777c0 .499-.197.978-.548 1.33a1.86 1.86 0 0 1-1.323.552h-.009Z" fill="#FC3E81"/><path d="M93 21.731H0v39.723h93V21.73Z" fill="#618BAA"/><path d="M74.146 44.595a27.785 27.785 0 0 1-5.667 16.857H24.522A27.853 27.853 0 0 1 19.693 51.4a27.947 27.947 0 0 1-.506-11.152 27.885 27.885 0 0 1 3.899-10.453 27.706 27.706 0 0 1 7.673-8.064h31.482a27.752 27.752 0 0 1 8.749 9.958 27.945 27.945 0 0 1 3.156 12.906Z" fill="#4E7693"/><path d="M76.338 48.267H70.49v-8.252h5.85a2.34 2.34 0 0 1 1.66.695 2.365 2.365 0 0 1 .688 1.673V45.9a2.378 2.378 0 0 1-.685 1.68 2.352 2.352 0 0 1-1.666.696v-.009Z" fill="#38627C"/><path d="M71.748 44.595c0 5.025-1.48 9.937-4.255 14.114a25.282 25.282 0 0 1-11.331 9.357 25.104 25.104 0 0 1-14.588 1.446 25.2 25.2 0 0 1-12.927-6.953 25.454 25.454 0 0 1-6.91-13.008 25.55 25.55 0 0 1 1.437-14.678 25.37 25.37 0 0 1 9.299-11.401A25.137 25.137 0 0 1 46.5 19.191a25.17 25.17 0 0 1 17.853 7.44 25.485 25.485 0 0 1 7.395 17.964Z" fill="#E3F4FF"/><path d="M66.313 44.595a20.024 20.024 0 0 1-3.342 11.074 19.84 19.84 0 0 1-8.894 7.34A19.7 19.7 0 0 1 42.63 64.14a19.775 19.775 0 0 1-10.143-5.458 19.974 19.974 0 0 1-5.42-10.207 20.052 20.052 0 0 1 1.128-11.518 19.91 19.91 0 0 1 7.298-8.946 19.706 19.706 0 0 1 18.59-1.841 19.805 19.805 0 0 1 6.43 4.323 19.943 19.943 0 0 1 4.294 6.47 20.042 20.042 0 0 1 1.506 7.632Z" fill="#BDDFF4"/><path d="M63.98 44.595a17.665 17.665 0 0 1-2.95 9.77 17.503 17.503 0 0 1-7.846 6.474 17.379 17.379 0 0 1-10.098.998 17.446 17.446 0 0 1-8.948-4.815 17.621 17.621 0 0 1-4.782-9.005 17.689 17.689 0 0 1 .996-10.161 17.564 17.564 0 0 1 6.438-7.892 17.39 17.39 0 0 1 16.4-1.624 17.474 17.474 0 0 1 5.672 3.815 17.598 17.598 0 0 1 3.788 5.708 17.684 17.684 0 0 1 1.33 6.732Z" fill="#38627C"/><path d="M58.285 44.595a11.91 11.91 0 0 1-1.99 6.586 11.8 11.8 0 0 1-5.29 4.364 11.719 11.719 0 0 1-6.809.672 11.763 11.763 0 0 1-6.032-3.247 11.881 11.881 0 0 1-3.223-6.071c-.454-2.3-.22-4.684.672-6.85a11.841 11.841 0 0 1 4.34-5.321 11.733 11.733 0 0 1 11.058-1.095 11.78 11.78 0 0 1 3.825 2.573 11.861 11.861 0 0 1 2.554 3.85 11.91 11.91 0 0 1 .895 4.54ZM18.164 21.73a3.97 3.97 0 0 1-.662 2.197 3.937 3.937 0 0 1-1.763 1.458 3.91 3.91 0 0 1-4.285-.857 3.978 3.978 0 0 1-.852-4.311 3.95 3.95 0 0 1 1.449-1.775 3.913 3.913 0 0 1 4.962.492 3.967 3.967 0 0 1 1.151 2.795Z" fill="#3FEFEF"/></svg>