<svg height="50" viewBox="0 0 50 50" width="50" xml:space="preserve" xmlns="http://www.w3.org/2000/svg"><path clip-rule="evenodd" d="m10.85 21.62-.008.077-.004.035-.002.017-.002.017-.002.018-.003.017-.003.017-.009.054-.002.014-.004.022-.007.035-.002.011-.011.051-.002.009-.005.024-.003.01-.001.007-.004.016-.013.05-.005.016-.004.017-.015.049-.006.017-.005.015-.006.018-.004.014-.007.02-.005.013-.011.032-.008.022-.012.033-.003.008-.006.016-.003.008-.002.007-.007.016a2.871 2.871 0 0 1-.636.959 2.876 2.876 0 0 1-2.04.845 2.875 2.875 0 0 1-2.039-.845 2.878 2.878 0 0 1-.844-2.039c0-.796.323-1.517.844-2.039a2.873 2.873 0 0 1 2.039-.845 2.894 2.894 0 0 1 2.752 2.014l.004.013.004.014.08.333.011.064.001.007.008.05.002.014.002.014.009.086.001.017.002.012.001.014.002.014.001.015.004.058.003.102v.098l-.003.095-.004.064-.001.01-.002.026-.005.008zm8.39.027c0 .796-.323 1.517-.842 2.042-.52.52-1.243.841-2.042.841a2.874 2.874 0 0 1-2.039-.844 2.873 2.873 0 0 1-.845-2.039c0-.797.323-1.518.845-2.04a2.875 2.875 0 0 1 2.039-.844c.796 0 1.517.323 2.039.845.522.521.845 1.242.845 2.039zm-4.41 7.315c0 .796-.323 1.518-.844 2.039a2.877 2.877 0 0 1-2.04.845 2.875 2.875 0 0 1-2.039-.845 2.871 2.871 0 0 1-.845-2.039c0-.799.323-1.521.845-2.039a2.875 2.875 0 0 1 2.039-.845 2.88 2.88 0 0 1 2.884 2.884zm7.667 2.261a2.89 2.89 0 0 1-4.082.003 2.886 2.886 0 0 1-.841-2.042c0-.796.323-1.518.844-2.039a2.877 2.877 0 0 1 2.039-.845c.542 0 1.05.149 1.483.409l.02.012.053.033.029.019a2.877 2.877 0 0 1 1.301 2.411c0 .796-.324 1.517-.846 2.039zm-3.595 5.478v.092a2.874 2.874 0 0 1-.827 1.726 2.871 2.871 0 0 1-2.039.845 2.871 2.871 0 0 1-2.039-.845 2.876 2.876 0 0 1-.845-2.039c0-.797.323-1.518.845-2.04a2.873 2.873 0 0 1 2.039-.845c.796 0 1.517.323 2.039.845.485.485.799 1.143.839 1.873l-.012.388zm3.355 5.502c.522.522.845 1.243.845 2.039 0 .797-.323 1.518-.845 2.04a2.879 2.879 0 0 1-2.04.844 2.879 2.879 0 0 1-2.883-2.884 2.878 2.878 0 0 1 2.883-2.883c.797 0 1.518.322 2.04.844zm6.727-22.86c-1.315-2.152-2.12-4.077-2.257-5.702-.132-1.573.429-2.889 1.867-3.872l.667-.456-.044-.801c-.095-1.752.604-3 1.926-3.848 1.369-.878 3.382-1.405 5.883-1.661l-.028.145-.291 1.206 1.149.461c.748.3 1.445.754 2.102 1.316a14.375 14.375 0 0 1 1.62 1.656 1.374 1.374 0 0 1-.307.327l-1.105.916.916 1.105c1.066 1.287 1.948 2.581 2.587 3.881.478.973.829 1.961 1.028 2.964-.911.448-1.902.768-2.96.976-1.441.284-3 .369-4.648.302l-1.435-.06-.051 1.44a1.477 1.477 0 0 1-.07.436 14.363 14.363 0 0 1-2.289-.287c-.85-.184-1.633-.464-2.319-.874l-1.068-.64-.784.971-.089.099zm1.715 3.597c.056-.295.091-.597.1-.906.59.238 1.205.421 1.837.557 1.072.232 2.219.337 3.408.365l.179.005a2.882 2.882 0 0 1-2.759 2.04 2.878 2.878 0 0 1-2.765-2.061zm-1.508 9.348a2.877 2.877 0 0 1-2.039-.844 2.877 2.877 0 0 1-.844-2.04 2.878 2.878 0 0 1 1.201-2.342c.21-.1.413-.212.609-.335a2.88 2.88 0 0 1 1.074-.206 2.87 2.87 0 0 1 2.039.844c.522.522.844 1.243.844 2.039a2.879 2.879 0 0 1-2.884 2.884zm-4.869-16.142a5.728 5.728 0 0 0-3.206 1.503c-.874-1.775-1.611-2.861-2.252-3.802a20.148 20.148 0 0 1-.83-1.288c1.068-.925 2.44-1.637 3.88-2.107a13.323 13.323 0 0 1 2.729-.586c-.66 1.184-.902 2.528-.777 4.01.061.728.215 1.485.456 2.27zm.721 8.596a2.87 2.87 0 0 1-1.495-.418l-.03-.019-.016-.01-.018-.011a2.875 2.875 0 0 1-1.324-2.426c0-.797.323-1.518.844-2.039a2.875 2.875 0 0 1 2.505-.808 29.615 29.615 0 0 0 1.642 2.801l.404.616.161.006.038.415a2.87 2.87 0 0 1-.67 1.047 2.876 2.876 0 0 1-2.041.846zm-.384 14.843a2.883 2.883 0 0 1-2.042-.842 2.886 2.886 0 0 1-.837-1.875l.013-.389-.001-.094a2.87 2.87 0 0 1 .828-1.724 2.873 2.873 0 0 1 2.039-.845c.796 0 1.518.323 2.039.845.522.521.845 1.243.845 2.039s-.323 1.518-.845 2.039a2.872 2.872 0 0 1-2.039.846zM20.217 50c1.59 0 3.029-.646 4.071-1.687a5.736 5.736 0 0 0 1.686-4.07 5.77 5.77 0 0 0-.312-1.872 5.738 5.738 0 0 0 3.066-1.599 5.74 5.74 0 0 0 1.687-4.071c0-.564-.081-1.11-.233-1.625a5.748 5.748 0 0 0 3.079-1.601 5.744 5.744 0 0 0 1.686-4.071c0-.579-.085-1.137-.244-1.664a5.74 5.74 0 0 0 2.831-1.552 5.738 5.738 0 0 0 1.686-4.071c0-.338-.029-.67-.085-.992a20.356 20.356 0 0 0 3.15-.354c1.714-.338 3.3-.917 4.727-1.794l.765-.471-.092-.899c-.172-1.666-.676-3.28-1.447-4.85a21.563 21.563 0 0 0-2.195-3.506l.184-.351a3.161 3.161 0 0 0 .253-1.745l-.05-.391-.252-.315c-.743-.929-1.521-1.78-2.356-2.494a11.13 11.13 0 0 0-1.92-1.337l-.047-.404a3.48 3.48 0 0 0-.773-1.64L38.608 0l-.728.051c-3.458.243-6.297.924-8.287 2.2-1.764 1.132-2.867 2.673-3.169 4.713-1.693-.092-3.592.173-5.397.761-1.463.477-2.883 1.171-4.107 2.065a26.058 26.058 0 0 1-.458-2.015c3.256-1.166 5.34-2.608 8.18-4.316-.302-1.249-1.469-2.227-2.6-2.582-4.666 5.176-10.098 6.689-16.856 4.574-.641.778-.761 3.27-.682 4.108 3.449-.076 6.398-.292 9.195-.959.766 3.862 1.625 5.127 2.797 6.851l.308.455-.447-.017c-1.59 0-3.029.644-4.07 1.686l-.007.007a1.544 1.544 0 0 0-.23-.291 5.743 5.743 0 0 0-4.071-1.686 5.74 5.74 0 0 0-4.07 1.686 5.738 5.738 0 0 0-1.686 4.071c0 1.59.644 3.029 1.686 4.07a5.75 5.75 0 0 0 2.649 1.509 5.737 5.737 0 0 0-.367 2.02c0 1.59.645 3.029 1.687 4.07a5.752 5.752 0 0 0 2.731 1.53 5.742 5.742 0 0 0-.327 1.917c0 1.59.644 3.029 1.686 4.07a5.746 5.746 0 0 0 2.902 1.568 5.728 5.728 0 0 0-.407 2.125c0 1.59.645 3.03 1.686 4.07A5.726 5.726 0 0 0 20.217 50z" fill-rule="evenodd"/></svg>