<svg width="44" height="44" viewBox="0 0 44 44" fill="none" xmlns="http://www.w3.org/2000/svg"><circle cx="22" cy="22" r="22" fill="#fff"/><path d="M22 18.406c-2 0-3.594 1.625-3.594 3.594 0 2 1.594 3.594 3.594 3.594A3.594 3.594 0 0 0 25.594 22c0-1.969-1.625-3.594-3.594-3.594Zm0 5.938A2.34 2.34 0 0 1 19.656 22c0-1.281 1.032-2.313 2.344-2.313A2.307 2.307 0 0 1 24.313 22c0 1.313-1.032 2.344-2.313 2.344Zm4.563-6.063a.84.84 0 0 0-.844-.843.84.84 0 0 0-.844.843.84.84 0 0 0 .844.844.84.84 0 0 0 .843-.844Zm2.375.844C28.875 18 28.625 17 27.813 16.187 27 15.376 26 15.126 24.875 15.063c-1.156-.062-4.625-.062-5.781 0-1.125.063-2.094.313-2.938 1.126-.812.812-1.062 1.812-1.125 2.937-.062 1.156-.062 4.625 0 5.781.063 1.125.313 2.094 1.125 2.938.844.812 1.813 1.062 2.938 1.125 1.156.062 4.625.062 5.781 0 1.125-.063 2.125-.313 2.938-1.125.812-.844 1.062-1.813 1.125-2.938.062-1.156.062-4.625 0-5.781Zm-1.5 7c-.22.625-.72 1.094-1.313 1.344-.938.375-3.125.281-4.125.281-1.031 0-3.219.094-4.125-.281a2.37 2.37 0 0 1-1.344-1.344c-.375-.906-.281-3.094-.281-4.125 0-1-.094-3.188.281-4.125a2.41 2.41 0 0 1 1.344-1.313c.906-.375 3.094-.28 4.125-.28 1 0 3.188-.095 4.125.28.594.22 1.063.72 1.313 1.313.375.938.28 3.125.28 4.125 0 1.031.095 3.219-.28 4.125Z" fill="#5F8AD4"/></svg>