<svg width="12" height="16" viewBox="0 0 12 16" fill="none" xmlns="http://www.w3.org/2000/svg"><path d="M6.063 0a5.71 5.71 0 0 0-2.344.5c-.74.323-1.38.76-1.922 1.313A6.362 6.362 0 0 0 .484 3.75 5.867 5.867 0 0 0 0 6.094c0 .458.063.937.188 1.437.124.5.27.964.437 1.39.167.428.406.902.719 1.423.312.52.588.963.828 1.328.25.354.583.791 1 1.312.417.51.74.901.969 1.172.229.271.552.646.968 1.125.125.146.22.25.282.313.02.031.057.068.109.11.052.051.146.114.281.187a.837.837 0 0 0 .39.109h.048c.291 0 .552-.135.781-.406 3.333-3.834 5-7 5-9.5 0-1.74-.531-3.183-1.594-4.328C9.302.589 7.854 0 6.062 0Zm.187 14.922a.178.178 0 0 1-.063.062l-.062-.062-.266-.297a234.69 234.69 0 0 0-.921-1.063 69.37 69.37 0 0 1-.922-1.124c-.396-.49-.709-.902-.938-1.235a58.61 58.61 0 0 1-.797-1.234 10.48 10.48 0 0 1-.703-1.313 10.601 10.601 0 0 1-.406-1.265A5.356 5.356 0 0 1 1 6.094c0-.907.23-1.75.688-2.532A5.134 5.134 0 0 1 3.53 1.688 4.916 4.916 0 0 1 6.062 1c.823 0 1.558.146 2.204.438.645.28 1.161.666 1.546 1.156a5.16 5.16 0 0 1 .891 1.625A5.89 5.89 0 0 1 11 6.094c0 2.25-1.583 5.192-4.75 8.828ZM6.016 3.016c-.323 0-.641.052-.954.156a3.111 3.111 0 0 0-1.906 1.906c-.094.302-.14.615-.14.938 0 .833.291 1.541.875 2.125a2.927 2.927 0 0 0 2.125.875c.833 0 1.541-.292 2.125-.875a2.893 2.893 0 0 0 .875-2.125c0-.407-.079-.792-.235-1.157a2.793 2.793 0 0 0-.64-.953 2.966 2.966 0 0 0-.97-.64 2.749 2.749 0 0 0-1.155-.25Zm0 5a1.94 1.94 0 0 1-1.422-.594A1.94 1.94 0 0 1 4 6c0-.552.193-1.02.578-1.406A1.94 1.94 0 0 1 6 4c.552 0 1.02.198 1.406.594C7.802 4.979 8 5.448 8 6c0 .688-.276 1.234-.828 1.64-.344.25-.73.376-1.156.376Z" fill="#7828E6"/></svg>