<svg width="16" height="16" viewBox="0 0 16 16" fill="none" xmlns="http://www.w3.org/2000/svg"><path d="M8 1c.406 0 .823.083 1.25.25a4.1 4.1 0 0 1 1.14.61c.323.239.59.51.797.812.209.292.313.568.313.828V6c0 .594-.125 1.255-.375 1.984-.25.73-.62 1.282-1.11 1.657a1.105 1.105 0 0 0-.218.265 1.02 1.02 0 0 0-.14.313 1.14 1.14 0 0 0-.016.328c.052.375.244.64.578.797l4.36 2.062.03.016a.14.14 0 0 1 .063.015c.02.01.047.027.078.047a.28.28 0 0 1 .078.079c.031.02.057.052.078.093a.354.354 0 0 1 .063.156c.01.063.015.13.015.204v.968L1 15v-1.016c0-.26.14-.453.422-.578l4.39-2.078a.929.929 0 0 0 .563-.781c.052-.375-.068-.677-.36-.906-.479-.386-.854-.943-1.124-1.672C4.63 7.229 4.5 6.573 4.5 6V3.5c0-.344.172-.708.516-1.094.343-.396.791-.729 1.343-1C6.911 1.136 7.46 1 8 1Zm0-1c-.719 0-1.432.177-2.14.531-.699.344-1.266.792-1.704 1.344C3.72 2.417 3.5 2.958 3.5 3.5V6c0 .677.156 1.458.469 2.344.323.875.797 1.567 1.422 2.078L1 12.5a.846.846 0 0 0-.11.047c-.041.02-.12.068-.234.14a4.058 4.058 0 0 0-.312.22 1.293 1.293 0 0 0-.235.28.524.524 0 0 0-.109.297V15c0 .27.094.5.281.688a.98.98 0 0 0 .719.296h14c.27 0 .5-.099.688-.296a.91.91 0 0 0 .296-.688v-1.516a.542.542 0 0 0-.109-.312.813.813 0 0 0-.25-.281 2.587 2.587 0 0 0-.281-.22 1.61 1.61 0 0 0-.25-.14L15 12.5l-4.36-2.078c.626-.49 1.09-1.167 1.391-2.031.313-.865.469-1.662.469-2.391V3.5c0-.406-.135-.818-.406-1.234a4.376 4.376 0 0 0-1.016-1.141A5.302 5.302 0 0 0 9.625.312 4.583 4.583 0 0 0 8 0Z" fill="#7828E6"/></svg>