<svg width="44" height="44" viewBox="0 0 44 44" fill="none" xmlns="http://www.w3.org/2000/svg"><circle cx="22" cy="22" r="22" fill="#fff"/><path d="M22.375 14.219c-3.219 0-6.375 2.125-6.375 5.594 0 2.187 1.219 3.437 1.969 3.437.312 0 .5-.844.5-1.094 0-.281-.75-.906-.75-2.125 0-2.5 1.906-4.281 4.375-4.281 2.156 0 3.718 1.219 3.718 3.438 0 1.656-.656 4.75-2.812 4.75-.781 0-1.469-.563-1.469-1.344 0-1.188.844-2.344.844-3.563 0-2.062-2.938-1.687-2.938.813 0 .531.063 1.093.313 1.593-.438 1.844-1.313 4.625-1.313 6.532 0 .593.063 1.156.125 1.75.094.125.063.125.22.062 1.562-2.156 1.53-2.593 2.218-5.406.406.719 1.375 1.125 2.188 1.125C26.5 25.5 28 22.25 28 19.344c0-3.094-2.688-5.125-5.625-5.125Z" fill="#5F8AD4"/></svg>