<svg width="14" height="14" viewBox="0 0 14 14" fill="none" xmlns="http://www.w3.org/2000/svg"><g clip-path="url(#a)"><path fill-rule="evenodd" clip-rule="evenodd" d="M6.306 14.115c0 .495.364.885.858.885s.884-.39.884-.885V9.358h4.758a.85.85 0 0 0 .858-.858.872.872 0 0 0-.858-.885H8.048V2.857A.87.87 0 0 0 7.164 2a.848.848 0 0 0-.858.857v4.758H1.548a.878.878 0 0 0-.884.885c0 .493.39.858.884.858h4.758v4.757Z" fill="#fff"/></g><defs><clipPath id="a"><path fill="#fff" d="M0 0h14v14H0z"/></clipPath></defs></svg>