<svg width="18" height="16" viewBox="0 0 18 16" fill="none" xmlns="http://www.w3.org/2000/svg"><path d="m9.016 1.203 2.14 4.469 4.89.719-3.53 3.53.109.704.719 4.219-4.328-2.313-4.329 2.313.72-4.219.109-.703L1.984 6.39l4.875-.72.329-.67 1.828-3.797Zm0-.953c-.23 0-.438.057-.625.172a1.08 1.08 0 0 0-.422.469L6.156 4.656l-4.172.61a1.148 1.148 0 0 0-.562.25 1.132 1.132 0 0 0-.36.515c-.145.427-.052.808.282 1.14L4.39 10.22l-.704 4.234a1.02 1.02 0 0 0 .063.61c.094.197.23.359.406.484l.094.062a.767.767 0 0 0 .11.047.846.846 0 0 0 .218.078c.042.01.083.016.125.016h.125c.198 0 .38-.047.547-.14l3.64-1.954 3.626 1.953c.093.053.187.089.28.11.095.02.188.031.282.031.25 0 .474-.068.672-.203.177-.125.307-.287.39-.485a.953.953 0 0 0 .079-.609l-.703-4.234 3.046-3.047c.334-.333.428-.714.282-1.14a1.134 1.134 0 0 0-.36-.516 1.148 1.148 0 0 0-.562-.25l-4.172-.61L10.062.891A.611.611 0 0 0 9.985.75a1.174 1.174 0 0 0-.109-.125.544.544 0 0 0-.11-.11.416.416 0 0 0-.14-.093.612.612 0 0 0-.14-.078.558.558 0 0 0-.141-.047.459.459 0 0 0-.172-.031.795.795 0 0 0-.156-.016Z" fill="#CDB010"/></svg>