<svg width="44" height="44" viewBox="0 0 44 44" fill="none" xmlns="http://www.w3.org/2000/svg"><circle cx="22" cy="22" r="22" fill="#E63A28"/><path d="M28.344 18.75a6.952 6.952 0 0 0 1.625-1.688 6.151 6.151 0 0 1-1.875.5 3.206 3.206 0 0 0 1.437-1.812 6.932 6.932 0 0 1-2.062.813 3.281 3.281 0 0 0-2.407-1.032 3.28 3.28 0 0 0-3.28 3.281c0 .25.03.5.093.75a9.52 9.52 0 0 1-6.781-3.437 3.191 3.191 0 0 0-.438 1.656 3.23 3.23 0 0 0 1.469 2.719c-.531-.031-1.063-.156-1.5-.406v.031a3.285 3.285 0 0 0 2.625 3.219c-.25.062-.563.125-.844.125-.218 0-.406-.032-.625-.063a3.265 3.265 0 0 0 3.063 2.282 6.597 6.597 0 0 1-4.063 1.406c-.281 0-.531-.032-.781-.063 1.438.938 3.156 1.469 5.031 1.469 6.032 0 9.313-4.969 9.313-9.313v-.437Z" fill="#fff"/></svg>