<svg width="126" height="31" viewBox="0 0 126 31" fill="none" xmlns="http://www.w3.org/2000/svg"><path fill-rule="evenodd" clip-rule="evenodd" d="M121.541 15.268c-2.169-3.392-3.823-7.214-6.118-10.473a39.65 39.65 0 0 0-1.116-.093c-1.725 3.22 1.219 6.443 2.343 9.26-6.055-2.573-11.659-6.696-18.03-8.134-.285 1.54-.617 3.57.705 4.593 2.073 1.194 4.479 1.456 6.434 2.969 2.517 2.047 5.509 2.985 8.073 4.93-2.074.056-4.147-.131-6.213.066-1.733.77-1.322 3.897.04 4.884 2.635.403 5.31.104 7.954.31 3.332 0 6.743 1.916 9.901-.14-.412-3.25-2.525-5.543-3.973-8.173ZM73.982 1.066c-1.1 1.606.214 4.31 1.931 4.132 2.944.29 5.928.32 8.817 1.136 1.702.263 4.211 1.757 5.002-.995-.593-2.348-2.968-2.358-4.598-3.006C81.485 1.517 77.67.39 73.982 1.067Zm-15.307.647c-3.56.01-7.226.15-10.55 1.804.411 1.249.65 2.77 1.773 3.427 3.19-.224 6.316-1.191 9.521-1.155 2.13-.177 5.057.837 5.944-2.329-1.86-1.888-4.4-1.653-6.688-1.747ZM30.975 7.5c-2.898 1.202-6 2.029-8.414 4.396.514 1.146 1.116 3.38 2.611 2.602 3.958-1.963 8.042-3.504 12.157-4.922 1.472-.292 1.472-3.137-.03-3.542-2.178-.169-4.275.743-6.325 1.466ZM10.53 17.83C6.7 20.18 2.252 22.762.63 27.842c-.705 2.02 2.025 3.307 2.872 1.504 2.572-4.133 6.593-6.218 9.981-9.176 1.67-2.264-1.56-3.805-2.953-2.34Z" fill="#7828E6"/></svg>