<svg width="58" height="114" viewBox="0 0 58 114" fill="none" xmlns="http://www.w3.org/2000/svg"><path fill-rule="evenodd" clip-rule="evenodd" d="M8.115 113.274c3.56-.596 7.21-.565 10.73-1.324.149-.235.443-.715.584-.954-1.638-2.794-5.428-1.444-8.074-1.551 4.733-4.365 10.43-7.722 14.451-12.813-1.032-.857-2.412-1.947-3.794-1.175-1.857 1.371-3.163 3.404-5.207 4.546-2.706 1.431-4.793 3.718-7.444 5.232.913-1.863 2.01-3.629 2.813-5.54.217-1.84-2.335-2.702-3.708-1.88-1.518 2.18-2.524 4.672-3.898 6.938-1.535 2.957-4.554 5.233-4.456 8.842 2.645.909 5.35-.067 8.003-.321Zm32.64-36.642c-.707-1.606-3.355-1.5-4.012.093-1.575 2.5-2.972 5.136-4.92 7.38-.983 1.407-3.267 3.049-1.553 4.83 2.046.394 3.149-1.71 4.389-2.902 2.299-2.918 4.907-5.862 6.096-9.401Zm6.563-13.84c1.634-3.164 3.216-6.472 3.499-10.07-1.133-.125-2.392-.51-3.406.23-1.3 2.918-2.01 6.072-3.515 8.903-.846 1.959-2.962 4.16-.98 6.188 2.284-.91 3.277-3.257 4.402-5.25Zm8.393-26.854c.427-3.042 1.231-6.12.555-9.19-1.102.006-3.068-.336-3.168 1.297-.34 4.282-1.059 8.511-1.883 12.72-.459 1.42 1.691 2.536 2.689 1.36 1.13-1.865 1.408-4.084 1.807-6.187Zm1.615-22.196c-.01-4.32.09-9.28-3-12.713-1.202-1.417-3.431.501-2.46 1.96 1.937 3.904 1.659 8.29 2.333 12.457.94 2.37 3.592.107 3.127-1.704Z" fill="#7828E6"/></svg>