<svg width="44" height="44" viewBox="0 0 44 44" fill="none" xmlns="http://www.w3.org/2000/svg"><circle cx="22" cy="22" r="22" fill="#E63A28"/><path d="M30.156 17.906a2.125 2.125 0 0 0-1.5-1.531C27.313 16 22 16 22 16s-5.344 0-6.688.375a2.126 2.126 0 0 0-1.5 1.531c-.374 1.313-.374 4.125-.374 4.125s0 2.782.374 4.125c.188.75.782 1.313 1.5 1.5C16.657 28 22 28 22 28s5.313 0 6.656-.344a2.084 2.084 0 0 0 1.5-1.5c.375-1.343.375-4.125.375-4.125s0-2.812-.375-4.125Zm-9.906 6.657V19.5l4.438 2.531-4.438 2.532Z" fill="#fff"/></svg>