<svg xmlns="http://www.w3.org/2000/svg" xmlns:xlink="http://www.w3.org/1999/xlink" style="width: 0; height: 0; visibility: hidden; position: absolute;" aria-hidden="true"><symbol  viewBox='0 0 24 24' id='arrow-down'>
    <path d="M18.427 16.935a1.5 1.5 0 0 0-2.121 0l-2.781 2.779L13.5 1.5A1.5 1.5 0 0 0 12 0a1.5 1.5 0 0 0-1.5 1.5l.023 18.2-2.763-2.765a1.5 1.5 0 0 0-2.121 2.121l3.919 3.919a3.5 3.5 0 0 0 4.949 0l3.92-3.919a1.5 1.5 0 0 0 0-2.121Z"></path>
  </symbol><symbol  id='book'>
    <path d="M28 19.3v-2.4q1.65-.7 3.375-1.05Q33.1 15.5 35 15.5q1.3 0 2.55.2 1.25.2 2.45.5v2.2q-1.2-.45-2.425-.675Q36.35 17.5 35 17.5q-1.9 0-3.65.475T28 19.3Zm0 11v-2.45q1.65-.7 3.375-1.025Q33.1 26.5 35 26.5q1.3 0 2.55.2 1.25.2 2.45.5v2.2q-1.2-.45-2.425-.675Q36.35 28.5 35 28.5q-1.9 0-3.65.45T28 30.3Zm0-5.5v-2.4q1.65-.7 3.375-1.05Q33.1 21 35 21q1.3 0 2.55.2 1.25.2 2.45.5v2.2q-1.2-.45-2.425-.675Q36.35 23 35 23q-1.9 0-3.65.475T28 24.8ZM12.4 33q2.7 0 5.225.625 2.525.625 4.975 1.875V14.15q-2.25-1.5-4.875-2.325Q15.1 11 12.4 11q-1.9 0-3.725.475Q6.85 11.95 5 12.65v21.7q1.55-.7 3.525-1.025Q10.5 33 12.4 33Zm13.2 2.5q2.5-1.25 4.9-1.875Q32.9 33 35.6 33q1.9 0 3.925.3t3.475.8V12.65q-1.7-.85-3.6-1.25-1.9-.4-3.8-.4-2.7 0-5.225.825-2.525.825-4.775 2.325ZM24.1 40q-2.55-1.9-5.55-2.925T12.4 36.05q-1.85 0-3.6.45t-3.5 1.1q-1.15.55-2.225-.15Q2 36.75 2 35.45V12.3q0-.75.35-1.375T3.4 9.95q2.1-1 4.375-1.475Q10.05 8 12.4 8q3.15 0 6.125.85t5.575 2.6q2.55-1.75 5.475-2.6Q32.5 8 35.6 8q2.35 0 4.6.475 2.25.475 4.35 1.475.7.35 1.075.975T46 12.3v23.15q0 1.4-1.125 2.125-1.125.725-2.225.025-1.7-.7-3.45-1.125-1.75-.425-3.6-.425-3.15 0-6.05 1.05T24.1 40ZM13.8 23.55Z"></path>
  </symbol><symbol  viewBox='0 0 24 24' id='envelope'>
    <g fill="#fff"><path d="m23.954 5.542-8.418 8.418a5.007 5.007 0 0 1-7.072 0L.046 5.542C.032 5.7 0 5.843 0 6v12a5.006 5.006 0 0 0 5 5h14a5.006 5.006 0 0 0 5-5V6c0-.157-.032-.3-.046-.458Z" data-original="#000000"></path><path d="m14.122 12.546 9.134-9.135A4.986 4.986 0 0 0 19 1H5A4.986 4.986 0 0 0 .744 3.411l9.134 9.135a3.007 3.007 0 0 0 4.244 0Z" data-original="#000000"></path></g>
  </symbol><symbol  viewBox='0 0 320 512' id='facebook'>
    <!--! Font Awesome Pro 6.2.0 by @fontawesome - https://fontawesome.com License - https://fontawesome.com/license (Commercial License) Copyright 2022 Fonticons, Inc.--><path d="m279.14 288 14.22-92.66h-88.91v-60.13c0-25.35 12.42-50.06 52.24-50.06h40.42V6.26S260.43 0 225.36 0c-73.22 0-121.08 44.38-121.08 124.72v70.62H22.89V288h81.39v224h100.17V288z"></path>
  </symbol><symbol  id='food'>
    <path d="M40.25 34.95q1.35.7 2.275-.45.925-1.15.225-2.4l-3.55-6.7-2.7 7.35Zm-10.6-2.1h3.5L38 20.75q.3-.7.225-1.375-.075-.675-.825-1.025l-4.15-1.8q-.7-.35-1.4 0t-.75 1.05Zm-14.8 0h3.45L16.9 17.6q-.05-.75-.675-1.1-.625-.35-1.475.05l-3.95 1.7q-.65.25-.725 1.125-.075.875.175 1.575Zm-7.1 2.1 3.75-2.2-2.7-7.35-3.55 6.95q-.7 1.4.3 2.275t2.2.325Zm13.55-2.1h5.35l1.65-18.2q.1-.7-.375-1.175Q27.45 13 26.75 13h-5.5q-.8 0-1.2.475-.4.475-.35 1.175ZM6.65 38q-1.95 0-3.3-1.4Q2 35.2 2 33.25q0-.6.225-1.175.225-.575.475-1.125L7.3 22q-.75-1.95-.15-3.875t2.4-2.725l4.15-1.7q.8-.3 1.625-.35.825-.05 1.525.4.4-1.6 1.6-2.675Q19.65 10 21.25 10h5.5q1.6 0 2.8 1 1.2 1 1.6 2.55.75-.3 1.55-.25.8.05 1.55.4l4.2 1.7q1.85.7 2.475 2.6.625 1.9-.225 3.7l4.6 9.2q.2.55.45 1.075.25.525.25 1.075 0 2.1-1.5 3.525Q43 38 40.9 38q-.55 0-1.025-.225-.475-.225-.975-.425l-3.05-1.5H12.1l-2.9 1.5q-.6.25-1.225.45-.625.2-1.325.2ZM24 24Z"></path>
  </symbol><symbol  viewBox='0 0 24 24' id='geo'>
    <path d="M12 .042a9.992 9.992 0 0 0-9.981 9.98c0 2.57 1.99 6.592 5.915 11.954a5.034 5.034 0 0 0 8.132 0c3.925-5.362 5.915-9.384 5.915-11.954A9.992 9.992 0 0 0 12 .042ZM12 14a4 4 0 1 1 4-4 4 4 0 0 1-4 4Z" fill="#fff" data-original="#000000"></path>
  </symbol><symbol  viewBox='0 0 24 24' id='instagram'>
    <g fill="#fff"><path d="M12 2.162c3.204 0 3.584.012 4.849.07 1.308.06 2.655.358 3.608 1.311.962.962 1.251 2.296 1.311 3.608.058 1.265.07 1.645.07 4.849s-.012 3.584-.07 4.849c-.059 1.301-.364 2.661-1.311 3.608-.962.962-2.295 1.251-3.608 1.311-1.265.058-1.645.07-4.849.07s-3.584-.012-4.849-.07c-1.291-.059-2.669-.371-3.608-1.311-.957-.957-1.251-2.304-1.311-3.608-.058-1.265-.07-1.645-.07-4.849s.012-3.584.07-4.849c.059-1.296.367-2.664 1.311-3.608.96-.96 2.299-1.251 3.608-1.311 1.265-.058 1.645-.07 4.849-.07M12 0C8.741 0 8.332.014 7.052.072 5.197.157 3.355.673 2.014 2.014.668 3.36.157 5.198.072 7.052.014 8.332 0 8.741 0 12c0 3.259.014 3.668.072 4.948.085 1.853.603 3.7 1.942 5.038 1.345 1.345 3.186 1.857 5.038 1.942C8.332 23.986 8.741 24 12 24c3.259 0 3.668-.014 4.948-.072 1.854-.085 3.698-.602 5.038-1.942 1.347-1.347 1.857-3.184 1.942-5.038.058-1.28.072-1.689.072-4.948 0-3.259-.014-3.668-.072-4.948-.085-1.855-.602-3.698-1.942-5.038C20.643.671 18.797.156 16.948.072 15.668.014 15.259 0 12 0z" data-original="#000000"></path><path d="M12 5.838a6.162 6.162 0 1 0 0 12.324 6.162 6.162 0 0 0 0-12.324zM12 16a4 4 0 1 1 0-8 4 4 0 0 1 0 8z" data-original="#000000"></path><circle cx="18.406" cy="5.594" r="1.44" data-original="#000000"></circle></g>
  </symbol><symbol  viewBox='0 0 490.667 490.667' id='menu-burger'>
    <path d="M469.333 224h-448C9.551 224 0 233.551 0 245.333c0 11.782 9.551 21.333 21.333 21.333h448c11.782 0 21.333-9.551 21.333-21.333.001-11.782-9.551-21.333-21.333-21.333zm-448-106.667h448c11.782 0 21.333-9.551 21.333-21.333s-9.551-21.333-21.333-21.333h-448C9.551 74.667 0 84.218 0 96s9.551 21.333 21.333 21.333zm448 256h-448C9.551 373.333 0 382.885 0 394.667S9.551 416 21.333 416h448c11.782 0 21.333-9.551 21.333-21.333.001-11.782-9.551-21.334-21.333-21.334z"></path>
  </symbol><symbol  viewBox='0 0 24 24' id='phone-call'>
    <path d="M23 11a1 1 0 0 1-1-1 8.008 8.008 0 0 0-8-8 1 1 0 0 1 0-2 10.011 10.011 0 0 1 10 10 1 1 0 0 1-1 1Zm-3-1a6 6 0 0 0-6-6 1 1 0 1 0 0 2 4 4 0 0 1 4 4 1 1 0 0 0 2 0Zm2.183 12.164.91-1.049a3.1 3.1 0 0 0 0-4.377c-.031-.031-2.437-1.882-2.437-1.882a3.1 3.1 0 0 0-4.281.006l-1.906 1.606a12.784 12.784 0 0 1-6.932-6.944l1.6-1.9a3.1 3.1 0 0 0 .007-4.282S7.291.939 7.26.908A3.082 3.082 0 0 0 2.934.862l-1.15 1C-5.01 9.744 9.62 24.261 17.762 24a6.155 6.155 0 0 0 4.421-1.836Z" fill="#fff" data-original="#000000"></path>
  </symbol><symbol  id='play'>
    <path d="M40.3 19.05q-1.45-4.85-5.425-8.175Q30.9 7.55 25.5 7.05v3.45ZM14.85 27.4l7.65-4.5V7.05q-2.05.25-3.975.85-1.925.6-3.675 1.75Zm-6.3 3.75 3.3-1.95V12.05q-2.35 2.4-3.6 5.525Q7 20.7 7 24q0 1.95.4 3.675.4 1.725 1.15 3.475Zm7.65 8 15.65-9.05L24 25.5l-14 8.25q1.2 1.65 2.775 3.075Q14.35 38.25 16.2 39.15ZM24 41q4.3 0 7.95-1.925Q35.6 37.15 38 33.75l-3.25-1.9L19.9 40.5q1 .25 2.05.375Q23 41 24 41Zm15.45-9.9q.9-1.9 1.25-3.85.35-1.95.3-4.15l-15.5-9.05v8.85ZM24 24Zm0 20q-4.15 0-7.8-1.575-3.65-1.575-6.35-4.275-2.7-2.7-4.275-6.35Q4 28.15 4 24t1.575-7.8Q7.15 12.55 9.85 9.85q2.7-2.7 6.35-4.275Q19.85 4 24 4t7.8 1.575q3.65 1.575 6.35 4.275 2.7 2.7 4.275 6.35Q44 19.85 44 24t-1.575 7.8q-1.575 3.65-4.275 6.35-2.7 2.7-6.35 4.275Q28.15 44 24 44Z"></path>
  </symbol><symbol  id='rooms'>
    <path d="M10 40V24H4L24 6l10 8.85V9h4v9.55L44 24h-6v16H26.5V28h-5v12Zm3-3h5.5V25h11v12H35V19.95l-11-10-11 10Zm5.5-12h11-11Zm1.25-5.5h8.5q0-1.65-1.275-2.725Q25.7 15.7 24 15.7q-1.7 0-2.975 1.075Q19.75 17.85 19.75 19.5Z"></path>
  </symbol><symbol  id='safe'>
    <path d="M11 44q-1.25 0-2.125-.875T8 41V19.3q0-1.25.875-2.125T11 16.3h3.5v-4.8q0-3.95 2.775-6.725Q20.05 2 24 2q3.95 0 6.725 2.775Q33.5 7.55 33.5 11.5v4.8H37q1.25 0 2.125.875T40 19.3V41q0 1.25-.875 2.125T37 44Zm0-3h26V19.3H11V41Zm13-7q1.6 0 2.725-1.1t1.125-2.65q0-1.5-1.125-2.725T24 26.3q-1.6 0-2.725 1.225T20.15 30.25q0 1.55 1.125 2.65Q22.4 34 24 34Zm-6.5-17.7h13v-4.8q0-2.7-1.9-4.6Q26.7 5 24 5q-2.7 0-4.6 1.9-1.9 1.9-1.9 4.6ZM11 41V19.3 41Z"></path>
  </symbol><symbol  viewBox='0 0 24 24' id='search'>
    <path d="m24 22.586-6.262-6.262a10.016 10.016 0 1 0-1.414 1.414L22.586 24ZM10 18a8 8 0 1 1 8-8 8.009 8.009 0 0 1-8 8Z" data-name="01 align center"></path>
  </symbol><symbol  viewBox='0 0 24 24' id='shopping-cart'>
    <path d="M22.713 4.077A2.993 2.993 0 0 0 20.41 3H4.242L4.2 2.649A3 3 0 0 0 1.222 0H1a1 1 0 0 0 0 2h.222a1 1 0 0 1 .993.883l1.376 11.7A5 5 0 0 0 8.557 19H19a1 1 0 0 0 0-2H8.557a3 3 0 0 1-2.82-2h11.92a5 5 0 0 0 4.921-4.113l.785-4.354a2.994 2.994 0 0 0-.65-2.456ZM21.4 6.178l-.786 4.354A3 3 0 0 1 17.657 13H5.419l-.941-8H20.41a1 1 0 0 1 .99 1.178Z"></path><circle cx="7" cy="22" r="2"></circle><circle cx="17" cy="22" r="2"></circle>
  </symbol><symbol  id='toys'>
    <path d="M13.8 40q-2.25 0-3.975-1.675T7.95 34.25Q6.1 33.1 5.075 31.325T4.05 27.45q0-2.6 1.525-4.675Q7.1 20.7 9.6 20.15L5.55 15.9l-.95 1q-.45.5-1.075.5t-1.075-.5Q2 16.45 2 15.85q0-.6.45-1.1l4.05-4.2q.45-.45 1.075-.45t1.075.45q.45.5.45 1.1 0 .6-.45 1.05l-.95 1.05 3.6 3.85 1.95-5.85q.55-1.65 1.925-2.7Q16.55 8 18.25 8h11.6q1.7 0 3.1 1.05 1.4 1.05 1.9 2.7l2.5 8.3q2.85.25 4.75 2.325T44 27.45q0 2.1-1.025 3.875T40.1 34.25q-.15 2.4-1.875 4.075Q36.5 40 34.25 40q-2.1 0-3.675-1.45Q29 37.1 28.6 35h-9.15q-.4 2.1-1.975 3.55Q15.9 40 13.8 40Zm-.1-20.05h8.75V11h-4.2q-.75 0-1.3.475t-.8 1.175Zm11.75 0h8.75l-2.25-7.3q-.25-.7-.8-1.175Q30.6 11 29.85 11h-4.4Zm-6 12.05h9.15q.55-1.8 2.15-2.9 1.6-1.1 3.5-1.1 1.6 0 2.95.85t2.2 2.2q.85-.65 1.225-1.625Q41 28.45 41 27.45q0-1.9-1.3-3.2-1.3-1.3-3.2-1.3H11.55q-1.9 0-3.2 1.3-1.3 1.3-1.3 3.2 0 1 .4 1.975.4.975 1.2 1.625.8-1.45 2.175-2.25Q12.2 28 13.8 28q1.9 0 3.5 1.1t2.15 2.9Zm-5.65 5q1.3 0 2.15-.875.85-.875.85-2.125 0-1.3-.85-2.15Q15.1 31 13.8 31q-1.25 0-2.125.85T10.8 34q0 1.25.875 2.125T13.8 37Zm20.45 0q1.3 0 2.15-.875.85-.875.85-2.125 0-1.3-.85-2.15-.85-.85-2.15-.85-1.25 0-2.125.85T31.25 34q0 1.25.875 2.125T34.25 37Zm-10.2-9.55Z"></path>
  </symbol><symbol  viewBox='0 0 24 24' id='twitter'>
    <path d="M21.543 7.104c.014.211.014.423.014.636 0 6.507-4.954 14.01-14.01 14.01v-.004A13.936 13.936 0 0 1 0 19.539a9.881 9.881 0 0 0 7.287-2.041 4.93 4.93 0 0 1-4.6-3.42 4.926 4.926 0 0 0 2.223-.084A4.924 4.924 0 0 1 .96 9.167v-.062a4.88 4.88 0 0 0 2.235.616A4.927 4.927 0 0 1 1.67 3.148a13.982 13.982 0 0 0 10.148 5.145 4.929 4.929 0 0 1 8.391-4.491 9.873 9.873 0 0 0 3.127-1.195 4.947 4.947 0 0 1-2.165 2.724A9.89 9.89 0 0 0 24 4.555a10.008 10.008 0 0 1-2.457 2.549z" fill="#fff" data-original="#000000"></path>
  </symbol><symbol  viewBox='0 0 24 24' id='user'>
    <path d="M12 12a6 6 0 1 0-6-6 6.006 6.006 0 0 0 6 6Zm0-10a4 4 0 1 1-4 4 4 4 0 0 1 4-4Zm0 12a9.01 9.01 0 0 0-9 9 1 1 0 0 0 2 0 7 7 0 0 1 14 0 1 1 0 0 0 2 0 9.01 9.01 0 0 0-9-9Z"></path>
  </symbol><symbol  viewBox='0 0 6480 68' id='waves' preserveAspectRatio='none'>
    <path class="elementor-shape-fill" d="M3599.8 0h-1920v68s70.8-38 120-38 70.8 38 120 38 70.8-38 120-38 70.8 38 120 38 70.8-38 120-38 70.8 38 120 38 70.8-38 120-38 70.8 38 120 38 70.8-38 120-38 70.8 38 120 38 70.8-38 120-38 70.8 38 120 38 70.8-38 120-38 70.8 38 120 38 70.8-38 120-38 120 38 120 38V0z" fill="#fff"></path><path class="elementor-shape-fill" d="M3599.8 0h-1920v68s70.8-38 120-38 70.8 38 120 38 70.8-38 120-38 70.8 38 120 38 70.8-38 120-38 70.8 38 120 38 70.8-38 120-38 70.8 38 120 38 70.8-38 120-38 70.8 38 120 38 70.8-38 120-38 70.8 38 120 38 70.8-38 120-38 70.8 38 120 38 70.8-38 120-38 120 38 120 38V0z" fill="#fff"></path><path class="elementor-shape-fill" d="M5280.3 0h-1920v68s70.8-38 120-38 70.8 38 120 38 70.8-38 120-38 70.8 38 120 38 70.8-38 120-38 70.8 38 120 38 70.8-38 120-38 70.8 38 120 38 70.8-38 120-38 70.8 38 120 38 70.8-38 120-38 70.8 38 120 38 70.8-38 120-38 70.8 38 120 38 70.8-38 120-38 120 38 120 38V0z" fill="#fff"></path><path class="elementor-shape-fill" d="M6480.3-.4h-1920v68s70.8-38 120-38 70.8 38 120 38 70.8-38 120-38 70.8 38 120 38 70.8-38 120-38 70.8 38 120 38 70.8-38 120-38 70.8 38 120 38 70.8-38 120-38 70.8 38 120 38 70.8-38 120-38 70.8 38 120 38 70.8-38 120-38 70.8 38 120 38 70.8-38 120-38 120 38 120 38v-68zM1920 0H0v68s70.8-38 120-38 70.8 38 120 38 70.8-38 120-38 70.8 38 120 38 70.8-38 120-38 70.8 38 120 38 70.8-38 120-38 70.8 38 120 38 70.8-38 120-38 70.8 38 120 38 70.8-38 120-38 70.8 38 120 38 70.8-38 120-38 70.8 38 120 38 70.8-38 120-38 120 38 120 38V0z" fill="#fff"></path>
  </symbol></svg>