<svg xmlns="http://www.w3.org/2000/svg" xmlns:xlink="http://www.w3.org/1999/xlink" style="width: 0; height: 0; visibility: hidden; position: absolute;" aria-hidden="true"><symbol  viewBox='0 0 24 24' id='envelope'>
    <g fill="#fff"><path d="m23.954 5.542-8.418 8.418a5.007 5.007 0 0 1-7.072 0L.046 5.542C.032 5.7 0 5.843 0 6v12a5.006 5.006 0 0 0 5 5h14a5.006 5.006 0 0 0 5-5V6c0-.157-.032-.3-.046-.458Z" data-original="#000000"></path><path d="m14.122 12.546 9.134-9.135A4.986 4.986 0 0 0 19 1H5A4.986 4.986 0 0 0 .744 3.411l9.134 9.135a3.007 3.007 0 0 0 4.244 0Z" data-original="#000000"></path></g>
  </symbol><symbol  viewBox='0 0 320 512' id='facebook'>
    <!--! Font Awesome Pro 6.2.0 by @fontawesome - https://fontawesome.com License - https://fontawesome.com/license (Commercial License) Copyright 2022 Fonticons, Inc.--><path d="m279.14 288 14.22-92.66h-88.91v-60.13c0-25.35 12.42-50.06 52.24-50.06h40.42V6.26S260.43 0 225.36 0c-73.22 0-121.08 44.38-121.08 124.72v70.62H22.89V288h81.39v224h100.17V288z"></path>
  </symbol><symbol  viewBox='0 0 50 50' id='food'>
    <path clip-rule="evenodd" d="m10.85 21.62-.008.077-.004.035-.002.017-.002.017-.002.018-.003.017-.003.017-.009.054-.002.014-.004.022-.007.035-.002.011-.011.051-.002.009-.005.024-.003.01-.001.007-.004.016-.013.05-.005.016-.004.017-.015.049-.006.017-.005.015-.006.018-.004.014-.007.02-.005.013-.011.032-.008.022-.012.033-.003.008-.006.016-.003.008-.002.007-.007.016a2.871 2.871 0 0 1-.636.959 2.876 2.876 0 0 1-2.04.845 2.875 2.875 0 0 1-2.039-.845 2.878 2.878 0 0 1-.844-2.039c0-.796.323-1.517.844-2.039a2.873 2.873 0 0 1 2.039-.845 2.894 2.894 0 0 1 2.752 2.014l.004.013.004.014.08.333.011.064.001.007.008.05.002.014.002.014.009.086.001.017.002.012.001.014.002.014.001.015.004.058.003.102v.098l-.003.095-.004.064-.001.01-.002.026-.005.008zm8.39.027c0 .796-.323 1.517-.842 2.042-.52.52-1.243.841-2.042.841a2.874 2.874 0 0 1-2.039-.844 2.873 2.873 0 0 1-.845-2.039c0-.797.323-1.518.845-2.04a2.875 2.875 0 0 1 2.039-.844c.796 0 1.517.323 2.039.845.522.521.845 1.242.845 2.039zm-4.41 7.315c0 .796-.323 1.518-.844 2.039a2.877 2.877 0 0 1-2.04.845 2.875 2.875 0 0 1-2.039-.845 2.871 2.871 0 0 1-.845-2.039c0-.799.323-1.521.845-2.039a2.875 2.875 0 0 1 2.039-.845 2.88 2.88 0 0 1 2.884 2.884zm7.667 2.261a2.89 2.89 0 0 1-4.082.003 2.886 2.886 0 0 1-.841-2.042c0-.796.323-1.518.844-2.039a2.877 2.877 0 0 1 2.039-.845c.542 0 1.05.149 1.483.409l.02.012.053.033.029.019a2.877 2.877 0 0 1 1.301 2.411c0 .796-.324 1.517-.846 2.039zm-3.595 5.478v.092a2.874 2.874 0 0 1-.827 1.726 2.871 2.871 0 0 1-2.039.845 2.871 2.871 0 0 1-2.039-.845 2.876 2.876 0 0 1-.845-2.039c0-.797.323-1.518.845-2.04a2.873 2.873 0 0 1 2.039-.845c.796 0 1.517.323 2.039.845.485.485.799 1.143.839 1.873l-.012.388zm3.355 5.502c.522.522.845 1.243.845 2.039 0 .797-.323 1.518-.845 2.04a2.879 2.879 0 0 1-2.04.844 2.879 2.879 0 0 1-2.883-2.884 2.878 2.878 0 0 1 2.883-2.883c.797 0 1.518.322 2.04.844zm6.727-22.86c-1.315-2.152-2.12-4.077-2.257-5.702-.132-1.573.429-2.889 1.867-3.872l.667-.456-.044-.801c-.095-1.752.604-3 1.926-3.848 1.369-.878 3.382-1.405 5.883-1.661l-.028.145-.291 1.206 1.149.461c.748.3 1.445.754 2.102 1.316a14.375 14.375 0 0 1 1.62 1.656 1.374 1.374 0 0 1-.307.327l-1.105.916.916 1.105c1.066 1.287 1.948 2.581 2.587 3.881.478.973.829 1.961 1.028 2.964-.911.448-1.902.768-2.96.976-1.441.284-3 .369-4.648.302l-1.435-.06-.051 1.44a1.477 1.477 0 0 1-.07.436 14.363 14.363 0 0 1-2.289-.287c-.85-.184-1.633-.464-2.319-.874l-1.068-.64-.784.971-.089.099zm1.715 3.597c.056-.295.091-.597.1-.906.59.238 1.205.421 1.837.557 1.072.232 2.219.337 3.408.365l.179.005a2.882 2.882 0 0 1-2.759 2.04 2.878 2.878 0 0 1-2.765-2.061zm-1.508 9.348a2.877 2.877 0 0 1-2.039-.844 2.877 2.877 0 0 1-.844-2.04 2.878 2.878 0 0 1 1.201-2.342c.21-.1.413-.212.609-.335a2.88 2.88 0 0 1 1.074-.206 2.87 2.87 0 0 1 2.039.844c.522.522.844 1.243.844 2.039a2.879 2.879 0 0 1-2.884 2.884zm-4.869-16.142a5.728 5.728 0 0 0-3.206 1.503c-.874-1.775-1.611-2.861-2.252-3.802a20.148 20.148 0 0 1-.83-1.288c1.068-.925 2.44-1.637 3.88-2.107a13.323 13.323 0 0 1 2.729-.586c-.66 1.184-.902 2.528-.777 4.01.061.728.215 1.485.456 2.27zm.721 8.596a2.87 2.87 0 0 1-1.495-.418l-.03-.019-.016-.01-.018-.011a2.875 2.875 0 0 1-1.324-2.426c0-.797.323-1.518.844-2.039a2.875 2.875 0 0 1 2.505-.808 29.615 29.615 0 0 0 1.642 2.801l.404.616.161.006.038.415a2.87 2.87 0 0 1-.67 1.047 2.876 2.876 0 0 1-2.041.846zm-.384 14.843a2.883 2.883 0 0 1-2.042-.842 2.886 2.886 0 0 1-.837-1.875l.013-.389-.001-.094a2.87 2.87 0 0 1 .828-1.724 2.873 2.873 0 0 1 2.039-.845c.796 0 1.518.323 2.039.845.522.521.845 1.243.845 2.039s-.323 1.518-.845 2.039a2.872 2.872 0 0 1-2.039.846zM20.217 50c1.59 0 3.029-.646 4.071-1.687a5.736 5.736 0 0 0 1.686-4.07 5.77 5.77 0 0 0-.312-1.872 5.738 5.738 0 0 0 3.066-1.599 5.74 5.74 0 0 0 1.687-4.071c0-.564-.081-1.11-.233-1.625a5.748 5.748 0 0 0 3.079-1.601 5.744 5.744 0 0 0 1.686-4.071c0-.579-.085-1.137-.244-1.664a5.74 5.74 0 0 0 2.831-1.552 5.738 5.738 0 0 0 1.686-4.071c0-.338-.029-.67-.085-.992a20.356 20.356 0 0 0 3.15-.354c1.714-.338 3.3-.917 4.727-1.794l.765-.471-.092-.899c-.172-1.666-.676-3.28-1.447-4.85a21.563 21.563 0 0 0-2.195-3.506l.184-.351a3.161 3.161 0 0 0 .253-1.745l-.05-.391-.252-.315c-.743-.929-1.521-1.78-2.356-2.494a11.13 11.13 0 0 0-1.92-1.337l-.047-.404a3.48 3.48 0 0 0-.773-1.64L38.608 0l-.728.051c-3.458.243-6.297.924-8.287 2.2-1.764 1.132-2.867 2.673-3.169 4.713-1.693-.092-3.592.173-5.397.761-1.463.477-2.883 1.171-4.107 2.065a26.058 26.058 0 0 1-.458-2.015c3.256-1.166 5.34-2.608 8.18-4.316-.302-1.249-1.469-2.227-2.6-2.582-4.666 5.176-10.098 6.689-16.856 4.574-.641.778-.761 3.27-.682 4.108 3.449-.076 6.398-.292 9.195-.959.766 3.862 1.625 5.127 2.797 6.851l.308.455-.447-.017c-1.59 0-3.029.644-4.07 1.686l-.007.007a1.544 1.544 0 0 0-.23-.291 5.743 5.743 0 0 0-4.071-1.686 5.74 5.74 0 0 0-4.07 1.686 5.738 5.738 0 0 0-1.686 4.071c0 1.59.644 3.029 1.686 4.07a5.75 5.75 0 0 0 2.649 1.509 5.737 5.737 0 0 0-.367 2.02c0 1.59.645 3.029 1.687 4.07a5.752 5.752 0 0 0 2.731 1.53 5.742 5.742 0 0 0-.327 1.917c0 1.59.644 3.029 1.686 4.07a5.746 5.746 0 0 0 2.902 1.568 5.728 5.728 0 0 0-.407 2.125c0 1.59.645 3.03 1.686 4.07A5.726 5.726 0 0 0 20.217 50z" fill-rule="evenodd"></path>
  </symbol><symbol  viewBox='0 0 24 24' id='geo'>
    <path d="M12 .042a9.992 9.992 0 0 0-9.981 9.98c0 2.57 1.99 6.592 5.915 11.954a5.034 5.034 0 0 0 8.132 0c3.925-5.362 5.915-9.384 5.915-11.954A9.992 9.992 0 0 0 12 .042ZM12 14a4 4 0 1 1 4-4 4 4 0 0 1-4 4Z" fill="#fff" data-original="#000000"></path>
  </symbol><symbol  viewBox='0 0 24 24' id='instagram'>
    <g fill="#fff"><path d="M12 2.162c3.204 0 3.584.012 4.849.07 1.308.06 2.655.358 3.608 1.311.962.962 1.251 2.296 1.311 3.608.058 1.265.07 1.645.07 4.849s-.012 3.584-.07 4.849c-.059 1.301-.364 2.661-1.311 3.608-.962.962-2.295 1.251-3.608 1.311-1.265.058-1.645.07-4.849.07s-3.584-.012-4.849-.07c-1.291-.059-2.669-.371-3.608-1.311-.957-.957-1.251-2.304-1.311-3.608-.058-1.265-.07-1.645-.07-4.849s.012-3.584.07-4.849c.059-1.296.367-2.664 1.311-3.608.96-.96 2.299-1.251 3.608-1.311 1.265-.058 1.645-.07 4.849-.07M12 0C8.741 0 8.332.014 7.052.072 5.197.157 3.355.673 2.014 2.014.668 3.36.157 5.198.072 7.052.014 8.332 0 8.741 0 12c0 3.259.014 3.668.072 4.948.085 1.853.603 3.7 1.942 5.038 1.345 1.345 3.186 1.857 5.038 1.942C8.332 23.986 8.741 24 12 24c3.259 0 3.668-.014 4.948-.072 1.854-.085 3.698-.602 5.038-1.942 1.347-1.347 1.857-3.184 1.942-5.038.058-1.28.072-1.689.072-4.948 0-3.259-.014-3.668-.072-4.948-.085-1.855-.602-3.698-1.942-5.038C20.643.671 18.797.156 16.948.072 15.668.014 15.259 0 12 0z" data-original="#000000"></path><path d="M12 5.838a6.162 6.162 0 1 0 0 12.324 6.162 6.162 0 0 0 0-12.324zM12 16a4 4 0 1 1 0-8 4 4 0 0 1 0 8z" data-original="#000000"></path><circle cx="18.406" cy="5.594" r="1.44" data-original="#000000"></circle></g>
  </symbol><symbol  viewBox='0 0 32 32' id='learning'>
    <style>.st0{fill:none;stroke:#000;stroke-width:2;stroke-linecap:round;stroke-linejoin:round;stroke-miterlimit:10}</style><path class="st0" d="M25 31H7c-1.1 0-2-.9-2-2V3c0-1.1.9-2 2-2h18c1.1 0 2 .9 2 2v26c0 1.1-.9 2-2 2z"></path><path class="st0" d="M9 5h14v4H9z"></path><circle class="st0" cx="16" cy="14" r="1"></circle><circle class="st0" cx="22" cy="14" r="1"></circle><circle class="st0" cx="10" cy="14" r="1"></circle><circle class="st0" cx="16" cy="20" r="1"></circle><circle class="st0" cx="22" cy="20" r="1"></circle><circle class="st0" cx="10" cy="20" r="1"></circle><circle class="st0" cx="16" cy="26" r="1"></circle><circle class="st0" cx="22" cy="26" r="1"></circle><circle class="st0" cx="10" cy="26" r="1"></circle>
  </symbol><symbol  viewBox='0 0 490.667 490.667' id='menu-burger'>
    <path d="M469.333 224h-448C9.551 224 0 233.551 0 245.333c0 11.782 9.551 21.333 21.333 21.333h448c11.782 0 21.333-9.551 21.333-21.333.001-11.782-9.551-21.333-21.333-21.333zm-448-106.667h448c11.782 0 21.333-9.551 21.333-21.333s-9.551-21.333-21.333-21.333h-448C9.551 74.667 0 84.218 0 96s9.551 21.333 21.333 21.333zm448 256h-448C9.551 373.333 0 382.885 0 394.667S9.551 416 21.333 416h448c11.782 0 21.333-9.551 21.333-21.333.001-11.782-9.551-21.334-21.333-21.334z"></path>
  </symbol><symbol  viewBox='0 0 24 24' id='phone-call'>
    <path d="M23 11a1 1 0 0 1-1-1 8.008 8.008 0 0 0-8-8 1 1 0 0 1 0-2 10.011 10.011 0 0 1 10 10 1 1 0 0 1-1 1Zm-3-1a6 6 0 0 0-6-6 1 1 0 1 0 0 2 4 4 0 0 1 4 4 1 1 0 0 0 2 0Zm2.183 12.164.91-1.049a3.1 3.1 0 0 0 0-4.377c-.031-.031-2.437-1.882-2.437-1.882a3.1 3.1 0 0 0-4.281.006l-1.906 1.606a12.784 12.784 0 0 1-6.932-6.944l1.6-1.9a3.1 3.1 0 0 0 .007-4.282S7.291.939 7.26.908A3.082 3.082 0 0 0 2.934.862l-1.15 1C-5.01 9.744 9.62 24.261 17.762 24a6.155 6.155 0 0 0 4.421-1.836Z" fill="#fff" data-original="#000000"></path>
  </symbol><symbol  viewBox='0 0 24 24' id='play'>
    <g clip-path="url(#a)" stroke="currentColor" stroke-linecap="round" stroke-linejoin="round"><path d="M17.736 20.192c4.524-3.168 5.623-9.404 2.455-13.928C17.024 1.74 10.788.641 6.264 3.81 1.74 6.976.641 13.212 3.808 17.736c3.168 4.524 9.404 5.623 13.928 2.456Zm0 0L6.264 3.809"></path><path d="M19.577 5.473c-3.77 5.896-8.508 9.214-16.302 11.415"></path><path d="M13.06 2.056c.413 5.24 3.392 9.494 8.646 12.35M2.293 9.595c4.783 2.18 7.761 6.434 8.647 12.349"></path></g><defs><clippath id="a"><path fill="#fff" d="M0 0h24v24H0z"></path></clippath></defs>
  </symbol><symbol  viewBox='0 0 200 200' id='point'>
    <circle cx="100" cy="100" r="80" fill="$main"></circle>
  </symbol><symbol  viewBox='0 0 32 32' id='rooms'>
    <defs><style>.cls-1{fill:#101820}</style></defs><path class="cls-1" d="M30 15a1 1 0 0 1-.58-.19L16 5.23 2.58 14.81a1 1 0 0 1-1.16-1.62l14-10a1 1 0 0 1 1.16 0l14 10A1 1 0 0 1 30 15ZM5 9a1 1 0 0 1-1-1V4a1 1 0 0 1 1-1h4a1 1 0 0 1 0 2H6v3a1 1 0 0 1-1 1Z"></path><path class="cls-1" d="M25 29h-5a1 1 0 0 1-1-1v-7h-6v7a1 1 0 0 1-1 1H7a3 3 0 0 1-3-3V16a1 1 0 0 1 2 0v10a1 1 0 0 0 1 1h4v-7a1 1 0 0 1 1-1h8a1 1 0 0 1 1 1v7h4a1 1 0 0 0 1-1V16a1 1 0 0 1 2 0v10a3 3 0 0 1-3 3Z"></path>
  </symbol><symbol  viewBox='0 0 32 32' id='safe'>
    <style>.st0{fill:none;stroke:#000;stroke-width:2;stroke-linecap:round;stroke-linejoin:round;stroke-miterlimit:10}</style><path class="st0" d="M9 28H3V6l3-2 3 2zm10 0h-6V6l3-2 3 2zm10 0h-6V6l3-2 3 2zM19 8h4v4h-4zM9 8h4v4H9zm10 12h4v4h-4zM9 20h4v4H9z"></path>
  </symbol><symbol  viewBox='0 0 24 24' id='search'>
    <path d="m24 22.586-6.262-6.262a10.016 10.016 0 1 0-1.414 1.414L22.586 24ZM10 18a8 8 0 1 1 8-8 8.009 8.009 0 0 1-8 8Z" data-name="01 align center"></path>
  </symbol><symbol  viewBox='0 0 24 24' id='shopping-cart'>
    <path d="M22.713 4.077A2.993 2.993 0 0 0 20.41 3H4.242L4.2 2.649A3 3 0 0 0 1.222 0H1a1 1 0 0 0 0 2h.222a1 1 0 0 1 .993.883l1.376 11.7A5 5 0 0 0 8.557 19H19a1 1 0 0 0 0-2H8.557a3 3 0 0 1-2.82-2h11.92a5 5 0 0 0 4.921-4.113l.785-4.354a2.994 2.994 0 0 0-.65-2.456ZM21.4 6.178l-.786 4.354A3 3 0 0 1 17.657 13H5.419l-.941-8H20.41a1 1 0 0 1 .99 1.178Z"></path><circle cx="7" cy="22" r="2"></circle><circle cx="17" cy="22" r="2"></circle>
  </symbol><symbol  id='sprite'>
    null
  </symbol><symbol  id='toys'>
    <path d="M13.8 40q-2.25 0-3.975-1.675T7.95 34.25Q6.1 33.1 5.075 31.325T4.05 27.45q0-2.6 1.525-4.675Q7.1 20.7 9.6 20.15L5.55 15.9l-.95 1q-.45.5-1.075.5t-1.075-.5Q2 16.45 2 15.85q0-.6.45-1.1l4.05-4.2q.45-.45 1.075-.45t1.075.45q.45.5.45 1.1 0 .6-.45 1.05l-.95 1.05 3.6 3.85 1.95-5.85q.55-1.65 1.925-2.7Q16.55 8 18.25 8h11.6q1.7 0 3.1 1.05 1.4 1.05 1.9 2.7l2.5 8.3q2.85.25 4.75 2.325T44 27.45q0 2.1-1.025 3.875T40.1 34.25q-.15 2.4-1.875 4.075Q36.5 40 34.25 40q-2.1 0-3.675-1.45Q29 37.1 28.6 35h-9.15q-.4 2.1-1.975 3.55Q15.9 40 13.8 40Zm-.1-20.05h8.75V11h-4.2q-.75 0-1.3.475t-.8 1.175Zm11.75 0h8.75l-2.25-7.3q-.25-.7-.8-1.175Q30.6 11 29.85 11h-4.4Zm-6 12.05h9.15q.55-1.8 2.15-2.9 1.6-1.1 3.5-1.1 1.6 0 2.95.85t2.2 2.2q.85-.65 1.225-1.625Q41 28.45 41 27.45q0-1.9-1.3-3.2-1.3-1.3-3.2-1.3H11.55q-1.9 0-3.2 1.3-1.3 1.3-1.3 3.2 0 1 .4 1.975.4.975 1.2 1.625.8-1.45 2.175-2.25Q12.2 28 13.8 28q1.9 0 3.5 1.1t2.15 2.9Zm-5.65 5q1.3 0 2.15-.875.85-.875.85-2.125 0-1.3-.85-2.15Q15.1 31 13.8 31q-1.25 0-2.125.85T10.8 34q0 1.25.875 2.125T13.8 37Zm20.45 0q1.3 0 2.15-.875.85-.875.85-2.125 0-1.3-.85-2.15-.85-.85-2.15-.85-1.25 0-2.125.85T31.25 34q0 1.25.875 2.125T34.25 37Zm-10.2-9.55Z"></path>
  </symbol><symbol  viewBox='0 0 24 24' id='twitter'>
    <path d="M21.543 7.104c.014.211.014.423.014.636 0 6.507-4.954 14.01-14.01 14.01v-.004A13.936 13.936 0 0 1 0 19.539a9.881 9.881 0 0 0 7.287-2.041 4.93 4.93 0 0 1-4.6-3.42 4.926 4.926 0 0 0 2.223-.084A4.924 4.924 0 0 1 .96 9.167v-.062a4.88 4.88 0 0 0 2.235.616A4.927 4.927 0 0 1 1.67 3.148a13.982 13.982 0 0 0 10.148 5.145 4.929 4.929 0 0 1 8.391-4.491 9.873 9.873 0 0 0 3.127-1.195 4.947 4.947 0 0 1-2.165 2.724A9.89 9.89 0 0 0 24 4.555a10.008 10.008 0 0 1-2.457 2.549z" fill="#fff" data-original="#000000"></path>
  </symbol><symbol  viewBox='0 0 24 24' id='user'>
    <path d="M12 12a6 6 0 1 0-6-6 6.006 6.006 0 0 0 6 6Zm0-10a4 4 0 1 1-4 4 4 4 0 0 1 4-4Zm0 12a9.01 9.01 0 0 0-9 9 1 1 0 0 0 2 0 7 7 0 0 1 14 0 1 1 0 0 0 2 0 9.01 9.01 0 0 0-9-9Z"></path>
  </symbol><symbol  viewBox='0 0 2400 800' id='waves-program'>
    <path d="M-.3 373.674c40.545 8.75 115.609 49.708 194.615 42 79.007-7.709 107.693-73.792 184.616-79 76.923-5.209 107.692 49.833 184.615 54 76.923 4.166 107.692-36.5 184.615-34 76.923 2.5 107.693 49.958 184.616 46 76.923-3.959 107.692-66.25 184.615-65 76.923 1.25 107.692 65.375 184.616 71 76.923 5.625 107.692-45.667 184.615-44 76.923 1.666 107.692 50.541 184.615 52 76.923 1.458 107.693-48.75 184.616-45 76.923 3.75 107.692 65.5 184.615 63 76.923-2.5 107.692-74.167 184.615-75 76.924-.834 94.071-13.167 184.616 71 90.545 84.166 854.166 159.458 250 333-604.167 173.541-2493.75 395.833-3150 500" opacity="NaN" fill="hsl(189,28%,95%)"></path>
  </symbol><symbol  viewBox='0 0 6480 68' id='waves' preserveAspectRatio='none'>
    <path class="elementor-shape-fill" d="M3599.8 0h-1920v68s70.8-38 120-38 70.8 38 120 38 70.8-38 120-38 70.8 38 120 38 70.8-38 120-38 70.8 38 120 38 70.8-38 120-38 70.8 38 120 38 70.8-38 120-38 70.8 38 120 38 70.8-38 120-38 70.8 38 120 38 70.8-38 120-38 70.8 38 120 38 70.8-38 120-38 120 38 120 38V0z" fill="#fff"></path><path class="elementor-shape-fill" d="M3599.8 0h-1920v68s70.8-38 120-38 70.8 38 120 38 70.8-38 120-38 70.8 38 120 38 70.8-38 120-38 70.8 38 120 38 70.8-38 120-38 70.8 38 120 38 70.8-38 120-38 70.8 38 120 38 70.8-38 120-38 70.8 38 120 38 70.8-38 120-38 70.8 38 120 38 70.8-38 120-38 120 38 120 38V0z" fill="#fff"></path><path class="elementor-shape-fill" d="M5280.3 0h-1920v68s70.8-38 120-38 70.8 38 120 38 70.8-38 120-38 70.8 38 120 38 70.8-38 120-38 70.8 38 120 38 70.8-38 120-38 70.8 38 120 38 70.8-38 120-38 70.8 38 120 38 70.8-38 120-38 70.8 38 120 38 70.8-38 120-38 70.8 38 120 38 70.8-38 120-38 120 38 120 38V0z" fill="#fff"></path><path class="elementor-shape-fill" d="M6480.3-.4h-1920v68s70.8-38 120-38 70.8 38 120 38 70.8-38 120-38 70.8 38 120 38 70.8-38 120-38 70.8 38 120 38 70.8-38 120-38 70.8 38 120 38 70.8-38 120-38 70.8 38 120 38 70.8-38 120-38 70.8 38 120 38 70.8-38 120-38 70.8 38 120 38 70.8-38 120-38 120 38 120 38v-68zM1920 0H0v68s70.8-38 120-38 70.8 38 120 38 70.8-38 120-38 70.8 38 120 38 70.8-38 120-38 70.8 38 120 38 70.8-38 120-38 70.8 38 120 38 70.8-38 120-38 70.8 38 120 38 70.8-38 120-38 70.8 38 120 38 70.8-38 120-38 70.8 38 120 38 70.8-38 120-38 120 38 120 38V0z" fill="#fff"></path>
  </symbol></svg>