<svg xmlns="http://www.w3.org/2000/svg" version="1.1" xmlns:xlink="http://www.w3.org/1999/xlink" xmlns:svgjs="http://svgjs.dev/svgjs" viewBox="0 0 600 600" opacity="1"><path d="M36.480186462402344,354.5454406738281C19.696969350179035,298.07691192626953,36.3053601582845,209.61538441975912,55.361305236816406,166.78321838378906C74.41725031534831,123.951052347819,107.28438949584961,99.65034739176433,150.81585693359375,97.55244445800781C194.3473243713379,95.4545415242513,255.18647257486978,139.16083526611328,316.55010986328125,154.19580078125C377.9137471516927,169.23076629638672,474.06760660807294,170.27971903483072,518.9976806640625,187.76223754882812C563.9277547200521,205.24475606282553,577.3892923990885,217.83216857910156,586.1305541992188,259.0909118652344C594.871815999349,300.3496551513672,597.1445566813151,392.48252868652344,571.4452514648438,435.314697265625C545.7459462483724,478.14686584472656,501.1654968261719,504.3706410725911,431.9347229003906,516.0839233398438C362.7039489746094,527.7972056070963,221.9696973164876,532.5174713134766,156.06060791015625,505.5943908691406C90.15151850382487,478.6713104248047,53.263403574625656,411.0139694213867,36.480186462402344,354.5454406738281C19.696969350179035,298.07691192626953,36.3053601582845,209.61538441975912,55.361305236816406,166.78321838378906" fill="hsl(189,28%,85%)" stroke-width="17" stroke="hsl(189,28%,85%)" stroke-opacity="1" transform="matrix(1,0,-0.17632698070846498,1,44.07183856113622,-11.444656372070312)" fill-opacity="0.05"></path></svg>